<?xml version="1.0" encoding="UTF-8"?>
<svg version="1.1" xmlns="http://www.w3.org/2000/svg" width="1024" height="1024">
<path d="M0 0 C-0.60909437 3.69428979 -1.6549028 6.74299012 -3.25 10.125 C-3.6934375 11.07890625 -4.136875 12.0328125 -4.59375 13.015625 C-5.53125 15.00520833 -6.46875 16.99479167 -7.40625 18.984375 C-7.8496875 19.93828125 -8.293125 20.8921875 -8.75 21.875 C-9.15734375 22.73867188 -9.5646875 23.60234375 -9.984375 24.4921875 C-10.99814012 26.99540753 -11.56158005 29.34088768 -12 32 C-11.11699219 32.73863281 -10.23398437 33.47726562 -9.32421875 34.23828125 C22.01839504 60.6445321 22.01839504 60.6445321 24.87939453 80.84521484 C26.25813106 90.20795021 29.46286608 95.03266843 36 102 C38.22743309 104.65549066 40.39298748 107.35961896 42.5625 110.0625 C43.67395678 111.43011221 44.78592526 112.79730874 45.8984375 114.1640625 C47.79392036 116.50132355 49.67702663 118.84694845 51.5390625 121.2109375 C52.60253906 122.56058594 52.60253906 122.56058594 53.6875 123.9375 C54.28949219 124.70964844 54.89148438 125.48179687 55.51171875 126.27734375 C56.9042767 128.11232665 56.9042767 128.11232665 59 129 C59.61101562 130.03253906 59.61101562 130.03253906 60.234375 131.0859375 C62.55436167 134.91494205 65.38286583 138.19641765 68.25 141.625 C78.50364289 154.09018503 84.33108069 163.53904376 84.5625 180 C84.63694336 181.58167969 84.63694336 181.58167969 84.71289062 183.1953125 C84.81210565 190.73565438 84.81210565 190.73565438 82.64135742 194.11523438 C80.8618562 195.93568075 79.03142117 197.46803408 77 199 C76.43015381 199.47824219 75.86030762 199.95648438 75.27319336 200.44921875 C73.60741795 201.84212011 71.90878633 203.17649503 70.1875 204.5 C69.58075439 204.96921875 68.97400879 205.4384375 68.34887695 205.921875 C66.57150389 207.28876008 64.78680818 208.64548413 63 210 C62.071875 210.7115625 61.14375 211.423125 60.1875 212.15625 C52.60429961 217.74886029 45.52560488 220.92183273 36 220 C30.44260294 218.24503251 25.934245 215.29299075 22 211 C22 210.34 22 209.68 22 209 C21.34 209 20.68 209 20 209 C20 208.34 20 207.68 20 207 C19.41476562 206.74605469 18.82953125 206.49210938 18.2265625 206.23046875 C15.76189741 204.86841699 14.28130215 203.37698467 12.375 201.3125 C7.04038553 195.82803681 0.93302377 191.27569471 -6 188 C-6.33 188.66 -6.66 189.32 -7 190 C-7 189.01 -7 188.02 -7 187 C-12.87792561 185.78298457 -18.73438567 184.8889228 -24.70483398 184.29785156 C-40.09106296 182.76193723 -52.16205794 178.48128327 -64 168 C-64 167.34 -64 166.68 -64 166 C-64.58265625 165.76539063 -65.1653125 165.53078125 -65.765625 165.2890625 C-68.50531734 163.70847076 -69.86983969 161.90598503 -71.75 159.375 C-72.36359375 158.55773437 -72.9771875 157.74046875 -73.609375 156.8984375 C-74.06828125 156.27195312 -74.5271875 155.64546875 -75 155 C-75.66 155.33 -76.32 155.66 -77 156 C-70.80939363 176.31006817 -53.56576148 195.42671838 -36.6171875 207.625 C-36.08351563 208.07875 -35.54984375 208.5325 -35 209 C-35 209.66 -35 210.32 -35 211 C-34.43410156 211.25652344 -33.86820313 211.51304687 -33.28515625 211.77734375 C-30.73744535 213.14047796 -28.67683862 214.73635071 -26.4375 216.5625 C-25.55964844 217.27664063 -24.68179688 217.99078125 -23.77734375 218.7265625 C-22.86082031 219.47679687 -21.94429687 220.22703125 -21 221 C-20.09378906 221.72960937 -19.18757812 222.45921875 -18.25390625 223.2109375 C-4.73789253 234.13877838 -4.73789253 234.13877838 0 239 C0 239.66 0 240.32 0 241 C0.99 241.33 1.98 241.66 3 242 C4.71238897 244.09259238 6.27450904 246.16017727 7.8125 248.375 C8.25682373 249.00841309 8.70114746 249.64182617 9.15893555 250.29443359 C12.86546883 255.65618736 16.15763107 261.127478 19 267 C19.43957031 267.9075 19.87914062 268.815 20.33203125 269.75 C28.51001193 287.93427124 30.24264792 308.26463582 30 328 C30.66 328.33 31.32 328.66 32 329 C32.52734375 331.328125 32.52734375 331.328125 32.9375 334.25 C33.62708096 338.46957871 34.40948763 341.50843985 37 345 C37.33 345.66 37.66 346.32 38 347 C-38.89 347 -115.78 347 -195 347 C-193.35 342.71 -191.7 338.42 -190 334 C-180.9174666 300.69737753 -186.06366709 268.34216546 -193.08032227 235.20727539 C-195.30805842 224.64993856 -197.21084449 214.13319897 -198.52734375 203.41796875 C-198.79386554 200.14520444 -198.79386554 200.14520444 -200 198 C-200.15367072 196.3618811 -200.249686 194.71817636 -200.31640625 193.07421875 C-200.35862305 192.06133789 -200.40083984 191.04845703 -200.44433594 190.00488281 C-200.64622572 184.33695237 -200.83585949 178.66916067 -201 173 C-201.03013184 172.08621582 -201.06026367 171.17243164 -201.09130859 170.23095703 C-202.42367195 126.09323837 -192.8397774 78.96780985 -163 45 C-162.22398437 44.0925 -161.44796875 43.185 -160.6484375 42.25 C-154.04182365 34.67498998 -154.04182365 34.67498998 -150 33 C-150 32.34 -150 31.68 -150 31 C-137.37437076 20.03503911 -114.3752885 3 -97 3 C-96.67 2.34 -96.34 1.68 -96 1 C-94.09375 0.47265625 -94.09375 0.47265625 -91.5 0.0625 C-88.03913393 -0.49944475 -84.5967756 -1.07949749 -81.15625 -1.7578125 C-55.03701178 -6.89668905 -25.83593606 -6.75240954 0 0 Z M-101.04296875 39.77734375 C-101.75066406 40.16019531 -102.45835937 40.54304688 -103.1875 40.9375 C-103.90292969 41.31777344 -104.61835938 41.69804687 -105.35546875 42.08984375 C-106.16951172 42.54037109 -106.16951172 42.54037109 -107 43 C-107 43.66 -107 44.32 -107 45 C-107.99 44.67 -108.98 44.34 -110 44 C-119.48403785 47.97765594 -126.83769473 54.83769473 -134 62 C-134.81597656 62.81597656 -135.63195312 63.63195312 -136.47265625 64.47265625 C-148.49202953 77.15175499 -158.9224264 95.85128776 -163 113 C-163.17845459 113.71792725 -163.35690918 114.43585449 -163.54077148 115.17553711 C-167.47485137 131.11873929 -170.37346555 146.5476694 -171 163 C-171.05414063 164.29679687 -171.10828125 165.59359375 -171.1640625 166.9296875 C-171.62401689 184.10681821 -169.78394165 202.0629263 -167 219 C-166.67 219.33 -166.34 219.66 -166 220 C-165.81118946 221.60751198 -165.6752623 223.22130787 -165.5625 224.8359375 C-165.06541229 230.84565024 -164.09333442 236.69881051 -163 242.625 C-161.75811894 249.41035012 -160.69110109 256.13748743 -160 263 C-159.75068741 265.26193892 -159.49920232 267.52363895 -159.24609375 269.78515625 C-158.49739583 276.5234375 -157.74869792 283.26171875 -157 290 C-156.67 290 -156.34 290 -156 290 C-155.00954849 283.19064587 -154.92739948 276.54278643 -155.03710938 269.67797852 C-155.05917276 267.78540719 -155.03379283 265.89239823 -155 264 C-154.67 263.67 -154.34 263.34 -154 263 C-153.51754867 253.49435616 -154.18658957 243.93532659 -154.79956055 234.44897461 C-154.93803999 232.30413632 -155.07012554 230.15897597 -155.20117188 228.01367188 C-155.67783194 220.3304681 -156.24172561 212.66132687 -157 205 C-157.66 205 -158.32 205 -159 205 C-158.67 204.67 -158.34 204.34 -158 204 C-157.89988704 201.01133358 -157.86126025 198.05089547 -157.875 195.0625 C-157.87113281 194.22525391 -157.86726563 193.38800781 -157.86328125 192.52539062 C-157.86521484 191.32366211 -157.86521484 191.32366211 -157.8671875 190.09765625 C-157.86831543 189.36039307 -157.86944336 188.62312988 -157.87060547 187.86352539 C-157.88658146 185.90668399 -157.88658146 185.90668399 -159 184 C-159.09667547 182.41907166 -159.12979962 180.83387421 -159.125 179.25 C-159.12757813 178.40953125 -159.13015625 177.5690625 -159.1328125 176.703125 C-159 174 -159 174 -158.515625 171.2734375 C-157.97307991 167.82909823 -157.81997649 164.50340152 -157.71020508 161.02368164 C-156.43888193 121.50338118 -144.84940759 81.38355709 -115.4375 53.5625 C-109.50262656 48.06738662 -103.03752848 43.96144749 -96 40 C-98.85302199 38.69736489 -98.85302199 38.69736489 -101.04296875 39.77734375 Z M-13 96 C-7.42049472 103.01014766 -1.0393322 109.91400026 8 112 C8.07427838 108.65747276 8.06546953 106.1964086 7 103 C5.34667355 101.9415712 5.34667355 101.9415712 3.2890625 101.17578125 C2.53882813 100.86962891 1.78859375 100.56347656 1.015625 100.24804688 C0.22671875 99.93931641 -0.5621875 99.63058594 -1.375 99.3125 C-2.15617188 98.99216797 -2.93734375 98.67183594 -3.7421875 98.34179688 C-8.22423955 96.50949407 -8.22423955 96.50949407 -13 96 Z M-84 140 C-83 142 -83 142 -83 142 Z M-83 143 C-82.55005243 144.79379098 -82.08975857 146.58498928 -81.625 148.375 C-81.36976563 149.37273437 -81.11453125 150.37046875 -80.8515625 151.3984375 C-80.17595681 154.12541015 -80.17595681 154.12541015 -78 156 C-77.34 154.68 -76.68 153.36 -76 152 C-76.61875 151.2575 -77.2375 150.515 -77.875 149.75 C-79.60437281 147.51198812 -80.86106661 145.56260013 -82 143 C-82.33 143 -82.66 143 -83 143 Z " fill="#021A2E" transform="translate(576,280)"/>
<path d="M0 0 C6.08727394 0.14149512 12.17544569 0.15242873 18.26408733 0.17599308 C30.30472341 0.22603284 42.34172624 0.37824795 54.38039517 0.59695315 C66.05762219 0.80886822 77.73385386 0.97126944 89.41262174 1.06863284 C90.49679816 1.0776968 90.49679816 1.0776968 91.60287713 1.08694387 C95.22975977 1.11696505 98.85664933 1.14602906 102.48354352 1.17461765 C132.45731905 1.41211561 162.42685017 1.81810397 192.39724088 2.33206058 C193.05724088 3.65206058 193.71724088 4.97206058 194.39724088 6.33206058 C195.05724088 6.33206058 195.71724088 6.33206058 196.39724088 6.33206058 C197.94802213 7.90627933 197.94802213 7.90627933 199.70974088 10.01956058 C203.15123185 14.06795349 206.7836731 17.80813545 210.64724088 21.45706058 C214.2142554 25.27886185 213.52680296 29.81141265 213.49489713 34.71877933 C213.49277471 35.94429255 213.49277471 35.94429255 213.49060941 37.19456363 C213.48501382 39.80293325 213.47246216 42.41121691 213.45974088 45.01956058 C213.45472531 46.78843954 213.4501625 48.55731986 213.446069 50.3262012 C213.43504584 54.66152076 213.41778425 58.99677609 213.39724088 63.33206058 C209.01253224 65.02470831 205.58914302 65.53167496 200.90505338 65.30862308 C199.70622525 65.25706058 198.50739713 65.20549808 197.27224088 65.15237308 C196.03474088 65.08791995 194.79724088 65.02346683 193.52224088 64.95706058 C192.26153775 64.90034183 191.00083463 64.84362308 189.70192838 64.78518558 C186.59975364 64.64417763 183.49844509 64.49280728 180.39724088 64.33206058 C180.39724088 64.99206058 180.39724088 65.65206058 180.39724088 66.33206058 C179.44849088 66.12581058 178.49974088 65.91956058 177.52224088 65.70706058 C176.49099088 65.58331058 175.45974088 65.45956058 174.39724088 65.33206058 C173.73724088 65.99206058 173.07724088 66.65206058 172.39724088 67.33206058 C172.06724088 66.67206058 171.73724088 66.01206058 171.39724088 65.33206058 C169.41724088 65.33206058 167.43724088 65.33206058 165.39724088 65.33206058 C165.06724088 65.99206058 164.73724088 66.65206058 164.39724088 67.33206058 C163.73724088 66.67206058 163.07724088 66.01206058 162.39724088 65.33206058 C160.03214727 65.03146115 157.65282206 64.83691046 155.27224088 64.70706058 C153.99091275 64.63229495 152.70958463 64.55752933 151.38942838 64.48049808 C150.4020065 64.4315137 149.41458463 64.38252933 148.39724088 64.33206058 C148.39724088 64.99206058 148.39724088 65.65206058 148.39724088 66.33206058 C146.73057421 66.33206058 145.06390754 66.33206058 143.39724088 66.33206058 C143.39724088 65.67206058 143.39724088 65.01206058 143.39724088 64.33206058 C141.14667366 64.4463942 138.89677414 64.57392493 136.64724088 64.70706058 C134.76778775 64.81147464 134.76778775 64.81147464 132.85036588 64.91799808 C129.78725967 65.28529362 127.97749822 65.72917344 125.39724088 67.33206058 C125.39724088 66.34206058 125.39724088 65.35206058 125.39724088 64.33206058 C124.18036588 64.82706058 122.96349088 65.32206058 121.70974088 65.83206058 C118.4723735 67.05685498 115.89624731 67.66009243 112.39724088 67.33206058 C112.72724088 66.67206058 113.05724088 66.01206058 113.39724088 65.33206058 C109.64725718 65.30300133 105.89730251 65.28524184 102.14724088 65.26956058 C101.08376431 65.26118167 100.02028775 65.25280276 98.92458463 65.24416995 C97.89977994 65.24094729 96.87497525 65.23772464 95.81911588 65.23440433 C94.40517545 65.2265491 94.40517545 65.2265491 92.96267056 65.21853518 C90.61185359 65.32256353 88.64909138 65.68680653 86.39724088 66.33206058 C86.06724088 66.33206058 85.73724088 66.33206058 85.39724088 66.33206058 C85.06724088 65.67206058 84.73724088 65.01206058 84.39724088 64.33206058 C80.16100546 64.42552371 75.92533237 64.53159971 71.68972135 64.64944339 C70.24840348 64.68775731 68.80698919 64.722606 67.3655026 64.75393558 C65.29500202 64.79953504 63.22516655 64.85753501 61.15505338 64.91799808 C59.90869107 64.94941897 58.66232877 64.98083987 57.37819791 65.01321292 C54.28182311 65.02888367 54.28182311 65.02888367 52.39724088 67.33206058 C50.91224088 66.34206058 50.91224088 66.34206058 49.39724088 65.33206058 C49.39724088 65.66206058 49.39724088 65.99206058 49.39724088 66.33206058 C44.94224088 66.82706058 44.94224088 66.82706058 40.39724088 67.33206058 C40.06724088 66.67206058 39.73724088 66.01206058 39.39724088 65.33206058 C35.10724088 65.33206058 30.81724088 65.33206058 26.39724088 65.33206058 C26.06724088 65.99206058 25.73724088 66.65206058 25.39724088 67.33206058 C23.96015997 67.38629004 22.52248626 67.42495781 21.08474088 67.45706058 C19.88397916 67.49186526 19.88397916 67.49186526 18.65895963 67.52737308 C16.39724088 67.33206058 16.39724088 67.33206058 13.39724088 65.33206058 C10.64306769 65.03139903 7.97078941 64.82280759 5.20974088 64.70706058 C4.46015103 64.6683887 3.71056119 64.62971683 2.9382565 64.58987308 C1.09164889 64.49577842 -0.75552102 64.41283739 -2.60275912 64.33206058 C-2.60275912 64.99206058 -2.60275912 65.65206058 -2.60275912 66.33206058 C-3.26275912 66.00206058 -3.92275912 65.67206058 -4.60275912 65.33206058 C-7.11603882 65.20812591 -9.58946027 65.14690945 -12.10275912 65.14456058 C-12.79240756 65.13231448 -13.482056 65.12006839 -14.19260287 65.1074512 C-15.99753406 65.10217362 -17.80193755 65.210216 -19.60275912 65.33206058 C-20.26275912 65.99206058 -20.92275912 66.65206058 -21.60275912 67.33206058 C-21.60275912 66.34206058 -21.60275912 65.35206058 -21.60275912 64.33206058 C-22.22150912 64.51768558 -22.84025912 64.70331058 -23.47775912 64.89456058 C-25.60275912 65.33206058 -25.60275912 65.33206058 -27.60275912 64.33206058 C-28.09775912 65.32206058 -28.09775912 65.32206058 -28.60275912 66.33206058 C-28.60275912 65.67206058 -28.60275912 65.01206058 -28.60275912 64.33206058 C-29.62756381 64.44034183 -29.62756381 64.44034183 -30.67307162 64.55081058 C-38.05605114 65.2305734 -45.37873232 65.44204989 -52.79025912 65.45706058 C-53.70372104 65.46157229 -54.61718295 65.46608401 -55.55832553 65.47073245 C-56.90096469 65.46783206 -56.90096469 65.46783206 -58.27072787 65.46487308 C-59.0572977 65.46374515 -59.84386752 65.46261722 -60.65427279 65.46145511 C-64.98265582 65.27150371 -69.29171171 64.76316532 -73.60275912 64.33206058 C-73.93275912 57.40206058 -74.26275912 50.47206058 -74.60275912 43.33206058 C-74.93275912 43.33206058 -75.26275912 43.33206058 -75.60275912 43.33206058 C-75.72775912 37.58206058 -75.72775912 37.58206058 -74.60275912 35.33206058 C-74.73999089 33.87252306 -74.88803647 32.41399425 -75.04173923 30.95609927 C-75.04233581 22.20150914 -69.45143532 16.14225561 -63.59092498 10.22980285 C-47.11008456 -4.80404102 -20.62644989 -0.51644663 0 0 Z " fill="#01182C" transform="translate(427.6027591228485,636.6679394245148)"/>
<path d="M0 0 C0.33 0 0.66 0 1 0 C1 12.87 1 25.74 1 39 C95.05 39 189.1 39 286 39 C281.74089372 41.12955314 280.1116314 41.18689234 275.484375 40.9765625 C274.23398437 40.925 272.98359375 40.8734375 271.6953125 40.8203125 C270.39335938 40.75585938 269.09140625 40.69140625 267.75 40.625 C266.43257812 40.56828125 265.11515625 40.5115625 263.7578125 40.453125 C260.50465594 40.31168341 257.25227448 40.16026986 254 40 C254 40.66 254 41.32 254 42 C253.05125 41.79375 252.1025 41.5875 251.125 41.375 C250.09375 41.25125 249.0625 41.1275 248 41 C247.01 41.99 247.01 41.99 246 43 C245.67 42.34 245.34 41.68 245 41 C243.02 41 241.04 41 239 41 C238.67 41.66 238.34 42.32 238 43 C237.34 42.34 236.68 41.68 236 41 C233.63490639 40.69940057 231.25558119 40.50484988 228.875 40.375 C227.59367188 40.30023437 226.31234375 40.22546875 224.9921875 40.1484375 C224.00476563 40.09945312 223.01734375 40.05046875 222 40 C222 40.66 222 41.32 222 42 C220.33333333 42 218.66666667 42 217 42 C217 41.34 217 40.68 217 40 C214.74943278 40.11433363 212.49953326 40.24186436 210.25 40.375 C208.37054687 40.47941406 208.37054687 40.47941406 206.453125 40.5859375 C203.39001879 40.95323304 201.58025734 41.39711286 199 43 C199 42.01 199 41.02 199 40 C197.783125 40.495 196.56625 40.99 195.3125 41.5 C192.07513262 42.72479441 189.49900643 43.32803185 186 43 C186.33 42.34 186.66 41.68 187 41 C183.2500163 40.97094076 179.50006163 40.95318126 175.75 40.9375 C174.68652344 40.92912109 173.62304688 40.92074219 172.52734375 40.91210938 C171.50253906 40.90888672 170.47773437 40.90566406 169.421875 40.90234375 C168.00793457 40.89448853 168.00793457 40.89448853 166.56542969 40.88647461 C164.21461271 40.99050296 162.25185051 41.35474595 160 42 C159.67 42 159.34 42 159 42 C158.67 41.34 158.34 40.68 158 40 C153.76376458 40.09346313 149.52809149 40.19953913 145.29248047 40.31738281 C143.8511626 40.35569674 142.40974832 40.39054543 140.96826172 40.421875 C138.89776114 40.46747446 136.82792567 40.52547444 134.7578125 40.5859375 C133.5114502 40.6173584 132.26508789 40.6487793 130.98095703 40.68115234 C127.88458224 40.69682309 127.88458224 40.69682309 126 43 C124.515 42.01 124.515 42.01 123 41 C123 41.33 123 41.66 123 42 C118.545 42.495 118.545 42.495 114 43 C113.67 42.34 113.34 41.68 113 41 C108.71 41 104.42 41 100 41 C99.505 41.99 99.505 41.99 99 43 C97.5629191 43.05422947 96.12524538 43.09289723 94.6875 43.125 C93.88699219 43.14820313 93.08648437 43.17140625 92.26171875 43.1953125 C90 43 90 43 87 41 C84.24582682 40.69933846 81.57354853 40.49074701 78.8125 40.375 C78.06291016 40.33632813 77.31332031 40.29765625 76.54101562 40.2578125 C74.69440801 40.16371784 72.8472381 40.08077681 71 40 C71 40.66 71 41.32 71 42 C70.34 41.67 69.68 41.34 69 41 C66.4867203 40.87606534 64.01329886 40.81484888 61.5 40.8125 C60.81035156 40.80025391 60.12070312 40.78800781 59.41015625 40.77539062 C57.60522506 40.77011305 55.80082158 40.87815542 54 41 C53.34 41.66 52.68 42.32 52 43 C52 42.01 52 41.02 52 40 C51.38125 40.185625 50.7625 40.37125 50.125 40.5625 C48 41 48 41 46 40 C45.505 40.99 45.505 40.99 45 42 C45 41.34 45 40.68 45 40 C43.97519531 40.10828125 43.97519531 40.10828125 42.9296875 40.21875 C35.54670798 40.89851282 28.2240268 41.10998931 20.8125 41.125 C19.89903809 41.12951172 18.98557617 41.13402344 18.04443359 41.13867188 C16.70179443 41.13577148 16.70179443 41.13577148 15.33203125 41.1328125 C14.54546143 41.13168457 13.7588916 41.13055664 12.94848633 41.12939453 C8.6201033 40.93944314 4.31104742 40.43110474 0 40 C-0.33 33.07 -0.66 26.14 -1 19 C-1.33 19 -1.66 19 -2 19 C-2.125 13.25 -2.125 13.25 -1 11 C-0.95509079 9.31309769 -0.96116137 7.624553 -1 5.9375 C-1.03777102 4.29210014 -1.04642479 2.64517844 -1 1 C-0.67 0.67 -0.34 0.34 0 0 Z " fill="#314247" transform="translate(354,661)"/>
<path d="M0 0 C80.52 0 161.04 0 244 0 C244.99 1.98 244.99 1.98 246 4 C246.66 4 247.32 4 248 4 C249.55078125 5.57421875 249.55078125 5.57421875 251.3125 7.6875 C254.75399098 11.73589291 258.38643222 15.47607488 262.25 19.125 C265.81701453 22.94680128 265.12956209 27.47935207 265.09765625 32.38671875 C265.09553383 33.61223198 265.09553383 33.61223198 265.09336853 34.86250305 C265.08777294 37.47087268 265.07522129 40.07915634 265.0625 42.6875 C265.05748443 44.45637897 265.05292162 46.22525928 265.04882812 47.99414062 C265.03780496 52.32946019 265.02054338 56.66471552 265 61 C264.67 61 264.34 61 264 61 C264.01683838 59.96182129 264.03367676 58.92364258 264.05102539 57.85400391 C264.10211381 53.95823397 264.09315191 50.06441139 264.06713867 46.16845703 C264.06407879 44.49067492 264.07675645 42.81278041 264.10620117 41.13525391 C264.45145449 29.26958222 264.45145449 29.26958222 258.8125 19.20703125 C257.24289267 17.76611087 255.64094273 16.3591268 254 15 C252.89556077 13.91704317 251.79903347 12.82588523 250.71484375 11.72265625 C248.8419502 9.92878775 246.96690026 8.13716828 245.08984375 6.34765625 C243 4 243 4 243 1 C162.81 1 82.62 1 0 1 C0 0.67 0 0.34 0 0 Z " fill="#131F25" transform="translate(376,639)"/>
<path d="M0 0 C0.99 0.33 1.98 0.66 3 1 C3 1.66 3 2.32 3 3 C-72.24 3 -147.48 3 -225 3 C-225 2.67 -225 2.34 -225 2 C-150.75 2 -76.5 2 0 2 C0 1.34 0 0.68 0 0 Z " fill="#030001" transform="translate(608,623)"/>
<path d="M0 0 C0.33 0 0.66 0 1 0 C1.97889443 7.88297265 2.19280967 15.68651647 2.1875 23.625 C2.18669434 24.88304443 2.18588867 26.14108887 2.18505859 27.43725586 C2.13111133 35.84086502 1.80198403 44.18603735 1.125 52.5625 C1.04660889 53.56039551 0.96821777 54.55829102 0.88745117 55.58642578 C0.47376859 60.12305217 0.08614864 62.82770272 -2 67 C-2 56.11 -2 45.22 -2 34 C-1.34 34 -0.68 34 0 34 C-0.07726318 33.34733154 -0.15452637 32.69466309 -0.23413086 32.0222168 C-0.99318306 24.87600259 -0.96247089 17.9797945 -0.5625 10.8125 C-0.51029297 9.76513672 -0.45808594 8.71777344 -0.40429688 7.63867188 C-0.27638246 5.09201218 -0.14152987 2.54593297 0 0 Z " fill="#0C1116" transform="translate(422,509)"/>
<path d="M0 0 C4.14317714 0.51970166 6.12808464 1.62843091 9.125 4.5 C13.43727618 8.51612321 17.92406629 12.23489301 22.51953125 15.921875 C24.82477406 17.85319653 26.98635811 19.76574933 29 22 C29 22.66 29 23.32 29 24 C29.99 24.33 30.98 24.66 32 25 C33.79084289 27.21751049 35.43944911 29.41583074 37.0625 31.75 C37.50916016 32.37132812 37.95582031 32.99265625 38.41601562 33.6328125 C40.77428668 36.97457776 42.67930169 40.09013607 44 44 C39.95610256 42.65203419 38.6541608 39.95196474 36.375 36.5625 C29.10844351 26.11740592 21.04998302 17.82914761 11 10 C9.12254557 8.5239499 7.24741389 7.04493896 5.375 5.5625 C4.55773437 4.92441406 3.74046875 4.28632813 2.8984375 3.62890625 C1 2 1 2 0 0 Z " fill="#0E161C" transform="translate(547,497)"/>
<path d="M0 0 C1 3 1 3 -0.109375 5.6015625 C-0.65078125 6.59929687 -1.1921875 7.59703125 -1.75 8.625 C-6.38674409 17.379855 -6.38674409 17.379855 -8 27 C-8.66 27 -9.32 27 -10 27 C-10 29.31 -10 31.62 -10 34 C-10.66 34 -11.32 34 -12 34 C-12.99 38.62 -13.98 43.24 -15 48 C-15.33 48 -15.66 48 -16 48 C-17.18508619 34.96405186 -11.30262176 22.25963568 -6.3125 10.5 C-5.92006104 9.57348633 -5.52762207 8.64697266 -5.12329102 7.69238281 C-2.25619591 1.12809796 -2.25619591 1.12809796 0 0 Z " fill="#10191F" transform="translate(397,350)"/>
<path d="M0 0 C3.08282902 1.34324449 4.86935039 2.7159497 6.953125 5.34375 C7.75302856 6.34136353 7.75302856 6.34136353 8.5690918 7.35913086 C9.1237915 8.06561768 9.67849121 8.77210449 10.25 9.5 C11.11008667 10.57616577 11.11008667 10.57616577 11.98754883 11.67407227 C13.66605718 13.7767541 15.33493276 15.8866652 17 18 C18.56082905 19.98050986 20.12312409 21.95978439 21.6875 23.9375 C22.28949219 24.70964844 22.89148438 25.48179687 23.51171875 26.27734375 C24.9042767 28.11232665 24.9042767 28.11232665 27 29 C28.88141079 31.90050829 30.50094109 34.88656995 32 38 C27.70874759 35.7620888 24.88927352 32.89045052 21.875 29.1875 C21.40562012 28.62216553 20.93624023 28.05683105 20.45263672 27.47436523 C15.60850241 21.60485963 10.92897106 15.60445854 6.26660156 9.59033203 C4.94339086 7.92892214 3.56600863 6.32377513 2.1796875 4.71484375 C0 2 0 2 0 0 Z " fill="#0F151A" transform="translate(608,380)"/>
<path d="M0 0 C0.33 0 0.66 0 1 0 C1.11583108 12.39927212 1.04979963 24.79248752 0.6875 37.1875 C0.66502197 38.30302246 0.64254395 39.41854492 0.61938477 40.56787109 C0.58385498 41.61152832 0.5483252 42.65518555 0.51171875 43.73046875 C0.48553467 44.65239014 0.45935059 45.57431152 0.43237305 46.52416992 C-0.06986897 49.40007975 -1.0926539 50.82937479 -3 53 C-4.21650295 50.56699411 -4.1332218 48.96319452 -4.125 46.25 C-4.12757813 45.40953125 -4.13015625 44.5690625 -4.1328125 43.703125 C-4 41 -4 41 -3.51953125 38.296875 C-2.82192298 33.86994731 -2.71988933 29.47412366 -2.5625 25 C-2.22091505 16.54595691 -1.44470197 8.34560848 0 0 Z " fill="#111C25" transform="translate(420,413)"/>
<path d="M0 0 C0.99 0.495 0.99 0.495 2 1 C2.33 1.99 2.66 2.98 3 4 C3.33 3.01 3.66 2.02 4 1 C4.49628906 1.90621094 4.99257813 2.81242187 5.50390625 3.74609375 C9.96706345 11.78795788 14.75917368 19.05393649 20.76171875 26.0546875 C21.17035156 26.69664062 21.57898438 27.33859375 22 28 C21.67 28.99 21.34 29.98 21 31 C20.52949219 30.45730469 20.05898438 29.91460937 19.57421875 29.35546875 C18.95160156 28.64003906 18.32898438 27.92460937 17.6875 27.1875 C16.76517578 26.12595703 16.76517578 26.12595703 15.82421875 25.04296875 C14.26665665 23.29863261 12.67341125 21.63221959 11 20 C10.34 20.33 9.68 20.66 9 21 C9.2475 20.443125 9.495 19.88625 9.75 19.3125 C10.28579828 16.78671737 10.28579828 16.78671737 8.125 14.4375 C7.42375 13.633125 6.7225 12.82875 6 12 C5.67 11.01 5.34 10.02 5 9 C4.34 10.32 3.68 11.64 3 13 C1.32889958 10.03821227 0.67317248 7.62928808 0.375 4.25 C0.30023438 3.45078125 0.22546875 2.6515625 0.1484375 1.828125 C0.09945313 1.22484375 0.05046875 0.6215625 0 0 Z " fill="#081119" transform="translate(489,415)"/>
<path d="M0 0 C4.93114886 1.19543003 7.18843116 4.2391864 10.30078125 7.97265625 C13.05374868 11.25723118 16.13758278 14.18549485 19.25 17.125 C22.81701453 20.94680128 22.12956209 25.47935207 22.09765625 30.38671875 C22.0962413 31.20372757 22.09482635 32.02073639 22.09336853 32.86250305 C22.08777294 35.47087268 22.07522129 38.07915634 22.0625 40.6875 C22.05748443 42.45637897 22.05292162 44.22525928 22.04882812 45.99414062 C22.03780496 50.32946019 22.02054338 54.66471552 22 59 C21.67 59 21.34 59 21 59 C21.01683838 57.96182129 21.03367676 56.92364258 21.05102539 55.85400391 C21.10211381 51.95823397 21.09315191 48.06441139 21.06713867 44.16845703 C21.06407879 42.49067492 21.07675645 40.81278041 21.10620117 39.13525391 C21.45213352 27.27087041 21.45213352 27.27087041 15.8125 17.2109375 C14.2421061 15.76960641 12.64009512 14.36149195 11 13 C9.89467808 11.90611402 8.79802486 10.8033144 7.71484375 9.6875 C5.840766 7.87404643 3.96574364 6.06156862 2.08984375 4.25 C0 2 0 2 0 0 Z " fill="#1F2728" transform="translate(619,641)"/>
<path d="M0 0 C0.66 0 1.32 0 2 0 C2 0.66 2 1.32 2 2 C2.66 2 3.32 2 4 2 C4.5775 2.7425 5.155 3.485 5.75 4.25 C9.20668806 8.47484096 11.68451078 10.75250115 17.2890625 11.3515625 C23.92591789 11.5052581 28.07271053 11.03941974 34 8 C34.99 8.33 35.98 8.66 37 9 C31.68563477 13.83124112 26.05938227 15.47822158 18.97265625 15.24609375 C12.58388354 14.44907854 7.26661001 10.65566259 3 6 C3 5.34 3 4.68 3 4 C2.34 4 1.68 4 1 4 C0.67 2.68 0.34 1.36 0 0 Z " fill="#121A1E" transform="translate(595,485)"/>
<path d="M0 0 C3 0 3 0 4.578125 1.50390625 C5.12984375 2.18324219 5.6815625 2.86257813 6.25 3.5625 C11.72541401 10.06884971 17.39614374 15.49935695 24.27734375 20.51953125 C24.84582031 21.00808594 25.41429687 21.49664062 26 22 C26 22.66 26 23.32 26 24 C26.639375 24.268125 27.27875 24.53625 27.9375 24.8125 C30 26 30 26 31 29 C26.89632432 27.29601673 23.75520398 24.44037743 20.4375 21.5625 C19.82487305 21.03333984 19.21224609 20.50417969 18.58105469 19.95898438 C2.44924185 5.87818043 2.44924185 5.87818043 0 0 Z " fill="#0D151B" transform="translate(515,467)"/>
<path d="M0 0 C2.15786658 3.50539734 2.24527663 6.30919366 2.23046875 10.3828125 C2.22853516 11.63320313 2.22660156 12.88359375 2.22460938 14.171875 C2.21236328 15.47640625 2.20011719 16.7809375 2.1875 18.125 C2.18685547 19.40632812 2.18621094 20.68765625 2.18554688 22.0078125 C2.11091058 38.19559461 2.11091058 38.19559461 1 43 C0.01 43.495 0.01 43.495 -1 44 C-1.22812436 29.32399971 -0.55524955 14.66242773 0 0 Z " fill="#0F1419" transform="translate(392,554)"/>
<path d="M0 0 C2.58801421 2.32736792 4.04811125 4.69211679 5.62890625 7.78125 C6.10650391 8.70550781 6.58410156 9.62976563 7.07617188 10.58203125 C7.56666016 11.54496094 8.05714844 12.50789063 8.5625 13.5 C9.5415247 15.40699205 10.52193482 17.31327364 11.50390625 19.21875 C11.93517822 20.06373047 12.3664502 20.90871094 12.81079102 21.77929688 C14.05079711 24.18041566 14.05079711 24.18041566 16 27 C15.67 27.99 15.34 28.98 15 30 C10.99235525 24.53502988 7.7317407 18.78884704 4.6875 12.75 C4.33816406 12.06486328 3.98882812 11.37972656 3.62890625 10.67382812 C1.87311756 7.13114426 0.53028689 3.96562368 0 0 Z " fill="#0B1217" transform="translate(493,429)"/>
<path d="M0 0 C0 3.59094253 -0.46576098 3.78524856 -2.875 6.25 C-7.06596625 10.80949702 -10.32222149 15.85323837 -13.62255859 21.07128906 C-14.70006182 22.7462744 -15.84458768 24.37777576 -17 26 C-17.66 26 -18.32 26 -19 26 C-15.72170849 17.15179572 -8.75501977 4.37750989 0 0 Z " fill="#12181E" transform="translate(417,322)"/>
<path d="M0 0 C3.78782039 3.63141129 7.02953637 7.43986212 10.1875 11.625 C10.62513672 12.19734375 11.06277344 12.7696875 11.51367188 13.359375 C17.27442629 20.92311362 17.27442629 20.92311362 17 26 C13.96857233 21.98312371 11.02332202 17.90562823 8.07421875 13.828125 C5.79260658 10.71722629 3.43490103 7.67359917 1.03125 4.65625 C0 3 0 3 0 0 Z " fill="#0F1518" transform="translate(640,418)"/>
<path d="M0 0 C0.66 0.33 1.32 0.66 2 1 C1.40832031 1.7734375 0.81664062 2.546875 0.20703125 3.34375 C-5.11031808 10.32402339 -5.11031808 10.32402339 -9.875 17.6875 C-12 21 -12 21 -15 22 C-13.49334615 17.58765658 -11.08696864 14.05416924 -8.375 10.3125 C-5.23908592 6.51386124 -5.23908592 6.51386124 -4 2 C-2.125 0.9375 -2.125 0.9375 0 0 Z " fill="#10171E" transform="translate(452,342)"/>
<path d="M0 0 C0.33 0 0.66 0 1 0 C1.20460792 3.85337428 1.32806124 7.70534211 1.4375 11.5625 C1.49615234 12.64853516 1.55480469 13.73457031 1.61523438 14.85351562 C1.78432287 22.80067509 1.78432287 22.80067509 -0.48388672 26.26904297 C-3.1164472 28.94038887 -5.88116059 30.92077373 -9 33 C-9.99 32.67 -10.98 32.34 -12 32 C-11.37351562 31.45730469 -10.74703125 30.91460937 -10.1015625 30.35546875 C-9.28429687 29.64003906 -8.46703125 28.92460937 -7.625 28.1875 C-6.40683594 27.12595703 -6.40683594 27.12595703 -5.1640625 26.04296875 C-1.74908243 22.81907962 -0.75258367 20.69605101 -0.5859375 16.11328125 C-0.54726563 15.17548828 -0.50859375 14.23769531 -0.46875 13.27148438 C-0.42234375 11.80678711 -0.42234375 11.80678711 -0.375 10.3125 C-0.31699219 8.83040039 -0.31699219 8.83040039 -0.2578125 7.31835938 C-0.16354133 4.87909293 -0.07793782 2.43983405 0 0 Z " fill="#1B2223" transform="translate(659,448)"/>
<path d="M0 0 C8.57925012 1.79521754 15.42933969 8.57381946 22 14 C21.67 14.66 21.34 15.32 21 16 C17.41587526 13.94919066 14.24902299 11.68521482 11.0625 9.0625 C8.23478783 6.76313465 5.43689505 4.54073148 2.375 2.5625 C1.59125 2.046875 0.8075 1.53125 0 1 C0 0.67 0 0.34 0 0 Z " fill="#0D1318" transform="translate(570,466)"/>
<path d="M0 0 C5.7889588 8.6834382 5.21050085 18.00972188 4 28 C3.67 28 3.34 28 3 28 C2.4932817 24.45926096 1.99582971 20.91727889 1.5 17.375 C1.35691406 16.37597656 1.21382813 15.37695312 1.06640625 14.34765625 C0.39647818 9.53055443 -0.19978289 4.87803213 0 0 Z " fill="#0B1117" transform="translate(412,524)"/>
<path d="M0 0 C0.99 0.66 1.98 1.32 3 2 C0.2100757 4.12898551 -2.63583234 6.12624441 -5.5625 8.0625 C-6.32691406 8.56910156 -7.09132813 9.07570313 -7.87890625 9.59765625 C-8.57886719 10.06042969 -9.27882813 10.52320313 -10 11 C-10.99 11.66 -11.98 12.32 -13 13 C-12.33333333 10.33333333 -11.66666667 7.66666667 -11 5 C-10.29875 4.9175 -9.5975 4.835 -8.875 4.75 C-5.34727053 3.82972275 -2.93888386 2.11873023 0 0 Z " fill="#0F1921" transform="translate(459,325)"/>
<path d="M0 0 C0.33 0.99 0.66 1.98 1 3 C-2.77523462 8.35839753 -8.08393517 14.04196758 -14 17 C-13.4194679 13.69881206 -12.45131901 12.08865924 -10.05859375 9.765625 C-9.18364258 8.90517578 -9.18364258 8.90517578 -8.29101562 8.02734375 C-7.67935547 7.44082031 -7.06769531 6.85429688 -6.4375 6.25 C-5.82197266 5.64800781 -5.20644531 5.04601562 -4.57226562 4.42578125 C-3.05485187 2.94365619 -1.52829404 1.4709033 0 0 Z " fill="#0E161B" transform="translate(375,640)"/>
<path d="M0 0 C0.66 0.33 1.32 0.66 2 1 C-1.02458627 4.27905867 -4.16875541 6.53769852 -8 8.8125 C-9.03125 9.43769531 -10.0625 10.06289063 -11.125 10.70703125 C-14 12 -14 12 -16.375 11.69921875 C-16.91125 11.46847656 -17.4475 11.23773438 -18 11 C-15.93771746 9.72881267 -13.87518109 8.45804035 -11.8125 7.1875 C-11.23435547 6.83107422 -10.65621094 6.47464844 -10.06054688 6.10742188 C-8.37503007 5.06944825 -6.68753975 4.03468147 -5 3 C-4.07574219 2.39800781 -3.15148437 1.79601562 -2.19921875 1.17578125 C-1.47347656 0.78777344 -0.74773437 0.39976562 0 0 Z " fill="#151D23" transform="translate(456,291)"/>
<path d="M0 0 C0.33 0 0.66 0 1 0 C1.33 2.31 1.66 4.62 2 7 C2.33 7 2.66 7 3 7 C2.67 13.6 2.34 20.2 2 27 C1.67 27 1.34 27 1 27 C0.92652344 26.06027344 0.92652344 26.06027344 0.8515625 25.1015625 C0.77679688 24.28429687 0.70203125 23.46703125 0.625 22.625 C0.55539062 21.81289063 0.48578125 21.00078125 0.4140625 20.1640625 C0.17107412 17.79665809 0.17107412 17.79665809 -2 16 C-1.67 15.67 -1.34 15.34 -1 15 C-0.76346477 12.47403741 -0.57826308 9.96892793 -0.4375 7.4375 C-0.39431641 6.72658203 -0.35113281 6.01566406 -0.30664062 5.28320312 C-0.20028223 3.52238088 -0.09961154 1.7612168 0 0 Z " fill="#182630" transform="translate(418,469)"/>
<path d="M0 0 C0.33 0 0.66 0 1 0 C1 2.97 1 5.94 1 9 C1.66 9.33 2.32 9.66 3 10 C3.59765625 12.36328125 3.59765625 12.36328125 4.0625 15.3125 C4.59148399 18.58695463 5.13977548 21.79509273 6 25 C3 24 3 24 2.05078125 22.20703125 C-0.24443762 14.76274995 -0.30139659 7.74700865 0 0 Z " fill="#172127" transform="translate(605,599)"/>
<path d="M0 0 C0.33 0 0.66 0 1 0 C1.33 6.27 1.66 12.54 2 19 C1.67 19 1.34 19 1 19 C0.67 23.62 0.34 28.24 0 33 C-0.33 33 -0.66 33 -1 33 C-1.20638953 10.40510967 -1.20638953 10.40510967 0 0 Z " fill="#222C2F" transform="translate(376,420)"/>
<path d="M0 0 C4.87550795 2.51162531 8.25266798 6.09282917 12 10 C12.804375 10.804375 13.60875 11.60875 14.4375 12.4375 C14.953125 12.953125 15.46875 13.46875 16 14 C12.32180832 14 11.77617345 13.23156682 9.125 10.8125 C8.42632813 10.17570312 7.72765625 9.53890625 7.0078125 8.8828125 C6.01394531 7.95082031 6.01394531 7.95082031 5 7 C4.46117187 6.50242187 3.92234375 6.00484375 3.3671875 5.4921875 C2.19734189 4.37582055 1.09112786 3.19342109 0 2 C0 1.34 0 0.68 0 0 Z " fill="#091117" transform="translate(560,375)"/>
<path d="M0 0 C3.59231271 3.4896752 7.01867949 6.96644873 10 11 C9.67 11.99 9.34 12.98 9 14 C8.52949219 13.45730469 8.05898438 12.91460937 7.57421875 12.35546875 C6.95160156 11.64003906 6.32898438 10.92460937 5.6875 10.1875 C5.07261719 9.47980469 4.45773437 8.77210938 3.82421875 8.04296875 C2.26665665 6.29863261 0.67341125 4.63221959 -1 3 C-1.99 3.495 -1.99 3.495 -3 4 C-2.67 3.01 -2.34 2.02 -2 1 C-1.34 0.67 -0.68 0.34 0 0 Z " fill="#0E161C" transform="translate(501,432)"/>
<path d="M0 0 C-6.7532954 3.4620342 -13.39214401 6.33844731 -21 7 C-17.74397004 4.2866417 -14.43846872 2.78564147 -10.5 1.25 C-9.3759375 0.80140625 -8.251875 0.3528125 -7.09375 -0.109375 C-4.08998328 -0.97409572 -2.84198054 -1.14236473 0 0 Z " fill="#0C161F" transform="translate(486,316)"/>
<path d="M0 0 C0.33 0 0.66 0 1 0 C1.04898437 1.07121094 1.09796875 2.14242188 1.1484375 3.24609375 C1.22345294 4.64325639 1.2990013 6.0403905 1.375 7.4375 C1.4059375 8.14455078 1.436875 8.85160156 1.46875 9.58007812 C1.57280629 11.39239188 1.77919892 13.19817988 2 15 C2.66 15.33 3.32 15.66 4 16 C4 18.64 4 21.28 4 24 C3.01 23.67 2.02 23.34 1 23 C1 21.02 1 19.04 1 17 C0.67 17 0.34 17 0 17 C0 11.39 0 5.78 0 0 Z " fill="#162229" transform="translate(407,484)"/>
<path d="M0 0 C0.33 0 0.66 0 1 0 C1 7.59 1 15.18 1 23 C0.01 23.33 -0.98 23.66 -2 24 C-2.33853295 15.83759432 -1.29901921 8.04927976 0 0 Z " fill="#192833" transform="translate(420,413)"/>
<path d="M0 0 C0.33 0 0.66 0 1 0 C0.41993763 7.75451806 -0.62440584 15.34742277 -2 23 C-2.33 23 -2.66 23 -3 23 C-2.89013032 19.72847382 -2.7595003 16.45809886 -2.625 13.1875 C-2.5940625 12.25873047 -2.563125 11.32996094 -2.53125 10.37304688 C-2.49257813 9.48037109 -2.45390625 8.58769531 -2.4140625 7.66796875 C-2.3826416 6.84578857 -2.3512207 6.0236084 -2.31884766 5.17651367 C-2 3 -2 3 0 0 Z " fill="#080C11" transform="translate(423,404)"/>
<path d="M0 0 C3.72652914 3.21252512 5.40095341 6.36276488 7 11 C7.1875 14.4375 7.1875 14.4375 7 17 C4.55213773 14.55213773 3.69919356 12.25682658 2.375 9.0625 C1.70597656 7.47115234 1.70597656 7.47115234 1.0234375 5.84765625 C0 3 0 3 0 0 Z " fill="#0C1217" transform="translate(592,545)"/>
<path d="M0 0 C5.77378925 0.4811491 9.95859836 2.18467181 15 5 C15 5.33 15 5.66 15 6 C10.28596212 5.52060632 6.33420699 5.03165952 2 3 C2 2.34 2 1.68 2 1 C1.34 0.67 0.68 0.34 0 0 Z " fill="#0C121A" transform="translate(561,373)"/>
<path d="M0 0 C1.31225809 3.93677426 0.3393954 5.7794262 -0.9375 9.6875 C-1.50791016 11.45673828 -1.50791016 11.45673828 -2.08984375 13.26171875 C-2.39019531 14.16535156 -2.69054687 15.06898438 -3 16 C-3.33 16 -3.66 16 -4 16 C-4.36266924 10.19729221 -3.30512167 6.34788227 -1 1 C-0.67 0.67 -0.34 0.34 0 0 Z " fill="#0D1319" transform="translate(428,386)"/>
<path d="M0 0 C0.33 0 0.66 0 1 0 C1.09688221 5.44693314 1.12862175 10.63904667 0 16 C-0.66 16 -1.32 16 -2 16 C-2.20674944 10.21101581 -1.59162079 5.57067277 0 0 Z " fill="#0C1319" transform="translate(408,404)"/>
<path d="M0 0 C0.33 0 0.66 0 1 0 C1.09796875 0.72445313 1.1959375 1.44890625 1.296875 2.1953125 C2.21692754 8.14392808 3.18992735 12.3009104 7 17 C3.82421916 16.77315851 2.91799118 15.91355827 0.6875 13.5625 C-1.5919197 8.75039175 -0.93176253 5.12469394 0 0 Z " fill="#162024" transform="translate(600,360)"/>
<path d="M0 0 C0.66 0.99 1.32 1.98 2 3 C1.67 3.66 1.34 4.32 1 5 C0.77532169 6.53668865 0.59203195 8.07968054 0.4375 9.625 C0.35371094 10.44226563 0.26992188 11.25953125 0.18359375 12.1015625 C0.12300781 12.72804688 0.06242187 13.35453125 0 14 C-1.32 14 -2.64 14 -4 14 C-3.52188823 12.22888156 -3.0424722 10.45811517 -2.5625 8.6875 C-2.29566406 7.70136719 -2.02882813 6.71523438 -1.75390625 5.69921875 C-1.21920575 3.78482474 -0.62855462 1.88566385 0 0 Z " fill="#131E26" transform="translate(387,611)"/>
<path d="M0 0 C0.99 0.33 1.98 0.66 3 1 C0.36 4.63 -2.28 8.26 -5 12 C-5.99 11.67 -6.98 11.34 -8 11 C-5.36 7.37 -2.72 3.74 0 0 Z " fill="#0E161C" transform="translate(436,345)"/>
<path d="M0 0 C1.1055189 0.93590504 2.20935453 1.87379858 3.3125 2.8125 C3.92738281 3.33457031 4.54226563 3.85664063 5.17578125 4.39453125 C6.85424679 5.87172469 8.43882034 7.40039131 10 9 C9.67 9.99 9.34 10.98 9 12 C7.49105554 10.57189185 5.99307655 9.13218981 4.5 7.6875 C3.6646875 6.88699219 2.829375 6.08648437 1.96875 5.26171875 C0 3 0 3 0 0 Z " fill="#11171C" transform="translate(576,323)"/>
<path d="M0 0 C5.1712635 1.96151374 6.72124929 6.26721006 9 11 C5.0295882 8.90450489 2.51933423 6.732347 0 3 C0 2.01 0 1.02 0 0 Z " fill="#141B1E" transform="translate(631,407)"/>
<path d="M0 0 C0.66 0.66 1.32 1.32 2 2 C1.9765625 4.3828125 1.9765625 4.3828125 1.625 7.125 C1.45871094 8.49011719 1.45871094 8.49011719 1.2890625 9.8828125 C1.14597656 10.93082031 1.14597656 10.93082031 1 12 C-3.26649636 12 -4.63316085 11.43160605 -8 9 C-8 8.34 -8 7.68 -8 7 C-5.33333333 8.33333333 -2.66666667 9.66666667 0 11 C0 7.37 0 3.74 0 0 Z " fill="#04090F" transform="translate(585,383)"/>
<path d="M0 0 C0.66 0.33 1.32 0.66 2 1 C-1.60778414 5.91970564 -4.24665785 7.96940865 -10 10 C-10 9.34 -10 8.68 -10 8 C-8.38542921 6.56418526 -6.70780925 5.19855217 -5 3.875 C-4.071875 3.15054687 -3.14375 2.42609375 -2.1875 1.6796875 C-1.465625 1.12539063 -0.74375 0.57109375 0 0 Z " fill="#151E22" transform="translate(436,303)"/>
<path d="M0 0 C0.33 0 0.66 0 1 0 C1 3.63 1 7.26 1 11 C1.66 11 2.32 11 3 11 C2.67 14.3 2.34 17.6 2 21 C1.34 20.67 0.68 20.34 0 20 C0 13.4 0 6.8 0 0 Z " fill="#1F2D35" transform="translate(376,458)"/>
<path d="M0 0 C4.43379675 2.21689838 6.46636932 4.77728219 9 9 C8.67 9.66 8.34 10.32 8 11 C5.07130346 8.17589976 2.41572077 5.27847819 0 2 C0 1.34 0 0.68 0 0 Z " fill="#11171C" transform="translate(587,336)"/>
<path d="M0 0 C3 3 3 3 3.29296875 6.35546875 C3.25816406 7.62003906 3.22335937 8.88460938 3.1875 10.1875 C3.16042969 11.45980469 3.13335938 12.73210937 3.10546875 14.04296875 C3.07066406 15.01878906 3.03585937 15.99460937 3 17 C2.67 17 2.34 17 2 17 C1.34 11.39 0.68 5.78 0 0 Z " fill="#070B11" transform="translate(597,352)"/>
<path d="M0 0 C0 3.58912412 -0.66436554 4.10857029 -3 6.6875 C-3.556875 7.31011719 -4.11375 7.93273437 -4.6875 8.57421875 C-5.120625 9.04472656 -5.55375 9.51523437 -6 10 C-6.33 8.68 -6.66 7.36 -7 6 C-4.69 4.02 -2.38 2.04 0 0 Z " fill="#0D1317" transform="translate(417,322)"/>
<path d="M0 0 C1.21236328 0.01353516 1.21236328 0.01353516 2.44921875 0.02734375 C3.37154297 0.04474609 3.37154297 0.04474609 4.3125 0.0625 C1.81744038 2.55755962 0.63921112 2.42198376 -2.8125 2.6875 C-3.72257812 2.76226562 -4.63265625 2.83703125 -5.5703125 2.9140625 C-6.61832031 2.98753906 -6.61832031 2.98753906 -7.6875 3.0625 C-7.6875 2.4025 -7.6875 1.7425 -7.6875 1.0625 C-4.80538698 0.10179566 -2.98899956 -0.04331883 0 0 Z " fill="#0D151C" transform="translate(490.6875,279.9375)"/>
<path d="M0 0 C1.81248985 3.6249797 2.31888915 5.37259584 2.625 9.25 C2.69976562 10.14203125 2.77453125 11.0340625 2.8515625 11.953125 C2.92503906 12.96632813 2.92503906 12.96632813 3 14 C2.67 13.01 2.34 12.02 2 11 C1.34 11 0.68 11 0 11 C0 7.37 0 3.74 0 0 Z " fill="#0B1012" transform="translate(381,496)"/>
<path d="M0 0 C1.60332791 -0.08121924 3.20784026 -0.13929134 4.8125 -0.1875 C6.15248047 -0.23970703 6.15248047 -0.23970703 7.51953125 -0.29296875 C10.41647515 0.04918998 11.22555028 0.75393573 13 3 C12.01 4.485 12.01 4.485 11 6 C11 5.01 11 4.02 11 3 C7.37 2.34 3.74 1.68 0 1 C0 0.67 0 0.34 0 0 Z " fill="#1A262B" transform="translate(558,464)"/>
<path d="M0 0 C0.99 0 1.98 0 3 0 C5.75 2.8125 5.75 2.8125 8 6 C7.67 6.99 7.34 7.98 7 9 C5.83037314 7.69013727 4.66437056 6.3770374 3.5 5.0625 C2.8503125 4.33160156 2.200625 3.60070312 1.53125 2.84765625 C0 1 0 1 0 0 Z " fill="#090E14" transform="translate(515,467)"/>
<path d="M0 0 C2.33661032 4.67322065 3.15730101 7.09864694 2.5625 12.1875 C2.46066406 13.08855469 2.35882813 13.98960937 2.25390625 14.91796875 C2.17011719 15.60503906 2.08632813 16.29210937 2 17 C1.67 17 1.34 17 1 17 C0.67 11.39 0.34 5.78 0 0 Z " fill="#263032" transform="translate(390,547)"/>
<path d="M0 0 C0.53625 0.2475 1.0725 0.495 1.625 0.75 C-3.79038462 4.81153846 -3.79038462 4.81153846 -6.75 4.5 C-7.28625 4.2525 -7.8225 4.005 -8.375 3.75 C-2.95961538 -0.31153846 -2.95961538 -0.31153846 0 0 Z " fill="#11161B" transform="translate(446.375,298.25)"/>
<path d="M0 0 C1.875 0.3125 1.875 0.3125 4 1 C4.66 1.99 5.32 2.98 6 4 C5.67 4.99 5.34 5.98 5 7 C3.29115995 5.37660195 1.62553283 3.70680947 0 2 C0 1.34 0 0.68 0 0 Z " fill="#131F27" transform="translate(505,439)"/>
<path d="M0 0 C2.64752004 2.57784846 4.94432065 4.91648098 7 8 C4.24542282 7.62005832 3.17979426 7.1926367 1.25 5.125 C0 3 0 3 0 0 Z " fill="#151B1E" transform="translate(640,418)"/>
<path d="M0 0 C0.33 0 0.66 0 1 0 C0.51855059 4.81449408 0.1991413 7.60171741 -2 12 C-2 9.03 -2 6.06 -2 3 C-1.34 3 -0.68 3 0 3 C0 2.01 0 1.02 0 0 Z " fill="#0B0D11" transform="translate(383,386)"/>
<path d="M0 0 C3.67420866 0.30618405 4.78135513 0.75771784 7.3125 3.5625 C8.1478125 4.7690625 8.1478125 4.7690625 9 6 C4.75177626 5.52797514 2.80010291 3.03344482 0 0 Z " fill="#11191D" transform="translate(563,314)"/>
<path d="M0 0 C0.62109375 1.796875 0.62109375 1.796875 1 4 C-0.9375 7.25 -0.9375 7.25 -3 10 C-3.33 9.34 -3.66 8.68 -4 8 C-3.22265625 6.0546875 -3.22265625 6.0546875 -2.0625 3.875 C-1.49208984 2.78832031 -1.49208984 2.78832031 -0.91015625 1.6796875 C-0.60980469 1.12539063 -0.30945313 0.57109375 0 0 Z " fill="#0E1215" transform="translate(572,285)"/>
<path d="M0 0 C2.3125 0.1875 2.3125 0.1875 5 1 C6.8125 3.5625 6.8125 3.5625 8 6 C4.63408134 4.55746343 2.48952921 2.66735273 0 0 Z " fill="#121C24" transform="translate(512,447)"/>
<path d="M0 0 C0.33 0 0.66 0 1 0 C1 2.31 1 4.62 1 7 C0.34 7 -0.32 7 -1 7 C-1.33 7.99 -1.66 8.98 -2 10 C-1.125 2.25 -1.125 2.25 0 0 Z " fill="#0A0F14" transform="translate(411,393)"/>
<path d="M0 0 C0.33 0.66 0.66 1.32 1 2 C-5.625 5.125 -5.625 5.125 -9 4 C-6.03 2.68 -3.06 1.36 0 0 Z " fill="#040B11" transform="translate(474,318)"/>
<path d="M0 0 C1.98 0 3.96 0 6 0 C6 0.33 6 0.66 6 1 C4.02 1 2.04 1 0 1 C0 0.67 0 0.34 0 0 Z " fill="#2D3B3E" transform="translate(616,702)"/>
<path d="M0 0 C0.33 0 0.66 0 1 0 C1 1.98 1 3.96 1 6 C0.67 6 0.34 6 0 6 C0 4.02 0 2.04 0 0 Z " fill="#1B303D" transform="translate(416,466)"/>
<path d="M0 0 C1.65 0 3.3 0 5 0 C5 0.33 5 0.66 5 1 C3.35 1 1.7 1 0 1 C0 0.67 0 0.34 0 0 Z " fill="#283A3D" transform="translate(577,702)"/>
<path d="M0 0 C0.33 0 0.66 0 1 0 C1 1.65 1 3.3 1 5 C0.67 5 0.34 5 0 5 C0 3.35 0 1.7 0 0 Z " fill="#1E313C" transform="translate(416,474)"/>
<path d="M0 0 C0.99 0.33 1.98 0.66 3 1 C2.01 1 1.02 1 0 1 C0 0.67 0 0.34 0 0 Z " fill="#27373F" transform="translate(527,702)"/>
<path d="M0 0 C4 1 4 1 4 1 Z " fill="#2C3C40" transform="translate(391,702)"/>
<path d="M0 0 C1 4 1 4 1 4 Z " fill="#1C303B" transform="translate(419,551)"/>
<path d="M0 0 C1 4 1 4 1 4 Z " fill="#1F323D" transform="translate(417,490)"/>
<path d="M0 0 C3 1 3 1 3 1 Z " fill="#28383F" transform="translate(463,702)"/>
<path d="M0 0 C0.66 0 1.32 0 2 0 C1.67 0.66 1.34 1.32 1 2 C0.67 1.34 0.34 0.68 0 0 Z " fill="#293A40" transform="translate(431,702)"/>
<path d="M0 0 C3 1 3 1 3 1 Z " fill="#283A3F" transform="translate(426,702)"/>
<path d="M0 0 C0.66 0 1.32 0 2 0 C1.67 0.66 1.34 1.32 1 2 C0.67 1.34 0.34 0.68 0 0 Z " fill="#2A3A3F" transform="translate(403,702)"/>
<path d="" fill="#2E3C3D" transform="translate(0,0)"/>
<path d="M0 0 C0.99 0.495 0.99 0.495 2 1 C1.01 1.495 1.01 1.495 0 2 C0 1.34 0 0.68 0 0 Z " fill="#28383D" transform="translate(369,643)"/>
<path d="" fill="#273941" transform="translate(0,0)"/>
<path d="" fill="#1A2D3E" transform="translate(0,0)"/>
<path d="" fill="#1D303D" transform="translate(0,0)"/>
<path d="M0 0 C0.33 0.66 0.66 1.32 1 2 C0.34 1.67 -0.32 1.34 -1 1 C-0.67 0.67 -0.34 0.34 0 0 Z " fill="#2C3C40" transform="translate(377,399)"/>
<path d="" fill="#1C303D" transform="translate(0,0)"/>
<path d="M0 0 C0.99 0.495 0.99 0.495 2 1 C1.01 1.495 1.01 1.495 0 2 C0 1.34 0 0.68 0 0 Z " fill="#1F323D" transform="translate(423,376)"/>
<path d="M0 0 C0.66 0.66 1.32 1.32 2 2 C1.34 2 0.68 2 0 2 C0 1.34 0 0.68 0 0 Z " fill="#2E3D3E" transform="translate(471,282)"/>
<path d="" fill="#27383E" transform="translate(0,0)"/>
<path d="" fill="#28383F" transform="translate(0,0)"/>
<path d="" fill="#3B4842" transform="translate(0,0)"/>
<path d="M0 0 C2 1 2 1 2 1 Z " fill="#313F3F" transform="translate(629,702)"/>
<path d="M0 0 C2 1 2 1 2 1 Z " fill="#2D3B3F" transform="translate(610,702)"/>
<path d="M0 0 C2 1 2 1 2 1 Z " fill="#2A3B40" transform="translate(587,702)"/>
<path d="M0 0 C2 1 2 1 2 1 Z " fill="#28383C" transform="translate(566,702)"/>
<path d="M0 0 C2 1 2 1 2 1 Z " fill="#29383B" transform="translate(563,702)"/>
<path d="M0 0 C2 1 2 1 2 1 Z " fill="#29393F" transform="translate(550,702)"/>
<path d="M0 0 C2 1 2 1 2 1 Z " fill="#27373D" transform="translate(532,702)"/>
<path d="M0 0 C2 1 2 1 2 1 Z " fill="#26373E" transform="translate(521,702)"/>
<path d="M0 0 C2 1 2 1 2 1 Z " fill="#27393E" transform="translate(503,702)"/>
<path d="M0 0 C2 1 2 1 2 1 Z " fill="#283940" transform="translate(496,702)"/>
<path d="M0 0 C2 1 2 1 2 1 Z " fill="#273841" transform="translate(460,702)"/>
<path d="M0 0 C2 1 2 1 2 1 Z " fill="#293B40" transform="translate(438,702)"/>
<path d="M0 0 C2 1 2 1 2 1 Z " fill="#293B3F" transform="translate(419,702)"/>
<path d="M0 0 C2 1 2 1 2 1 Z " fill="#2B3B40" transform="translate(411,702)"/>
<path d="M0 0 C2 1 2 1 2 1 Z " fill="#303F42" transform="translate(378,702)"/>
<path d="M0 0 C2 1 2 1 2 1 Z " fill="#2F4142" transform="translate(375,702)"/>
<path d="M0 0 C2 1 2 1 2 1 Z " fill="#364340" transform="translate(359,702)"/>
<path d="" fill="#2B3C3E" transform="translate(0,0)"/>
<path d="M0 0 C2 1 2 1 2 1 Z " fill="#273438" transform="translate(638,656)"/>
<path d="M0 0 C2 1 2 1 2 1 Z " fill="#1E3141" transform="translate(553,628)"/>
<path d="M0 0 C2 1 2 1 2 1 Z " fill="#1C313D" transform="translate(466,628)"/>
<path d="" fill="#26373E" transform="translate(0,0)"/>
<path d="" fill="#1E323E" transform="translate(0,0)"/>
<path d="" fill="#22343A" transform="translate(0,0)"/>
<path d="M0 0 C2 1 2 1 2 1 Z " fill="#27363A" transform="translate(610,500)"/>
<path d="M0 0 C2 1 2 1 2 1 Z " fill="#2B3C3B" transform="translate(632,495)"/>
<path d="" fill="#20313A" transform="translate(0,0)"/>
<path d="" fill="#192E39" transform="translate(0,0)"/>
<path d="" fill="#1B2E3A" transform="translate(0,0)"/>
<path d="" fill="#192C3A" transform="translate(0,0)"/>
<path d="" fill="#1C2F3A" transform="translate(0,0)"/>
<path d="" fill="#1B2F3B" transform="translate(0,0)"/>
<path d="" fill="#1E2E39" transform="translate(0,0)"/>
<path d="M0 0 C2 1 2 1 2 1 Z " fill="#1E303C" transform="translate(415,433)"/>
<path d="M0 0 C2 1 2 1 2 1 Z " fill="#1D313C" transform="translate(496,431)"/>
<path d="" fill="#20343F" transform="translate(0,0)"/>
<path d="" fill="#192D3D" transform="translate(0,0)"/>
<path d="M0 0 C2 1 2 1 2 1 Z " fill="#313F41" transform="translate(396,344)"/>
<path d="" fill="#344040" transform="translate(0,0)"/>
<path d="M0 0 C2 1 2 1 2 1 Z " fill="#2A3941" transform="translate(432,304)"/>
<path d="M0 0 C2 1 2 1 2 1 Z " fill="#29393E" transform="translate(459,288)"/>
<path d="M0 0 C2 1 2 1 2 1 Z " fill="#2E3D3D" transform="translate(468,284)"/>
<path d="M0 0 C2 1 2 1 2 1 Z " fill="#333F3E" transform="translate(465,280)"/>
<path d="M0 0 C2 1 2 1 2 1 Z " fill="#303E40" transform="translate(554,275)"/>
<path d="M0 0 C2 1 2 1 2 1 Z " fill="#2C3C41" transform="translate(512,274)"/>
<path d="" fill="#68581B" transform="translate(0,0)"/>
<path d="" fill="#766420" transform="translate(0,0)"/>
<path d="" fill="#766720" transform="translate(0,0)"/>
<path d="" fill="#72621F" transform="translate(0,0)"/>
<path d="" fill="#5E4E16" transform="translate(0,0)"/>
<path d="" fill="#786822" transform="translate(0,0)"/>
<path d="" fill="#695919" transform="translate(0,0)"/>
<path d="" fill="#7A6922" transform="translate(0,0)"/>
<path d="" fill="#625617" transform="translate(0,0)"/>
<path d="" fill="#786621" transform="translate(0,0)"/>
<path d="" fill="#68581A" transform="translate(0,0)"/>
<path d="" fill="#786720" transform="translate(0,0)"/>
<path d="" fill="#605117" transform="translate(0,0)"/>
<path d="" fill="#796722" transform="translate(0,0)"/>
<path d="" fill="#7B6B21" transform="translate(0,0)"/>
<path d="" fill="#776923" transform="translate(0,0)"/>
<path d="" fill="#75651F" transform="translate(0,0)"/>
<path d="" fill="#7B6C23" transform="translate(0,0)"/>
<path d="" fill="#7E6D26" transform="translate(0,0)"/>
<path d="" fill="#7D6D25" transform="translate(0,0)"/>
<path d="" fill="#6D5C1C" transform="translate(0,0)"/>
<path d="" fill="#73621D" transform="translate(0,0)"/>
<path d="" fill="#705F1D" transform="translate(0,0)"/>
<path d="" fill="#78671E" transform="translate(0,0)"/>
<path d="" fill="#7F7028" transform="translate(0,0)"/>
<path d="" fill="#6E5C1C" transform="translate(0,0)"/>
<path d="" fill="#7F7027" transform="translate(0,0)"/>
<path d="" fill="#6A5A19" transform="translate(0,0)"/>
<path d="" fill="#807028" transform="translate(0,0)"/>
<path d="" fill="#806D27" transform="translate(0,0)"/>
<path d="" fill="#807127" transform="translate(0,0)"/>
<path d="" fill="#7F7027" transform="translate(0,0)"/>
<path d="" fill="#82712B" transform="translate(0,0)"/>
<path d="" fill="#7B6C23" transform="translate(0,0)"/>
<path d="" fill="#80722D" transform="translate(0,0)"/>
<path d="" fill="#715F1F" transform="translate(0,0)"/>
<path d="" fill="#7F7231" transform="translate(0,0)"/>
<path d="" fill="#786E32" transform="translate(0,0)"/>
<path d="" fill="#807025" transform="translate(0,0)"/>
<path d="" fill="#73611F" transform="translate(0,0)"/>
<path d="" fill="#7A6921" transform="translate(0,0)"/>
<path d="" fill="#635F34" transform="translate(0,0)"/>
<path d="" fill="#817333" transform="translate(0,0)"/>
<path d="" fill="#7C6D24" transform="translate(0,0)"/>
<path d="" fill="#837327" transform="translate(0,0)"/>
<path d="" fill="#60623B" transform="translate(0,0)"/>
<path d="" fill="#776423" transform="translate(0,0)"/>
<path d="" fill="#877329" transform="translate(0,0)"/>
<path d="" fill="#384237" transform="translate(0,0)"/>
<path d="" fill="#7C6A25" transform="translate(0,0)"/>
<path d="" fill="#2E3C40" transform="translate(0,0)"/>
<path d="" fill="#2E3C40" transform="translate(0,0)"/>
<path d="" fill="#2C3C3E" transform="translate(0,0)"/>
<path d="" fill="#2A393E" transform="translate(0,0)"/>
<path d="" fill="#26373C" transform="translate(0,0)"/>
<path d="" fill="#25383D" transform="translate(0,0)"/>
<path d="" fill="#283B3F" transform="translate(0,0)"/>
<path d="" fill="#2E3B41" transform="translate(0,0)"/>
<path d="" fill="#33403D" transform="translate(0,0)"/>
<path d="" fill="#33433C" transform="translate(0,0)"/>
<path d="" fill="#324040" transform="translate(0,0)"/>
<path d="" fill="#313D3F" transform="translate(0,0)"/>
<path d="" fill="#2D3D40" transform="translate(0,0)"/>
<path d="" fill="#293C3C" transform="translate(0,0)"/>
<path d="" fill="#2A3B40" transform="translate(0,0)"/>
<path d="" fill="#283C3F" transform="translate(0,0)"/>
<path d="" fill="#2B3B3F" transform="translate(0,0)"/>
<path d="" fill="#28383F" transform="translate(0,0)"/>
<path d="" fill="#263A3F" transform="translate(0,0)"/>
<path d="" fill="#27383E" transform="translate(0,0)"/>
<path d="" fill="#283A3F" transform="translate(0,0)"/>
<path d="" fill="#26373D" transform="translate(0,0)"/>
<path d="" fill="#28363E" transform="translate(0,0)"/>
<path d="" fill="#283A41" transform="translate(0,0)"/>
<path d="" fill="#2B3B41" transform="translate(0,0)"/>
<path d="" fill="#2A3A40" transform="translate(0,0)"/>
<path d="" fill="#2B3D3F" transform="translate(0,0)"/>
<path d="" fill="#2D3C41" transform="translate(0,0)"/>
<path d="" fill="#2C3D40" transform="translate(0,0)"/>
<path d="" fill="#2A3E42" transform="translate(0,0)"/>
<path d="" fill="#303D41" transform="translate(0,0)"/>
<path d="" fill="#2F3E40" transform="translate(0,0)"/>
<path d="" fill="#314044" transform="translate(0,0)"/>
<path d="" fill="#38413C" transform="translate(0,0)"/>
<path d="" fill="#7F6F25" transform="translate(0,0)"/>
<path d="" fill="#364139" transform="translate(0,0)"/>
<path d="" fill="#2F3C3C" transform="translate(0,0)"/>
<path d="" fill="#7A6724" transform="translate(0,0)"/>
<path d="" fill="#2D3C3D" transform="translate(0,0)"/>
<path d="" fill="#786723" transform="translate(0,0)"/>
<path d="" fill="#2B3D3E" transform="translate(0,0)"/>
<path d="" fill="#2E3E40" transform="translate(0,0)"/>
<path d="" fill="#2A3A3E" transform="translate(0,0)"/>
<path d="" fill="#2A383B" transform="translate(0,0)"/>
<path d="" fill="#84752A" transform="translate(0,0)"/>
<path d="" fill="#2B3B3D" transform="translate(0,0)"/>
<path d="" fill="#87772C" transform="translate(0,0)"/>
<path d="" fill="#293A3C" transform="translate(0,0)"/>
<path d="" fill="#28393E" transform="translate(0,0)"/>
<path d="" fill="#25393F" transform="translate(0,0)"/>
<path d="" fill="#24363C" transform="translate(0,0)"/>
<path d="" fill="#283A42" transform="translate(0,0)"/>
<path d="" fill="#203238" transform="translate(0,0)"/>
<path d="" fill="#837326" transform="translate(0,0)"/>
<path d="" fill="#273A3E" transform="translate(0,0)"/>
<path d="" fill="#88772D" transform="translate(0,0)"/>
<path d="" fill="#7D7136" transform="translate(0,0)"/>
<path d="" fill="#27373D" transform="translate(0,0)"/>
<path d="" fill="#1D303C" transform="translate(0,0)"/>
<path d="" fill="#1F313E" transform="translate(0,0)"/>
<path d="" fill="#1B313C" transform="translate(0,0)"/>
<path d="" fill="#1B313E" transform="translate(0,0)"/>
<path d="" fill="#1C303E" transform="translate(0,0)"/>
<path d="" fill="#203643" transform="translate(0,0)"/>
<path d="" fill="#213343" transform="translate(0,0)"/>
<path d="" fill="#213441" transform="translate(0,0)"/>
<path d="" fill="#1F3441" transform="translate(0,0)"/>
<path d="" fill="#1E323F" transform="translate(0,0)"/>
<path d="" fill="#1D3242" transform="translate(0,0)"/>
<path d="" fill="#213640" transform="translate(0,0)"/>
<path d="" fill="#203342" transform="translate(0,0)"/>
<path d="" fill="#1D3241" transform="translate(0,0)"/>
<path d="" fill="#1D3043" transform="translate(0,0)"/>
<path d="" fill="#203342" transform="translate(0,0)"/>
<path d="" fill="#1A303E" transform="translate(0,0)"/>
<path d="" fill="#1C2F3D" transform="translate(0,0)"/>
<path d="" fill="#1E313F" transform="translate(0,0)"/>
<path d="" fill="#2D3C3E" transform="translate(0,0)"/>
<path d="" fill="#2C3A3A" transform="translate(0,0)"/>
<path d="" fill="#816F24" transform="translate(0,0)"/>
<path d="" fill="#28353A" transform="translate(0,0)"/>
<path d="" fill="#28383A" transform="translate(0,0)"/>
<path d="" fill="#7B6A25" transform="translate(0,0)"/>
<path d="" fill="#273A3F" transform="translate(0,0)"/>
<path d="" fill="#283A3F" transform="translate(0,0)"/>
<path d="" fill="#474E40" transform="translate(0,0)"/>
<path d="" fill="#27373E" transform="translate(0,0)"/>
<path d="" fill="#25363C" transform="translate(0,0)"/>
<path d="" fill="#293A3D" transform="translate(0,0)"/>
<path d="" fill="#847224" transform="translate(0,0)"/>
<path d="" fill="#6A663A" transform="translate(0,0)"/>
<path d="" fill="#28393F" transform="translate(0,0)"/>
<path d="" fill="#2C3A3C" transform="translate(0,0)"/>
<path d="" fill="#7B6A25" transform="translate(0,0)"/>
<path d="" fill="#25373C" transform="translate(0,0)"/>
<path d="" fill="#25333D" transform="translate(0,0)"/>
<path d="" fill="#26373C" transform="translate(0,0)"/>
<path d="" fill="#7F6E24" transform="translate(0,0)"/>
<path d="" fill="#867528" transform="translate(0,0)"/>
<path d="" fill="#223741" transform="translate(0,0)"/>
<path d="" fill="#283A41" transform="translate(0,0)"/>
<path d="" fill="#796824" transform="translate(0,0)"/>
<path d="" fill="#20323A" transform="translate(0,0)"/>
<path d="" fill="#26393E" transform="translate(0,0)"/>
<path d="" fill="#2A3941" transform="translate(0,0)"/>
<path d="" fill="#27373D" transform="translate(0,0)"/>
<path d="" fill="#27383F" transform="translate(0,0)"/>
<path d="" fill="#26343C" transform="translate(0,0)"/>
<path d="" fill="#565A3B" transform="translate(0,0)"/>
<path d="" fill="#28353C" transform="translate(0,0)"/>
<path d="" fill="#847328" transform="translate(0,0)"/>
<path d="" fill="#1E303C" transform="translate(0,0)"/>
<path d="" fill="#26353C" transform="translate(0,0)"/>
<path d="" fill="#796926" transform="translate(0,0)"/>
<path d="" fill="#20343D" transform="translate(0,0)"/>
<path d="" fill="#2A3A3E" transform="translate(0,0)"/>
<path d="" fill="#29383E" transform="translate(0,0)"/>
<path d="" fill="#243640" transform="translate(0,0)"/>
<path d="" fill="#1F323E" transform="translate(0,0)"/>
<path d="" fill="#25363D" transform="translate(0,0)"/>
<path d="" fill="#2F4041" transform="translate(0,0)"/>
<path d="" fill="#1C303C" transform="translate(0,0)"/>
<path d="" fill="#27363B" transform="translate(0,0)"/>
<path d="" fill="#2B393E" transform="translate(0,0)"/>
<path d="" fill="#28373C" transform="translate(0,0)"/>
<path d="" fill="#283A3F" transform="translate(0,0)"/>
<path d="" fill="#2F3C3B" transform="translate(0,0)"/>
<path d="" fill="#263840" transform="translate(0,0)"/>
<path d="" fill="#2B3941" transform="translate(0,0)"/>
<path d="" fill="#1C303D" transform="translate(0,0)"/>
<path d="" fill="#20313A" transform="translate(0,0)"/>
<path d="" fill="#26353B" transform="translate(0,0)"/>
<path d="" fill="#2A3D41" transform="translate(0,0)"/>
<path d="" fill="#2E3B38" transform="translate(0,0)"/>
<path d="" fill="#1E353C" transform="translate(0,0)"/>
<path d="" fill="#1F3239" transform="translate(0,0)"/>
<path d="" fill="#20343C" transform="translate(0,0)"/>
<path d="" fill="#1B2E3D" transform="translate(0,0)"/>
<path d="" fill="#2F3B3F" transform="translate(0,0)"/>
<path d="" fill="#21313A" transform="translate(0,0)"/>
<path d="" fill="#283A3E" transform="translate(0,0)"/>
<path d="" fill="#1A313D" transform="translate(0,0)"/>
<path d="" fill="#192E3B" transform="translate(0,0)"/>
<path d="" fill="#24313B" transform="translate(0,0)"/>
<path d="" fill="#27393E" transform="translate(0,0)"/>
<path d="" fill="#36423D" transform="translate(0,0)"/>
<path d="" fill="#1D343E" transform="translate(0,0)"/>
<path d="" fill="#344241" transform="translate(0,0)"/>
<path d="" fill="#21313A" transform="translate(0,0)"/>
<path d="" fill="#21343D" transform="translate(0,0)"/>
<path d="" fill="#343F3C" transform="translate(0,0)"/>
<path d="" fill="#1C3039" transform="translate(0,0)"/>
<path d="" fill="#86782E" transform="translate(0,0)"/>
<path d="" fill="#1E2F39" transform="translate(0,0)"/>
<path d="" fill="#21333B" transform="translate(0,0)"/>
<path d="" fill="#21333C" transform="translate(0,0)"/>
<path d="" fill="#303C3A" transform="translate(0,0)"/>
<path d="" fill="#22343B" transform="translate(0,0)"/>
<path d="" fill="#26353D" transform="translate(0,0)"/>
<path d="" fill="#1E313D" transform="translate(0,0)"/>
<path d="" fill="#1B2D3C" transform="translate(0,0)"/>
<path d="" fill="#867935" transform="translate(0,0)"/>
<path d="" fill="#1C303C" transform="translate(0,0)"/>
<path d="" fill="#20323B" transform="translate(0,0)"/>
<path d="" fill="#1F333A" transform="translate(0,0)"/>
<path d="" fill="#1B2B35" transform="translate(0,0)"/>
<path d="" fill="#333E40" transform="translate(0,0)"/>
<path d="" fill="#1D2F3B" transform="translate(0,0)"/>
<path d="" fill="#333D3B" transform="translate(0,0)"/>
<path d="" fill="#1E313B" transform="translate(0,0)"/>
<path d="" fill="#1C2E3A" transform="translate(0,0)"/>
<path d="" fill="#1F303E" transform="translate(0,0)"/>
<path d="" fill="#1A2F3E" transform="translate(0,0)"/>
<path d="" fill="#1C2C38" transform="translate(0,0)"/>
<path d="" fill="#1C2E38" transform="translate(0,0)"/>
<path d="" fill="#797038" transform="translate(0,0)"/>
<path d="" fill="#1A2F3A" transform="translate(0,0)"/>
<path d="" fill="#1E2F3B" transform="translate(0,0)"/>
<path d="" fill="#1E2C37" transform="translate(0,0)"/>
<path d="" fill="#203138" transform="translate(0,0)"/>
<path d="" fill="#1D303C" transform="translate(0,0)"/>
<path d="" fill="#2D3D3D" transform="translate(0,0)"/>
<path d="" fill="#1D2B34" transform="translate(0,0)"/>
<path d="" fill="#1D3440" transform="translate(0,0)"/>
<path d="" fill="#1C313E" transform="translate(0,0)"/>
<path d="" fill="#87772E" transform="translate(0,0)"/>
<path d="" fill="#1F313E" transform="translate(0,0)"/>
<path d="" fill="#2F3C3E" transform="translate(0,0)"/>
<path d="" fill="#20323E" transform="translate(0,0)"/>
<path d="" fill="#827025" transform="translate(0,0)"/>
<path d="" fill="#2F3B3E" transform="translate(0,0)"/>
<path d="" fill="#2C3A3B" transform="translate(0,0)"/>
<path d="" fill="#2C3C3B" transform="translate(0,0)"/>
<path d="" fill="#20323D" transform="translate(0,0)"/>
<path d="" fill="#203341" transform="translate(0,0)"/>
<path d="" fill="#1F313C" transform="translate(0,0)"/>
<path d="" fill="#28393E" transform="translate(0,0)"/>
<path d="" fill="#7E6E26" transform="translate(0,0)"/>
<path d="" fill="#2A3B40" transform="translate(0,0)"/>
<path d="" fill="#2B3C41" transform="translate(0,0)"/>
<path d="" fill="#1F313B" transform="translate(0,0)"/>
<path d="" fill="#1B2E3B" transform="translate(0,0)"/>
<path d="" fill="#304041" transform="translate(0,0)"/>
<path d="" fill="#20313C" transform="translate(0,0)"/>
<path d="" fill="#263639" transform="translate(0,0)"/>
<path d="" fill="#7F6D25" transform="translate(0,0)"/>
<path d="" fill="#20343C" transform="translate(0,0)"/>
<path d="" fill="#1E343C" transform="translate(0,0)"/>
<path d="" fill="#233541" transform="translate(0,0)"/>
<path d="" fill="#22323E" transform="translate(0,0)"/>
<path d="" fill="#1F303F" transform="translate(0,0)"/>
<path d="" fill="#7F7338" transform="translate(0,0)"/>
<path d="" fill="#2C3840" transform="translate(0,0)"/>
<path d="" fill="#243438" transform="translate(0,0)"/>
<path d="" fill="#1B303C" transform="translate(0,0)"/>
<path d="" fill="#24333D" transform="translate(0,0)"/>
<path d="" fill="#22343F" transform="translate(0,0)"/>
<path d="" fill="#263637" transform="translate(0,0)"/>
<path d="" fill="#1F313F" transform="translate(0,0)"/>
<path d="" fill="#2F3D40" transform="translate(0,0)"/>
<path d="" fill="#1E2F3A" transform="translate(0,0)"/>
<path d="" fill="#1C313C" transform="translate(0,0)"/>
<path d="" fill="#2B3A3B" transform="translate(0,0)"/>
<path d="" fill="#1F313E" transform="translate(0,0)"/>
<path d="" fill="#303D42" transform="translate(0,0)"/>
<path d="" fill="#2B3840" transform="translate(0,0)"/>
<path d="" fill="#1E323F" transform="translate(0,0)"/>
<path d="" fill="#6B663C" transform="translate(0,0)"/>
<path d="" fill="#314043" transform="translate(0,0)"/>
<path d="" fill="#182C3B" transform="translate(0,0)"/>
<path d="" fill="#2B383D" transform="translate(0,0)"/>
<path d="" fill="#1E313E" transform="translate(0,0)"/>
<path d="" fill="#20333F" transform="translate(0,0)"/>
<path d="" fill="#817224" transform="translate(0,0)"/>
<path d="" fill="#313F44" transform="translate(0,0)"/>
<path d="" fill="#21313C" transform="translate(0,0)"/>
<path d="" fill="#20313D" transform="translate(0,0)"/>
<path d="" fill="#1E323F" transform="translate(0,0)"/>
<path d="" fill="#7A6925" transform="translate(0,0)"/>
<path d="" fill="#1E333D" transform="translate(0,0)"/>
<path d="" fill="#223138" transform="translate(0,0)"/>
<path d="" fill="#20303A" transform="translate(0,0)"/>
<path d="" fill="#24353D" transform="translate(0,0)"/>
<path d="" fill="#20343A" transform="translate(0,0)"/>
<path d="" fill="#1F3039" transform="translate(0,0)"/>
<path d="" fill="#28383D" transform="translate(0,0)"/>
<path d="" fill="#786725" transform="translate(0,0)"/>
<path d="" fill="#303D3F" transform="translate(0,0)"/>
<path d="" fill="#847127" transform="translate(0,0)"/>
<path d="" fill="#87762B" transform="translate(0,0)"/>
<path d="" fill="#303D3F" transform="translate(0,0)"/>
<path d="" fill="#313F42" transform="translate(0,0)"/>
<path d="" fill="#847428" transform="translate(0,0)"/>
<path d="" fill="#304041" transform="translate(0,0)"/>
<path d="" fill="#304043" transform="translate(0,0)"/>
<path d="" fill="#2E3C3E" transform="translate(0,0)"/>
<path d="" fill="#2E3D3F" transform="translate(0,0)"/>
<path d="" fill="#2D3F42" transform="translate(0,0)"/>
<path d="" fill="#2F403F" transform="translate(0,0)"/>
<path d="" fill="#2D3E3F" transform="translate(0,0)"/>
<path d="" fill="#2F3D41" transform="translate(0,0)"/>
<path d="" fill="#786725" transform="translate(0,0)"/>
<path d="" fill="#323D3E" transform="translate(0,0)"/>
<path d="" fill="#2F3D43" transform="translate(0,0)"/>
<path d="" fill="#333F40" transform="translate(0,0)"/>
<path d="" fill="#26353C" transform="translate(0,0)"/>
<path d="" fill="#2D3D43" transform="translate(0,0)"/>
<path d="" fill="#334143" transform="translate(0,0)"/>
<path d="" fill="#35443E" transform="translate(0,0)"/>
<path d="" fill="#303F3B" transform="translate(0,0)"/>
<path d="" fill="#34423D" transform="translate(0,0)"/>
<path d="" fill="#2F3C3E" transform="translate(0,0)"/>
<path d="" fill="#303E40" transform="translate(0,0)"/>
<path d="" fill="#2F3F3F" transform="translate(0,0)"/>
<path d="" fill="#7B6D26" transform="translate(0,0)"/>
<path d="" fill="#87772B" transform="translate(0,0)"/>
<path d="" fill="#837127" transform="translate(0,0)"/>
<path d="" fill="#787038" transform="translate(0,0)"/>
<path d="" fill="#8A7932" transform="translate(0,0)"/>
<path d="" fill="#7F7124" transform="translate(0,0)"/>
<path d="" fill="#7A6A24" transform="translate(0,0)"/>
<path d="" fill="#806F25" transform="translate(0,0)"/>
<path d="" fill="#796925" transform="translate(0,0)"/>
<path d="" fill="#88782C" transform="translate(0,0)"/>
<path d="" fill="#716B39" transform="translate(0,0)"/>
<path d="" fill="#87762C" transform="translate(0,0)"/>
<path d="" fill="#806F24" transform="translate(0,0)"/>
<path d="" fill="#89782F" transform="translate(0,0)"/>
<path d="" fill="#87772F" transform="translate(0,0)"/>
<path d="" fill="#7B6924" transform="translate(0,0)"/>
<path d="" fill="#83762C" transform="translate(0,0)"/>
<path d="" fill="#7F6F23" transform="translate(0,0)"/>
<path d="" fill="#776623" transform="translate(0,0)"/>
<path d="" fill="#81732B" transform="translate(0,0)"/>
<path d="" fill="#837329" transform="translate(0,0)"/>
<path d="" fill="#817025" transform="translate(0,0)"/>
<path d="" fill="#837329" transform="translate(0,0)"/>
<path d="" fill="#7A6822" transform="translate(0,0)"/>
<path d="" fill="#7E6F27" transform="translate(0,0)"/>
<path d="" fill="#6F5F1C" transform="translate(0,0)"/>
<path d="" fill="#736221" transform="translate(0,0)"/>
<path d="" fill="#826F27" transform="translate(0,0)"/>
<path d="" fill="#746320" transform="translate(0,0)"/>
<path d="" fill="#7E6F26" transform="translate(0,0)"/>
<path d="" fill="#7D6E27" transform="translate(0,0)"/>
<path d="" fill="#7B6B23" transform="translate(0,0)"/>
<path d="" fill="#72621F" transform="translate(0,0)"/>
<path d="" fill="#786621" transform="translate(0,0)"/>
<path d="" fill="#7C6C25" transform="translate(0,0)"/>
<path d="" fill="#7D6D25" transform="translate(0,0)"/>
<path d="" fill="#715E1C" transform="translate(0,0)"/>
<path d="" fill="#7E6B24" transform="translate(0,0)"/>
<path d="" fill="#7D6D22" transform="translate(0,0)"/>
<path d="" fill="#7C6B24" transform="translate(0,0)"/>
<path d="" fill="#7D6D24" transform="translate(0,0)"/>
<path d="" fill="#7B6B26" transform="translate(0,0)"/>
<path d="" fill="#7E6F27" transform="translate(0,0)"/>
</svg>
