<?xml version="1.0" encoding="UTF-8"?>
<svg version="1.1" xmlns="http://www.w3.org/2000/svg" width="1125" height="350">
<path d="M0 0 C1.67654663 0.0012085 1.67654663 0.0012085 3.38696289 0.00244141 C10.60487784 0.05485312 17.75281839 0.3652496 24.9375 1.0625 C26.17886719 1.18008667 26.17886719 1.18008667 27.4453125 1.30004883 C31.15247506 1.71033857 33.34738222 2.08575481 36.5 4.1875 C36.17 6.8275 35.84 9.4675 35.5 12.1875 C34.84 12.1875 34.18 12.1875 33.5 12.1875 C32.84 15.1575 32.18 18.1275 31.5 21.1875 C30.84 21.1875 30.18 21.1875 29.5 21.1875 C29.13823015 24.26254373 28.99787159 27.12296371 29.5 30.1875 C31.90192843 32.7561483 31.90192843 32.7561483 33.85546875 34.01171875 C36.54609755 35.93542248 38.39145606 38.65724727 40.5 41.1875 C41.95401251 42.38864077 43.40862633 43.58933137 44.8828125 44.765625 C48.97886892 48.36698861 52.48248463 52.66122695 55.5 57.1875 C55.5 58.1775 55.5 59.1675 55.5 60.1875 C56.16 60.1875 56.82 60.1875 57.5 60.1875 C59.09162079 65.75817277 59.70674944 70.39851581 59.5 76.1875 C60.16 76.1875 60.82 76.1875 61.5 76.1875 C61.561875 77.074375 61.62375 77.96125 61.6875 78.875 C62.69555082 82.98474564 64.40147656 84.38407403 67.5 87.1875 C70.5 90.80818966 70.5 90.80818966 70.5 93.1875 C71.49 93.5175 72.48 93.8475 73.5 94.1875 C74.8540932 96.17350337 76.18457624 98.17567543 77.5 100.1875 C79.14646685 101.87412458 80.81183067 103.54261706 82.5 105.1875 C85.5 108.80818966 85.5 108.80818966 85.5 111.1875 C86.098125 111.435 86.69625 111.6825 87.3125 111.9375 C89.81626919 113.36822525 90.98072388 114.7566582 92.5 117.1875 C92.5 117.8475 92.5 118.5075 92.5 119.1875 C93.49 119.5175 94.48 119.8475 95.5 120.1875 C97.86506843 122.18871175 98.4893322 123.15549661 99.5 126.1875 C100.180625 126.8475 100.86125 127.5075 101.5625 128.1875 C103.5 130.1875 103.5 130.1875 103.5 133.1875 C104.16 133.1875 104.82 133.1875 105.5 133.1875 C107.78487759 139.52938464 107.73299776 145.43329268 107.625 152.125 C107.61597656 153.19041016 107.60695312 154.25582031 107.59765625 155.35351562 C107.57423414 157.96508034 107.54143452 160.57616937 107.5 163.1875 C105.52 164.1775 105.52 164.1775 103.5 165.1875 C103.5 165.8475 103.5 166.5075 103.5 167.1875 C102.860625 167.290625 102.22125 167.39375 101.5625 167.5 C100.881875 167.726875 100.20125 167.95375 99.5 168.1875 C99.17 169.1775 98.84 170.1675 98.5 171.1875 C96.4375 171.875 96.4375 171.875 94.5 172.1875 C94.5 172.8475 94.5 173.5075 94.5 174.1875 C91.85261084 175.6481285 90.60551666 176.1875 87.5 176.1875 C87.5 176.8475 87.5 177.5075 87.5 178.1875 C84.85261084 179.6481285 83.60551666 180.1875 80.5 180.1875 C80.5 180.8475 80.5 181.5075 80.5 182.1875 C77.27717587 183.26177471 74.88488847 183.3207963 71.5 183.3125 C70.448125 183.31507813 69.39625 183.31765625 68.3125 183.3203125 C65.5 183.1875 65.5 183.1875 62.5 182.1875 C61.30849812 180.7643172 60.1214138 179.33680957 58.97265625 177.87890625 C56.84761419 175.43820807 54.38533891 173.49100975 51.85546875 171.484375 C51.40816406 171.05640625 50.96085938 170.6284375 50.5 170.1875 C50.5 169.5275 50.5 168.8675 50.5 168.1875 C49.18 167.8575 47.86 167.5275 46.5 167.1875 C46.5 166.5275 46.5 165.8675 46.5 165.1875 C43.53 164.1975 43.53 164.1975 40.5 163.1875 C40.5 162.5275 40.5 161.8675 40.5 161.1875 C36.54 160.1975 36.54 160.1975 32.5 159.1875 C32.5 158.5275 32.5 157.8675 32.5 157.1875 C29.86 156.8575 27.22 156.5275 24.5 156.1875 C24.5 155.5275 24.5 154.8675 24.5 154.1875 C23.83355469 154.21070313 23.16710937 154.23390625 22.48046875 154.2578125 C15.58243263 154.39287894 9.23699852 153.64696583 2.5 152.1875 C2.5 151.5275 2.5 150.8675 2.5 150.1875 C1.076875 149.9709375 1.076875 149.9709375 -0.375 149.75 C-3.5 149.1875 -3.5 149.1875 -5.5 148.1875 C-5.5 147.5275 -5.5 146.8675 -5.5 146.1875 C-6.82 145.8575 -8.14 145.5275 -9.5 145.1875 C-9.5 144.5275 -9.5 143.8675 -9.5 143.1875 C-10.180625 143.0225 -10.86125 142.8575 -11.5625 142.6875 C-16.76650569 140.03013539 -20.43165159 135.41709667 -22.9375 130.1875 C-23.123125 129.5275 -23.30875 128.8675 -23.5 128.1875 C-24.16 128.1875 -24.82 128.1875 -25.5 128.1875 C-25.5 132.1218373 -23.79846306 134.79889006 -22 138.1875 C-18.5 144.78209459 -18.5 144.78209459 -18.5 148.1875 C-17.51 148.5175 -16.52 148.8475 -15.5 149.1875 C-15.17 150.1775 -14.84 151.1675 -14.5 152.1875 C-13.984375 152.703125 -13.46875 153.21875 -12.9375 153.75 C-12.463125 154.224375 -11.98875 154.69875 -11.5 155.1875 C-11.5 155.8475 -11.5 156.5075 -11.5 157.1875 C-10.84 157.1875 -10.18 157.1875 -9.5 157.1875 C-8.1328125 158.578125 -8.1328125 158.578125 -6.625 160.4375 C-4.85272166 162.58769063 -3.1268841 164.55079706 -1.125 166.5 C0.5 168.1875 0.5 168.1875 0.5 170.1875 C1.8303125 170.5278125 1.8303125 170.5278125 3.1875 170.875 C7.026666 172.39617898 8.62548707 174.24613793 11.5 177.1875 C13.79830791 178.78110026 16.1368935 180.28103041 18.51171875 181.7578125 C20.5 183.1875 20.5 183.1875 22.5 186.1875 C23.49 186.5175 24.48 186.8475 25.5 187.1875 C25.5 187.8475 25.5 188.5075 25.5 189.1875 C26.82 189.8475 28.14 190.5075 29.5 191.1875 C29.5 191.8475 29.5 192.5075 29.5 193.1875 C30.056875 193.414375 30.61375 193.64125 31.1875 193.875 C35.64778164 196.4065112 38.25135914 199.69021829 40.5 204.1875 C41.49 204.5175 42.48 204.8475 43.5 205.1875 C51.5 214.21975806 51.5 214.21975806 51.5 219.1875 C52.16 219.1875 52.82 219.1875 53.5 219.1875 C54.75664978 222.09350261 55.5 223.98354584 55.5 227.1875 C56.16 227.1875 56.82 227.1875 57.5 227.1875 C58.95184478 231.72451494 59.73509196 235.36811476 59.5 240.1875 C60.16 240.1875 60.82 240.1875 61.5 240.1875 C61.63277344 241.47527344 61.76554688 242.76304687 61.90234375 244.08984375 C62.08049899 245.76825362 62.25889692 247.44663773 62.4375 249.125 C62.56801758 250.40020508 62.56801758 250.40020508 62.70117188 251.70117188 C62.78818359 252.51005859 62.87519531 253.31894531 62.96484375 254.15234375 C63.043396 254.9012085 63.12194824 255.65007324 63.20288086 256.42163086 C63.3280738 258.20890013 63.3280738 258.20890013 64.5 259.1875 C64.71413815 262.04564947 64.87761893 264.88764283 65 267.75 C65.2593677 273.61459196 65.70030943 279.36975108 66.5 285.1875 C67.16 285.1875 67.82 285.1875 68.5 285.1875 C68.5 286.8375 68.5 288.4875 68.5 290.1875 C53.14242924 290.21140416 37.78485994 290.22874925 22.4272747 290.23931217 C15.28826124 290.24435817 8.14925974 290.25118937 1.01025391 290.26293945 C-39.17088435 290.32775927 -79.32619376 289.9797561 -119.5 289.1875 C-118.89375293 284.59734363 -117.96107452 280.57072356 -116.5 276.1875 C-115.57568008 270.93557122 -115.35311187 265.88018737 -115.3671875 260.5703125 C-115.36623077 259.75488983 -115.36527405 258.93946716 -115.36428833 258.09933472 C-115.36361063 256.37644371 -115.36543618 254.6535501 -115.36962891 252.93066406 C-115.37491331 250.35475576 -115.36970618 247.77902744 -115.36328125 245.203125 C-115.35942519 234.49638244 -115.73978113 223.86692995 -116.5 213.1875 C-117.16 213.1875 -117.82 213.1875 -118.5 213.1875 C-120.41369405 205.26127782 -122.09407824 197.33775254 -123.49731445 189.30664062 C-123.86397074 185.96073648 -123.86397074 185.96073648 -125.5 183.1875 C-127.91041245 170.73742902 -127.80944481 158.12603595 -127.76074219 145.49707031 C-127.75001841 142.19317273 -127.76069634 138.8898187 -127.7734375 135.5859375 C-127.77997576 123.95829696 -127.37921662 112.67683349 -125.5 101.1875 C-124.84 101.1875 -124.18 101.1875 -123.5 101.1875 C-123.46261719 100.48625 -123.42523438 99.785 -123.38671875 99.0625 C-122.95507703 92.83331749 -121.91873441 87.93199422 -119.5 82.1875 C-119.14529562 80.85969215 -118.8062434 79.52731486 -118.5 78.1875 C-117.84 78.1875 -117.18 78.1875 -116.5 78.1875 C-115.84 74.8875 -115.18 71.5875 -114.5 68.1875 C-113.84 68.1875 -113.18 68.1875 -112.5 68.1875 C-112.4175 67.506875 -112.335 66.82625 -112.25 66.125 C-111.27667472 62.3128093 -109.54192545 59.54679671 -107.5 56.1875 C-106.84 56.1875 -106.18 56.1875 -105.5 56.1875 C-105.355625 55.56875 -105.21125 54.95 -105.0625 54.3125 C-104.5 52.1875 -104.5 52.1875 -103.5 50.1875 C-102.84 50.1875 -102.18 50.1875 -101.5 50.1875 C-100.84 48.5375 -100.18 46.8875 -99.5 45.1875 C-98.84 45.1875 -98.18 45.1875 -97.5 45.1875 C-97.17 43.8675 -96.84 42.5475 -96.5 41.1875 C-95.84 41.1875 -95.18 41.1875 -94.5 41.1875 C-93.84 39.8675 -93.18 38.5475 -92.5 37.1875 C-91.84 37.1875 -91.18 37.1875 -90.5 37.1875 C-90.273125 36.40375 -90.04625 35.62 -89.8125 34.8125 C-88.16562962 31.51875925 -86.85641647 31.39236745 -83.5 30.1875 C-83.005 28.7025 -83.005 28.7025 -82.5 27.1875 C-81.51 26.8575 -80.52 26.5275 -79.5 26.1875 C-78.84 25.1975 -78.18 24.2075 -77.5 23.1875 C-76.51 23.1875 -75.52 23.1875 -74.5 23.1875 C-74.005 21.7025 -74.005 21.7025 -73.5 20.1875 C-71.85 19.8575 -70.2 19.5275 -68.5 19.1875 C-68.5 18.5275 -68.5 17.8675 -68.5 17.1875 C-66.39915791 16.18053432 -64.29420511 15.1821411 -62.1875 14.1875 C-61.01574219 13.630625 -59.84398438 13.07375 -58.63671875 12.5 C-55.5 11.1875 -55.5 11.1875 -52.5 11.1875 C-52.5 10.5275 -52.5 9.8675 -52.5 9.1875 C-49.035 8.6925 -49.035 8.6925 -45.5 8.1875 C-45.5 7.5275 -45.5 6.8675 -45.5 6.1875 C-44.57058594 5.99414062 -43.64117187 5.80078125 -42.68359375 5.6015625 C-35.22084639 4.0625044 -35.22084639 4.0625044 -27.875 2.0625 C-18.89476062 -0.26571021 -9.22636302 -0.00701038 0 0 Z M-48.5 39.1875 C-48.5 39.8475 -48.5 40.5075 -48.5 41.1875 C-47.84 41.1875 -47.18 41.1875 -46.5 41.1875 C-46.5 40.5275 -46.5 39.8675 -46.5 39.1875 C-47.16 39.1875 -47.82 39.1875 -48.5 39.1875 Z M-70.5 54.1875 C-74.1530147 57.6356199 -74.1530147 57.6356199 -75.5 62.1875 C-76.16 62.1875 -76.82 62.1875 -77.5 62.1875 C-78.86233884 63.6376405 -78.86233884 63.6376405 -80.125 65.5 C-80.57101563 66.11488281 -81.01703125 66.72976562 -81.4765625 67.36328125 C-82.74464281 69.27494556 -82.74464281 69.27494556 -82.5 72.1875 C-83.16 72.1875 -83.82 72.1875 -84.5 72.1875 C-85.9606285 74.83488916 -86.5 76.08198334 -86.5 79.1875 C-87.16 79.1875 -87.82 79.1875 -88.5 79.1875 C-95.46686965 94.61477975 -95.46686965 94.61477975 -97.5 111.1875 C-98.16 111.1875 -98.82 111.1875 -99.5 111.1875 C-101.33900122 122.90223099 -101.81352117 134.35976783 -101.76074219 146.20458984 C-101.75003956 149.05197565 -101.76069322 151.89872714 -101.7734375 154.74609375 C-101.78096694 166.35875389 -101.06130345 177.68044464 -99.5 189.1875 C-98.84 189.1875 -98.18 189.1875 -97.5 189.1875 C-97.45101562 190.04472656 -97.40203125 190.90195313 -97.3515625 191.78515625 C-97.27679688 192.92855469 -97.20203125 194.07195312 -97.125 195.25 C-97.05539063 196.37535156 -96.98578125 197.50070313 -96.9140625 198.66015625 C-96.59707489 202.19520583 -96.59707489 202.19520583 -95.53125 205.53125 C-94.30174311 209.8904108 -93.816943 214.12949787 -93.375 218.625 C-93.28863281 219.45193359 -93.20226562 220.27886719 -93.11328125 221.13085938 C-92.90328384 223.14916778 -92.70085549 225.16826133 -92.5 227.1875 C-91.84 227.1875 -91.18 227.1875 -90.5 227.1875 C-90.5 232.7975 -90.5 238.4075 -90.5 244.1875 C-89.84 244.5175 -89.18 244.8475 -88.5 245.1875 C-88.43941406 244.40503906 -88.37882812 243.62257812 -88.31640625 242.81640625 C-88.23261719 241.80449219 -88.14882812 240.79257813 -88.0625 239.75 C-87.98128906 238.74066406 -87.90007812 237.73132813 -87.81640625 236.69140625 C-87.5 234.1875 -87.5 234.1875 -86.5 233.1875 C-86.40040379 231.34590977 -86.36919589 229.50053033 -86.3671875 227.65625 C-86.36589844 226.53605469 -86.36460938 225.41585937 -86.36328125 224.26171875 C-86.36714844 223.08222656 -86.37101562 221.90273437 -86.375 220.6875 C-86.37113281 219.50800781 -86.36726563 218.32851562 -86.36328125 217.11328125 C-86.36521484 215.43298828 -86.36521484 215.43298828 -86.3671875 213.71875 C-86.36831543 212.68298828 -86.36944336 211.64722656 -86.37060547 210.58007812 C-86.23034847 208.23452177 -86.23034847 208.23452177 -87.5 207.1875 C-87.79043942 204.53857083 -88.02331754 201.90639817 -88.21875 199.25 C-88.28155151 198.454729 -88.34435303 197.65945801 -88.40905762 196.84008789 C-88.67871566 193.42352557 -88.93769973 190.00617173 -89.19775391 186.58886719 C-89.38861165 184.10061267 -89.5847903 181.61281743 -89.78125 179.125 C-89.838573 178.34584229 -89.895896 177.56668457 -89.95495605 176.76391602 C-89.93536911 173.17276467 -89.93536911 173.17276467 -91.5 170.1875 C-91.66029688 167.23220496 -91.75957328 164.29767543 -91.81640625 161.33984375 C-91.83718735 160.4534169 -91.85796844 159.56699005 -91.87937927 158.65370178 C-91.944974 155.810883 -92.00380552 152.96796883 -92.0625 150.125 C-92.1056758 148.20246394 -92.14928978 146.27993766 -92.19335938 144.35742188 C-92.30066543 139.63421332 -92.40190451 134.91090847 -92.5 130.1875 C-91.84 130.1875 -91.18 130.1875 -90.5 130.1875 C-90.40203125 129.06214844 -90.3040625 127.93679687 -90.203125 126.77734375 C-88.95358858 113.55803027 -86.27939313 101.61392213 -81.5 89.1875 C-81.5 88.1975 -81.5 87.2075 -81.5 86.1875 C-80.84 86.1875 -80.18 86.1875 -79.5 86.1875 C-79.31824219 85.59582031 -79.13648437 85.00414062 -78.94921875 84.39453125 C-77.23270455 78.9985148 -75.36434096 74.53518862 -71.8125 70.0625 C-70.21326883 68.1593389 -70.21326883 68.1593389 -70.5 65.1875 C-69.51 64.8575 -68.52 64.5275 -67.5 64.1875 C-67.005 62.7025 -67.005 62.7025 -66.5 61.1875 C-65.19205669 59.82925118 -63.85099103 58.50293863 -62.5 57.1875 C-60.70830571 55.17133376 -58.94440122 53.13300788 -57.18359375 51.08984375 C-55.6769335 49.38742254 -54.10656024 47.79406024 -52.5 46.1875 C-51.15263027 44.53216005 -49.81665664 42.86737227 -48.5 41.1875 C-55.97828709 41.1875 -64.88771715 49.37515792 -70.5 54.1875 Z M28.5 82.1875 C29.65196598 85.64339795 30.7267814 86.86399253 33.5 89.1875 C36.63350717 90.45534124 36.63350717 90.45534124 39.5 91.1875 C39.5 91.8475 39.5 92.5075 39.5 93.1875 C41.15 93.5175 42.8 93.8475 44.5 94.1875 C46.86980013 91.23372502 46.86980013 91.23372502 46.5 87.1875 C42.88026598 85.87123308 40.40432869 85.1875 36.5 85.1875 C36.5 84.5275 36.5 83.8675 36.5 83.1875 C33.86 82.8575 31.22 82.5275 28.5 82.1875 Z M-29.5 121.1875 C-28.84 121.8475 -28.18 122.5075 -27.5 123.1875 C-27.5 122.5275 -27.5 121.8675 -27.5 121.1875 C-28.16 121.1875 -28.82 121.1875 -29.5 121.1875 Z " fill="#FDFDFD" transform="translate(145.5,-0.1875)"/>
<path d="M0 0 C0.82799657 -0.00523668 1.65599315 -0.01047336 2.50908053 -0.01586872 C5.29350644 -0.03091347 8.07774931 -0.03157485 10.86221313 -0.03224182 C12.85452079 -0.03986028 14.8468255 -0.04828723 16.83912659 -0.0574646 C22.25853895 -0.07944687 27.67789487 -0.08821346 33.09734678 -0.09329104 C36.48127255 -0.09693007 39.86518344 -0.10316774 43.24910355 -0.11029243 C55.04902041 -0.13479943 66.84889322 -0.14784163 78.64883423 -0.15138245 C89.6569121 -0.15501917 100.6647114 -0.18492128 111.6727041 -0.22678703 C121.11651106 -0.26144781 130.56022551 -0.27693015 140.00409567 -0.27762848 C145.64767692 -0.2784227 151.29097454 -0.28722808 156.9344902 -0.31562614 C162.2418439 -0.34173467 167.54867735 -0.3440523 172.85606575 -0.3279705 C174.80517393 -0.32615029 176.75431154 -0.33289813 178.70335579 -0.34878922 C181.36234692 -0.36914881 184.01950047 -0.35875844 186.6784668 -0.34057617 C187.45171873 -0.35377614 188.22497067 -0.36697611 189.02165449 -0.38057607 C193.05187146 -0.31753011 194.79374012 0.13622838 197.98420143 2.68757534 C199.96621704 5.27415466 199.96621704 5.27415466 199.96621704 7.27415466 C201.94621704 8.26415466 201.94621704 8.26415466 203.96621704 9.27415466 C203.96621704 9.93415466 203.96621704 10.59415466 203.96621704 11.27415466 C204.95621704 11.60415466 205.94621704 11.93415466 206.96621704 12.27415466 C210.70014363 16.76582392 211.45233171 19.86421717 211.35684204 25.64134216 C211.35118225 26.32092987 211.34552246 27.00051758 211.33969116 27.70069885 C211.31747055 29.85093015 211.26730902 31.9994354 211.21621704 34.14915466 C211.19613318 35.61527626 211.17788572 37.08142424 211.16152954 38.54759216 C211.11765515 42.12366474 211.04873147 45.69874097 210.96621704 49.27415466 C203.10291738 50.56333479 195.2396958 50.39163465 187.29727173 50.35032654 C185.70526613 50.34573886 184.11325932 50.3415563 182.52125168 50.33774567 C178.22382833 50.32591466 173.92646145 50.30726629 169.62907219 50.2866478 C166.98466708 50.27424122 164.34026004 50.26328213 161.69584656 50.25282288 C149.37969334 50.20379221 137.06364114 50.14001872 124.74757862 50.07222557 C119.49068885 50.04349949 114.23379321 50.01588869 108.97689819 49.98814392 C99.08641325 49.93578258 89.19593373 49.88246319 79.30545592 49.82877207 C68.01826185 49.76754749 56.73106194 49.70743287 45.44386148 49.64739704 C22.28464012 49.52419065 -0.87457383 49.3996373 -24.03378296 49.27415466 C-24.08338405 44.95084687 -24.11959736 40.62769181 -24.14364624 36.30418396 C-24.15367648 34.83475355 -24.16730397 33.36534296 -24.18466187 31.89598083 C-24.20904194 29.7784993 -24.22029582 27.66128267 -24.22909546 25.54368591 C-24.23956909 24.27113953 -24.25004272 22.99859314 -24.26083374 21.68748474 C-23.98229451 17.50011165 -23.2365208 14.5818484 -20.37753296 11.47337341 C-19.76909546 10.97450623 -19.16065796 10.47563904 -18.53378296 9.96165466 C-17.92534546 9.44989685 -17.31690796 8.93813904 -16.69003296 8.41087341 C-15.03378296 7.27415466 -15.03378296 7.27415466 -13.03378296 7.27415466 C-12.76565796 6.49040466 -12.49753296 5.70665466 -12.22128296 4.89915466 C-9.70688562 -0.65898683 -5.32843146 -0.01654673 0 0 Z " fill="#FDFDFD" transform="translate(27.033782958984375,299.72584533691406)"/>
<path d="M0 0 C7.26 0 14.52 0 22 0 C22.33 1.32 22.66 2.64 23 4 C23.66 4 24.32 4 25 4 C25.268125 4.763125 25.53625 5.52625 25.8125 6.3125 C26.95800967 8.90496926 27.99711522 10.08815544 30 12 C30 12.66 30 13.32 30 14 C30.99 14.33 31.98 14.66 33 15 C33.495 17.475 33.495 17.475 34 20 C34.66 20 35.32 20 36 20 C36.28875 20.639375 36.5775 21.27875 36.875 21.9375 C37.82823451 24.15206079 37.82823451 24.15206079 40 25 C41.57548683 27.62581138 42 28.87099787 42 32 C42.99 32.33 43.98 32.66 45 33 C45 33.66 45 34.32 45 35 C45.66 35 46.32 35 47 35 C47.66 36.98 48.32 38.96 49 41 C49.66 41 50.32 41 51 41 C51.66 42.98 52.32 44.96 53 47 C53.66 47 54.32 47 55 47 C55.495 48.98 55.495 48.98 56 51 C56.66 51 57.32 51 58 51 C58 34.17 58 17.34 58 0 C64.6 0 71.2 0 78 0 C78 30.03 78 60.06 78 91 C71.73 91 65.46 91 59 91 C55.14753273 87.14753273 52.73992724 83.21978173 51 78 C50.01 77.67 49.02 77.34 48 77 C47.67 75.35 47.34 73.7 47 72 C46.34 72 45.68 72 45 72 C43.36570249 69.9055032 41.85832766 67.82217909 40.375 65.625 C39.95476562 65.02171875 39.53453125 64.4184375 39.1015625 63.796875 C36 59.26537135 36 59.26537135 36 57 C35.34 57 34.68 57 34 57 C33.34 55.02 32.68 53.04 32 51 C31.34 51 30.68 51 30 51 C29.67 50.01 29.34 49.02 29 48 C28.34 47.67 27.68 47.34 27 47 C26.27306096 45.02111039 25.60183749 43.02045442 25 41 C24.34 41 23.68 41 23 41 C22.67 41 22.34 41 22 41 C22 57.5 22 74 22 91 C14.74 91 7.48 91 0 91 C0 60.97 0 30.94 0 0 Z " fill="#FDFDFD" transform="translate(385,65)"/>
<path d="M0 0 C38 0 38 0 48 1 C48 1.66 48 2.32 48 3 C49.258125 3.144375 50.51625 3.28875 51.8125 3.4375 C54.42667123 3.73748686 56.47439892 4.15813297 59 5 C59 5.66 59 6.32 59 7 C61.475 7.495 61.475 7.495 64 8 C64 8.66 64 9.32 64 10 C65.32 10.66 66.64 11.32 68 12 C68 12.66 68 13.32 68 14 C68.59425781 14.226875 69.18851563 14.45375 69.80078125 14.6875 C74.19935472 17.31258115 76.09535534 22.40644523 78 27 C78.68822171 30.35230574 78.98516646 33.58086828 79 37 C79.66 37 80.32 37 81 37 C81 43.6 81 50.2 81 57 C80.34 57 79.68 57 79 57 C78.93941406 57.68707031 78.87882813 58.37414062 78.81640625 59.08203125 C78.69072266 60.43361328 78.69072266 60.43361328 78.5625 61.8125 C78.44068359 63.15248047 78.44068359 63.15248047 78.31640625 64.51953125 C78 67 78 67 77 70 C76.34 70 75.68 70 75 70 C74.34 71.65 73.68 73.3 73 75 C72.34 75 71.68 75 71 75 C70.505 76.98 70.505 76.98 70 79 C69.34 79 68.68 79 68 79 C68 79.66 68 80.32 68 81 C67.360625 81.103125 66.72125 81.20625 66.0625 81.3125 C65.381875 81.539375 64.70125 81.76625 64 82 C63.505 83.485 63.505 83.485 63 85 C60.03 85.495 60.03 85.495 57 86 C57 86.66 57 87.32 57 88 C51.90308776 89.39006698 47.05076465 90.31134225 41.78515625 90.75390625 C39.97887832 90.81981611 39.97887832 90.81981611 39 92 C26.13 92 13.26 92 0 92 C0 61.64 0 31.28 0 0 Z M22 19 C20.27448285 22.00207227 19.74810691 24.16250183 19.74121094 27.61328125 C19.73490662 28.52102295 19.72860229 29.42876465 19.72210693 30.36401367 C19.7261554 31.33701416 19.73020386 32.31001465 19.734375 33.3125 C19.73246155 34.31837158 19.7305481 35.32424316 19.72857666 36.3605957 C19.72721675 38.48551687 19.73089964 40.6104464 19.73925781 42.73535156 C19.74995992 45.98782005 19.7393558 49.23973619 19.7265625 52.4921875 C19.72788413 54.55729289 19.73044659 56.62239793 19.734375 58.6875 C19.73032654 59.66050049 19.72627808 60.63350098 19.72210693 61.63598633 C19.72841125 62.54372803 19.73471558 63.45146973 19.74121094 64.38671875 C19.74280212 65.18295654 19.74439331 65.97919434 19.74603271 66.79956055 C19.9203593 69.41024089 19.9203593 69.41024089 22 73 C26.95 73 31.9 73 37 73 C37 72.34 37 71.68 37 71 C41.95 70.505 41.95 70.505 47 70 C47.33 69.01 47.66 68.02 48 67 C49.32796291 66.64587656 50.66216607 66.31478446 52 66 C57.16066427 62.05202446 58.38351566 53.85302713 59.359375 47.75390625 C59.64632554 40.85274588 57.79650606 32.80320109 53.5 27.3125 C51.20053914 24.66047901 51.20053914 24.66047901 48 25 C48 24.34 48 23.68 48 23 C39.14992367 19.36919945 31.52801503 18.49259092 22 19 Z " fill="#FCFCFC" transform="translate(810,64)"/>
<path d="M0 0 C0 0.66 0 1.32 0 2 C0.7425 2.0825 1.485 2.165 2.25 2.25 C5.58676213 3.16002604 6.90015697 4.27798125 9 7 C9 8.32 9 9.64 9 11 C8.34 11 7.68 11 7 11 C6.731875 11.598125 6.46375 12.19625 6.1875 12.8125 C5.00082594 14.99847854 3.90400887 16.41332594 2 18 C1.34 18 0.68 18 0 18 C-0.66 19.32 -1.32 20.64 -2 22 C-2.66 22 -3.32 22 -4 22 C-4 22.66 -4 23.32 -4 24 C-8 24 -8 24 -10.25 22.125 C-12 20 -12 20 -12 18 C-12.763125 17.855625 -13.52625 17.71125 -14.3125 17.5625 C-17 17 -17 17 -20 16 C-20 15.34 -20 14.68 -20 14 C-25.61 14 -31.22 14 -37 14 C-37 14.66 -37 15.32 -37 16 C-37.70125 16.185625 -38.4025 16.37125 -39.125 16.5625 C-44.24472551 19.12236275 -47.271149 23.17787249 -49.375 28.4375 C-49.684375 29.7059375 -49.684375 29.7059375 -50 31 C-50.66 31 -51.32 31 -52 31 C-51.93947584 34.00199825 -51.85224389 36.99936422 -51.75 40 C-51.73582031 40.83917969 -51.72164062 41.67835937 -51.70703125 42.54296875 C-51.37944826 50.99461 -48.32807089 57.32346523 -42.609375 63.5234375 C-37.14833935 68.53380516 -31.26602731 68.45597471 -24.16796875 68.30078125 C-19.93584313 67.89896414 -16.84735205 66.78118151 -13 65 C-12.01 64.67 -11.02 64.34 -10 64 C-10.33 60.7 -10.66 57.4 -11 54 C-16.61 54 -22.22 54 -28 54 C-28 47.73 -28 41.46 -28 35 C-15.46 35 -2.92 35 10 35 C10 48.53 10 62.06 10 76 C8.515 76.495 8.515 76.495 7 77 C6.505 78.485 6.505 78.485 6 80 C-7.70207974 89.50756554 -27.17492045 89.63751326 -43 87 C-43 86.34 -43 85.68 -43 85 C-44.093125 84.855625 -45.18625 84.71125 -46.3125 84.5625 C-50 84 -50 84 -53 83 C-53 82.34 -53 81.68 -53 81 C-53.598125 80.855625 -54.19625 80.71125 -54.8125 80.5625 C-59.97493044 79.23501789 -61.8188726 77.29882082 -65 73 C-65 72.01 -65 71.02 -65 70 C-65.99 69.67 -66.98 69.34 -68 69 C-69.01438902 66.65459185 -69.85236056 64.42284465 -70.625 62 C-71.75280191 57.6666735 -71.75280191 57.6666735 -74 54 C-75.29200829 41.94125598 -75.31121665 31.46946317 -71 20 C-70.34 20 -69.68 20 -69 20 C-68.938125 19.154375 -68.87625 18.30875 -68.8125 17.4375 C-67.79572236 13.13574846 -66.04211975 10.19380439 -63 7 C-60.1875 5.5625 -60.1875 5.5625 -58 5 C-58 4.34 -58 3.68 -58 3 C-56.68 2.67 -55.36 2.34 -54 2 C-54 1.34 -54 0.68 -54 0 C-51.09399739 -1.25664978 -49.20395416 -2 -46 -2 C-46 -2.66 -46 -3.32 -46 -4 C-29.61630423 -6.45349899 -15.40212976 -7.14722117 0 0 Z " fill="#FAFAFA" transform="translate(586,69)"/>
<path d="M0 0 C1.2694043 -0.00193359 1.2694043 -0.00193359 2.56445312 -0.00390625 C3.44939453 -0.00003906 4.33433594 0.00382812 5.24609375 0.0078125 C6.13490234 0.00394531 7.02371094 0.00007813 7.93945312 -0.00390625 C8.78443359 -0.00261719 9.62941406 -0.00132813 10.5 0 C11.66704468 0.00169189 11.66704468 0.00169189 12.85766602 0.00341797 C14.68359375 0.1328125 14.68359375 0.1328125 15.68359375 1.1328125 C15.84355541 3.72434357 15.94298072 6.2923327 16 8.88671875 C16.0207811 9.66216537 16.04156219 10.437612 16.06297302 11.23655701 C16.12855177 13.72271558 16.18739174 16.20898295 16.24609375 18.6953125 C16.28927108 20.37696454 16.33288511 22.05860544 16.37695312 23.74023438 C16.48506656 27.8709837 16.58407706 32.00181117 16.68359375 36.1328125 C27.90359375 36.1328125 39.12359375 36.1328125 50.68359375 36.1328125 C50.68359375 24.2528125 50.68359375 12.3728125 50.68359375 0.1328125 C55.85015625 0.101875 55.85015625 0.101875 61.12109375 0.0703125 C62.2083374 0.0612085 63.29558105 0.05210449 64.41577148 0.04272461 C65.69109741 0.03897827 65.69109741 0.03897827 66.9921875 0.03515625 C68.30401001 0.02730103 68.30401001 0.02730103 69.64233398 0.01928711 C71.68359375 0.1328125 71.68359375 0.1328125 72.68359375 1.1328125 C72.77880281 3.96321922 72.80913006 6.76916243 72.79711914 9.59985352 C72.79726517 10.48757446 72.79741119 11.37529541 72.79756165 12.28991699 C72.79686218 15.23887534 72.78906823 18.18777137 72.78125 21.13671875 C72.77938594 23.17553167 72.77796198 25.21434504 72.77696228 27.25315857 C72.77313616 32.63065824 72.76330507 38.00813108 72.7522583 43.38562012 C72.7420462 48.86840451 72.73746509 54.35119322 72.73242188 59.83398438 C72.72168289 70.60027412 72.70408533 81.36653689 72.68359375 92.1328125 C65.42359375 92.1328125 58.16359375 92.1328125 50.68359375 92.1328125 C50.68359375 79.9228125 50.68359375 67.7128125 50.68359375 55.1328125 C39.13359375 55.1328125 27.58359375 55.1328125 15.68359375 55.1328125 C15.68359375 67.3428125 15.68359375 79.5528125 15.68359375 92.1328125 C8.42359375 92.1328125 1.16359375 92.1328125 -6.31640625 92.1328125 C-6.31640625 62.1028125 -6.31640625 32.0728125 -6.31640625 1.1328125 C-3.98476789 -0.03300668 -2.59487143 0.00375641 0 0 Z " fill="#FCFCFC" transform="translate(614.31640625,63.8671875)"/>
<path d="M0 0 C0.495 15.345 0.495 15.345 1 31 C3.23408258 30.11600092 3.23408258 30.11600092 4.375 27.5625 C6.1429443 24.77458784 7.16791265 24.41604368 10 23 C10.59070014 21.05396726 10.59070014 21.05396726 11 19 C11.97850195 17.97895449 12.97980427 16.9793879 14 16 C15.17574711 13.90010348 15.17574711 13.90010348 16 12 C16.66 12 17.32 12 18 12 C18.268125 11.443125 18.53625 10.88625 18.8125 10.3125 C20.10899496 7.78774666 21.42476323 5.36285516 23 3 C23.66 3 24.32 3 25 3 C25.33 1.68 25.66 0.36 26 -1 C38.375 -1.495 38.375 -1.495 51 -2 C51 2.35559992 50.84743884 2.63339962 48.0625 5.5625 C45.90571439 7.85185399 45.02018482 8.93944555 44 12 C42.0625 14.1875 42.0625 14.1875 40 16 C39.34 16 38.68 16 38 16 C37.34 17.65 36.68 19.3 36 21 C35.34 21 34.68 21 34 21 C33.67 22.32 33.34 23.64 33 25 C32.34 25 31.68 25 31 25 C30.34 26.32 29.68 27.64 29 29 C28.34 29 27.68 29 27 29 C26.67 30.65 26.34 32.3 26 34 C25.01 34.33 24.02 34.66 23 35 C22.6278958 36.32303717 22.29369827 37.65737935 22 39 C21.01 39.495 21.01 39.495 20 40 C20 41.65 20 43.3 20 45 C20.66 45 21.32 45 22 45 C22.1546875 45.9590625 22.1546875 45.9590625 22.3125 46.9375 C22.539375 47.618125 22.76625 48.29875 23 49 C23.99 49.33 24.98 49.66 26 50 C26.6875 52.0625 26.6875 52.0625 27 54 C27.66 54 28.32 54 29 54 C31 57 31 57 31 60 C31.99 60.33 32.98 60.66 34 61 C35.36176581 62.98075027 36.69593116 64.98079663 38 67 C38.99 67.495 38.99 67.495 40 68 C40.66666667 69.33333333 41.33333333 70.66666667 42 72 C42.97753644 73.02196992 43.9805881 74.01979625 45 75 C49 79.57142857 49 79.57142857 49 83 C50.485 83.495 50.485 83.495 52 84 C53.6875 86.5625 53.6875 86.5625 55 89 C54 90 54 90 51.59155273 90.11352539 C50.54942627 90.10828857 49.5072998 90.10305176 48.43359375 90.09765625 C47.30888672 90.09443359 46.18417969 90.09121094 45.02539062 90.08789062 C43.84138672 90.07951172 42.65738281 90.07113281 41.4375 90.0625 C40.24962891 90.05798828 39.06175781 90.05347656 37.83789062 90.04882812 C34.89187774 90.03699675 31.94596319 90.02051287 29 90 C29 89.34 29 88.68 29 88 C27.68 87.34 26.36 86.68 25 86 C25 85.01 25 84.02 25 83 C24.01 82.67 23.02 82.34 22 82 C20.6273318 80.02678947 19.29572383 78.02456848 18 76 C17.443125 75.46375 16.88625 74.9275 16.3125 74.375 C15 73 15 73 14.5 70.875 C14.335 70.25625 14.17 69.6375 14 69 C13.01 68.67 12.02 68.34 11 68 C10.3125 65.9375 10.3125 65.9375 10 64 C9.34 64 8.68 64 8 64 C6.7109375 62.5390625 6.7109375 62.5390625 5.375 60.625 C4.92898438 59.99851563 4.48296875 59.37203125 4.0234375 58.7265625 C3 57 3 57 3 55 C2.34 55 1.68 55 1 55 C0.67 54.34 0.34 53.68 0 53 C0 65.21 0 77.42 0 90 C-7.26 90 -14.52 90 -22 90 C-22 59.97 -22 29.94 -22 -1 C-4 -2 -4 -2 0 0 Z M-1 33 C0 35 0 35 0 35 Z " fill="#F9F9F9" transform="translate(322,66)"/>
<path d="M0 0 C6.6 0 13.2 0 20 0 C20 0.66 20 1.32 20 2 C20.66 2 21.32 2 22 2 C22.66 3.98 23.32 5.96 24 8 C24.66 8 25.32 8 26 8 C28.05643741 11.92592596 29.68938409 15.76570244 31 20 C31.66 20 32.32 20 33 20 C33.66 21.98 34.32 23.96 35 26 C35.66 26 36.32 26 37 26 C38.625 28.5 38.625 28.5 40 31 C40.66 30.01 41.32 29.02 42 28 C42.66 28 43.32 28 44 28 C44.144375 27.401875 44.28875 26.80375 44.4375 26.1875 C44.8872439 24.43849596 45.42892341 22.71322977 46 21 C46.66 21 47.32 21 48 21 C48.33 19.68 48.66 18.36 49 17 C49.66 17 50.32 17 51 17 C51.33 15.02 51.66 13.04 52 11 C52.99 10.67 53.98 10.34 55 10 C55.144375 9.21625 55.28875 8.4325 55.4375 7.625 C56 5 56 5 57 3 C57.66 3 58.32 3 59 3 C59 2.01 59 1.02 59 0 C66.26 0 73.52 0 81 0 C81 25.08 81 50.16 81 76 C75.06 76 69.12 76 63 76 C63 60.49 63 44.98 63 29 C62.34 29 61.68 29 61 29 C60.855625 29.763125 60.71125 30.52625 60.5625 31.3125 C60 34 60 34 59 37 C58.34 37 57.68 37 57 37 C56.34 38.98 55.68 40.96 55 43 C54.34 43 53.68 43 53 43 C52.731875 43.886875 52.46375 44.77375 52.1875 45.6875 C51.0749365 48.7909666 49.89804222 51.31110685 48 54 C47.34 54 46.68 54 46 54 C45.34 55.98 44.68 57.96 44 60 C43.34 60 42.68 60 42 60 C42 60.99 42 61.98 42 63 C40.35 62.67 38.7 62.34 37 62 C37 61.01 37 60.02 37 59 C36.01 58.67 35.02 58.34 34 58 C32.4375 55.1875 32.4375 55.1875 31 52 C29.67368798 49.08694914 29.67368798 49.08694914 27.625 46.6875 C24.94127477 43.90055457 22 39.93429375 22 36 C21.34 36 20.68 36 20 36 C19.67 35.01 19.34 34.02 19 33 C18.67 47.19 18.34 61.38 18 76 C12.06 76 6.12 76 0 76 C0 50.92 0 25.84 0 0 Z " fill="#FCFCFC" transform="translate(684,194)"/>
<path d="M0 0 C3.60374463 -0.14500644 7.20674242 -0.23396763 10.8125 -0.3125 C11.83666016 -0.35439453 12.86082031 -0.39628906 13.91601562 -0.43945312 C16.69198541 -0.48496083 19.26314287 -0.47040185 22 0 C24.1015625 2.25390625 24.1015625 2.25390625 25 5 C25.29003906 5.70640625 25.58007812 6.4128125 25.87890625 7.140625 C27.57441817 12.37249036 28.91646394 17.60781468 30 23 C30.66 23 31.32 23 32 23 C32.37125 24.134375 32.7425 25.26875 33.125 26.4375 C34.68787703 31.11872409 36.30331439 35.78078508 37.9375 40.4375 C38.19692383 41.17693848 38.45634766 41.91637695 38.72363281 42.67822266 C40.44016564 47.52812612 42.28142283 52.30082886 44.3359375 57.01953125 C45 59 45 59 45 63 C45.66 63 46.32 63 47 63 C47.84124316 65.24732102 48.67314832 67.49738785 49.5 69.75 C49.85771484 70.70132813 49.85771484 70.70132813 50.22265625 71.671875 C51.44801758 75.03286607 52 77.36871587 52 81 C52.66 81 53.32 81 54 81 C55.19287411 84.87684087 56 87.91621923 56 92 C52.5627834 92.11604679 49.12606914 92.18719508 45.6875 92.25 C44.71103516 92.28351563 43.73457031 92.31703125 42.72851562 92.3515625 C41.79072266 92.36445313 40.85292969 92.37734375 39.88671875 92.390625 C38.59060669 92.4220459 38.59060669 92.4220459 37.26831055 92.45410156 C35 92 35 92 33.26757812 90.17333984 C31.61567751 87.3410557 30.73827145 84.51765709 29.8125 81.375 C29.46832031 80.22773438 29.12414063 79.08046875 28.76953125 77.8984375 C28 75 28 75 28 73 C17.11 73 6.22 73 -5 73 C-5 73.66 -5 74.32 -5 75 C-5.66 75 -6.32 75 -7 75 C-7.06058594 75.60328125 -7.12117188 76.2065625 -7.18359375 76.828125 C-7.30927734 78.02695313 -7.30927734 78.02695313 -7.4375 79.25 C-7.55931641 80.43335938 -7.55931641 80.43335938 -7.68359375 81.640625 C-7.97634993 83.82364639 -8.42064419 85.8773182 -9 88 C-9.66 88 -10.32 88 -11 88 C-11 89.32 -11 90.64 -11 92 C-18.26 92 -25.52 92 -33 92 C-34.33332095 89.3333581 -33.67102033 87.83319697 -33 85 C-32.34 85 -31.68 85 -31 85 C-30.89300781 83.98421875 -30.78601562 82.9684375 -30.67578125 81.921875 C-29.99156402 77.95104207 -28.85159716 74.90680084 -27.1875 71.25 C-24.51540416 65.24872252 -22.16820873 59.19972182 -20 53 C-14.94816211 38.66540999 -14.94816211 38.66540999 -12 32 C-11.28417672 30.27392048 -10.5763511 28.54451042 -9.875 26.8125 C-9.54242187 25.99394531 -9.20984375 25.17539063 -8.8671875 24.33203125 C-8.08624086 22.23191799 -7.49189503 20.18341162 -7 18 C-6.34 18 -5.68 18 -5 18 C-4.67 15.69 -4.34 13.38 -4 11 C-3.34 11 -2.68 11 -2 11 C-1.855625 9.741875 -1.71125 8.48375 -1.5625 7.1875 C-1.26251314 4.57332877 -0.84186703 2.52560108 0 0 Z M11 29 C8.14711836 34.73230171 6.46555704 39.59859065 6 46 C5.34 46 4.68 46 4 46 C3.67 48.31 3.34 50.62 3 53 C8.94 53 14.88 53 21 53 C20.34 52.67 19.68 52.34 19 52 C18.79496667 50.15470002 18.59418253 48.30883562 18.4140625 46.4609375 C17.76866908 42.62510866 16.34202279 39.13020572 14.9375 35.515625 C14.13026459 33.34954332 13.50516039 31.25217342 13 29 C12.34 29 11.68 29 11 29 Z " fill="#FBFBFB" transform="translate(1066,64)"/>
<path d="M0 0 C7.26 0 14.52 0 22 0 C22.495 3.465 22.495 3.465 23 7 C23.66 7 24.32 7 25 7 C26.19287411 10.87684087 27 13.91621923 27 18 C27.66 18 28.32 18 29 18 C29.495 21.465 29.495 21.465 30 25 C30.66 25 31.32 25 32 25 C33.19287411 28.87684087 34 31.91621923 34 36 C34.66 36 35.32 36 36 36 C36.17015625 36.6290625 36.3403125 37.258125 36.515625 37.90625 C37.94980822 42.97166307 39.63237173 47.53220835 42.08203125 52.1875 C44.12897161 56.22911841 45 59.47683479 45 64 C45.66 64 46.32 64 47 64 C48.19287411 67.87684087 49 70.91621923 49 75 C49.66 75 50.32 75 51 75 C51.6789678 76.70348171 52.34261957 78.41307179 53 80.125 C53.37125 81.07632813 53.7425 82.02765625 54.125 83.0078125 C55 86 55 86 55 92 C47.74 92 40.48 92 33 92 C32.505 88.535 32.505 88.535 32 85 C31.34 85 30.68 85 30 85 C29.01 81.04 28.02 77.08 27 73 C11.16 73.495 11.16 73.495 -5 74 C-8.72013072 82.91757646 -8.72013072 82.91757646 -12 92 C-19.26 92 -26.52 92 -34 92 C-33.67 89.69 -33.34 87.38 -33 85 C-32.34 85 -31.68 85 -31 85 C-30.855625 83.9275 -30.71125 82.855 -30.5625 81.75 C-30.16250558 79.08337051 -29.72408076 76.58600271 -29 74 C-28.34 74 -27.68 74 -27 74 C-26.855625 72.9275 -26.71125 71.855 -26.5625 70.75 C-26.16250558 68.08337051 -25.72408076 65.58600271 -25 63 C-24.34 63 -23.68 63 -23 63 C-22.67 60.69 -22.34 58.38 -22 56 C-21.34 56 -20.68 56 -20 56 C-19.34 52.37 -18.68 48.74 -18 45 C-17.34 45 -16.68 45 -16 45 C-15.87882813 44.31292969 -15.75765625 43.62585938 -15.6328125 42.91796875 C-15.46523438 42.01691406 -15.29765625 41.11585937 -15.125 40.1875 C-14.96257813 39.29417969 -14.80015625 38.40085938 -14.6328125 37.48046875 C-14 35 -14 35 -12 32 C-11.56296814 30.38634389 -11.12720567 28.77232861 -10.69921875 27.15625 C-9.83584665 24.49378408 -8.68706612 22.03426433 -7.5 19.5 C-5.56597119 15.36380269 -4.0829232 11.43014036 -3 7 C-2.34 7 -1.68 7 -1 7 C-0.67 4.69 -0.34 2.38 0 0 Z M11 29 C7.91532502 34.39459439 6.44356295 38.79011871 6 45 C5.34 45 4.68 45 4 45 C3.34 47.64 2.68 50.28 2 53 C7.61 53 13.22 53 19 53 C18.31788362 46.85571359 18.31788362 46.85571359 17 41 C16.34 41 15.68 41 15 41 C14.67 38.36 14.34 35.72 14 33 C13.34 33 12.68 33 12 33 C11.67 31.68 11.34 30.36 11 29 Z " fill="#FBFBFB" transform="translate(925,64)"/>
<path d="M0 0 C5.94 0 11.88 0 18 0 C22 4 22 4 23 7 C23.66 7.33 24.32 7.66 25 8 C25.66666667 9.66666667 26.33333333 11.33333333 27 13 C27.66 13.33 28.32 13.66 29 14 C30.57548683 16.62581138 31 17.87099787 31 21 C31.99 21.33 32.98 21.66 34 22 C38 27.37142857 38 27.37142857 38 30 C38.66 30 39.32 30 40 30 C42 33 42 33 42 36 C42.99 36.33 43.98 36.66 45 37 C45 37.99 45 38.98 45 40 C45.66 40 46.32 40 47 40 C47.33 26.8 47.66 13.6 48 0 C53.28 0 58.56 0 64 0 C64 25.08 64 50.16 64 76 C59.05 76 54.1 76 49 76 C48.34 74.35 47.68 72.7 47 71 C46.34 71 45.68 71 45 71 C43.7109375 69.35546875 43.7109375 69.35546875 42.375 67.1875 C41.92898438 66.47980469 41.48296875 65.77210938 41.0234375 65.04296875 C40 63 40 63 40 60 C38.68 59.34 37.36 58.68 36 58 C36 57.01 36 56.02 36 55 C35.01 54.67 34.02 54.34 33 54 C32.67 53.01 32.34 52.02 32 51 C31.34 50.67 30.68 50.34 30 50 C29.375 47.4375 29.375 47.4375 29 45 C27.515 44.505 27.515 44.505 26 44 C25.67 43.01 25.34 42.02 25 41 C24.34 40.67 23.68 40.34 23 40 C21.42451317 37.37418862 21 36.12900213 21 33 C20.34 33 19.68 33 19 33 C18.67 47.19 18.34 61.38 18 76 C12.06 76 6.12 76 0 76 C0 50.92 0 25.84 0 0 Z M16 29 C16 29.66 16 30.32 16 31 C16.66 31 17.32 31 18 31 C18 30.34 18 29.68 18 29 C17.34 29 16.68 29 16 29 Z " fill="#FDFDFD" transform="translate(1032,194)"/>
<path d="M0 0 C1.25586914 -0.00580078 1.25586914 -0.00580078 2.53710938 -0.01171875 C6.63339002 -0.00523216 10.44251048 0.0956162 14.4375 1.125 C14.4375 1.785 14.4375 2.445 14.4375 3.125 C15.283125 3.186875 16.12875 3.24875 17 3.3125 C21.30175154 4.32927764 24.24369561 6.08288025 27.4375 9.125 C28.875 11.9375 28.875 11.9375 29.4375 14.125 C30.0975 14.125 30.7575 14.125 31.4375 14.125 C31.9325 16.105 31.9325 16.105 32.4375 18.125 C33.0975 18.125 33.7575 18.125 34.4375 18.125 C35.72993536 22.2446377 36.70002625 25.79331683 36.4375 30.125 C37.0975 30.125 37.7575 30.125 38.4375 30.125 C38.99462265 42.18051519 38.62754419 53.80228563 31.4375 64.125 C30.7775 64.125 30.1175 64.125 29.4375 64.125 C28.4475 66.105 28.4475 66.105 27.4375 68.125 C26.7775 68.125 26.1175 68.125 25.4375 68.125 C24.9425 69.61 24.9425 69.61 24.4375 71.125 C22.375 71.8125 22.375 71.8125 20.4375 72.125 C20.4375 72.785 20.4375 73.445 20.4375 74.125 C16.9725 74.62 16.9725 74.62 13.4375 75.125 C13.4375 75.785 13.4375 76.445 13.4375 77.125 C4.59947094 78.80843411 -4.73570081 78.8178108 -13.5625 77.125 C-13.5625 76.465 -13.5625 75.805 -13.5625 75.125 C-17.0275 74.63 -17.0275 74.63 -20.5625 74.125 C-20.5625 73.465 -20.5625 72.805 -20.5625 72.125 C-21.449375 71.91875 -22.33625 71.7125 -23.25 71.5 C-27.55220065 69.71418086 -28.92346625 67.92831334 -31.5625 64.125 C-31.5625 63.135 -31.5625 62.145 -31.5625 61.125 C-32.5525 60.795 -33.5425 60.465 -34.5625 60.125 C-39.72539967 49.76466621 -40.24056096 36.27270092 -37.5625 25.125 C-36.9025 25.125 -36.2425 25.125 -35.5625 25.125 C-35.3459375 23.454375 -35.3459375 23.454375 -35.125 21.75 C-34.5625 18.125 -34.5625 18.125 -33.5625 16.125 C-32.9025 16.125 -32.2425 16.125 -31.5625 16.125 C-30.9025 14.475 -30.2425 12.825 -29.5625 11.125 C-28.9025 11.125 -28.2425 11.125 -27.5625 11.125 C-27.2325 10.135 -26.9025 9.145 -26.5625 8.125 C-24.31741957 5.31864947 -21.95203012 4.22659729 -18.5625 3.125 C-17.5725 3.125 -16.5825 3.125 -15.5625 3.125 C-15.5625 2.465 -15.5625 1.805 -15.5625 1.125 C-10.33672594 0.05435361 -5.30690375 -0.024626 0 0 Z M-5.5625 16.125 C-5.5625 16.785 -5.5625 17.445 -5.5625 18.125 C-6.985625 18.3415625 -6.985625 18.3415625 -8.4375 18.5625 C-11.4559494 18.95435399 -11.4559494 18.95435399 -13.5625 20.125 C-13.5625 20.785 -13.5625 21.445 -13.5625 22.125 C-14.2225 22.125 -14.8825 22.125 -15.5625 22.125 C-21.34534128 32.23824801 -20.63356871 39.89672665 -18.5625 51.125 C-17.9025 51.125 -17.2425 51.125 -16.5625 51.125 C-16.48 51.7025 -16.3975 52.28 -16.3125 52.875 C-15.28503135 55.95740595 -14.17990284 57.17872609 -11.5625 59.125 C-8.86029632 59.75017523 -6.34757424 59.93932838 -3.5625 60.125 C-3.5625 60.785 -3.5625 61.445 -3.5625 62.125 C1.85789575 62.53152968 5.50765675 61.16493514 10.4375 59.125 C10.4375 58.465 10.4375 57.805 10.4375 57.125 C11.7575 56.465 13.0775 55.805 14.4375 55.125 C14.4375 54.465 14.4375 53.805 14.4375 53.125 C15.0975 53.125 15.7575 53.125 16.4375 53.125 C16.64246094 52.41472656 16.84742188 51.70445312 17.05859375 50.97265625 C17.32800781 50.05355469 17.59742188 49.13445312 17.875 48.1875 C18.14183594 47.27097656 18.40867187 46.35445312 18.68359375 45.41015625 C19.4375 43.125 19.4375 43.125 20.4375 42.125 C20.75111799 37.62980887 20.01022648 34.31893727 18.4375 30.125 C18.19 29.114375 17.9425 28.10375 17.6875 27.0625 C16.02790031 23.16244074 13.90523075 21.50481522 10.4375 19.125 C7.71636497 18.25957301 7.71636497 18.25957301 5.4375 18.125 C5.4375 17.465 5.4375 16.805 5.4375 16.125 C1.8075 16.125 -1.8225 16.125 -5.5625 16.125 Z " fill="#FAFAFA" transform="translate(981.5625,192.875)"/>
<path d="M0 0 C2.18268319 1.89650917 3.37985282 3.54364783 5 6 C6.1446875 7.0828125 6.1446875 7.0828125 7.3125 8.1875 C9 10 9 10 9 13 C9.66 13 10.32 13 11 13 C12.80230168 16.82989106 13.19622241 19.78121808 13 24 C13.66 24 14.32 24 15 24 C15 30.6 15 37.2 15 44 C14.34 44 13.68 44 13 44 C12.855625 45.258125 12.71125 46.51625 12.5625 47.8125 C12.26251314 50.42667123 11.84186703 52.47439892 11 55 C10.34 55 9.68 55 9 55 C8.938125 55.556875 8.87625 56.11375 8.8125 56.6875 C7.65848693 59.97199875 5.52599863 61.65442984 3 64 C2.195625 64.8971875 2.195625 64.8971875 1.375 65.8125 C0 67 0 67 -3 67 C-3 67.66 -3 68.32 -3 69 C-6.465 69.495 -6.465 69.495 -10 70 C-10 70.66 -10 71.32 -10 72 C-18.57739795 73.59579497 -27.43095805 73.62360795 -36 72 C-36 71.34 -36 70.68 -36 70 C-39.465 69.505 -39.465 69.505 -43 69 C-43 68.34 -43 67.68 -43 67 C-44.051875 66.79375 -45.10375 66.5875 -46.1875 66.375 C-50.71503664 65.08010615 -52.41235959 62.88146061 -55 59 C-55.8125 56.125 -55.8125 56.125 -56 54 C-56.66 54 -57.32 54 -58 54 C-61.19242799 47.05993916 -62.1406566 41.20304801 -62.125 33.5 C-62.12757813 32.2315625 -62.13015625 30.963125 -62.1328125 29.65625 C-62.0123121 26.33894482 -61.6326624 23.25369236 -61 20 C-60.34 20 -59.68 20 -59 20 C-58.67 17.69 -58.34 15.38 -58 13 C-57.34 13 -56.68 13 -56 13 C-55.7525 11.7315625 -55.7525 11.7315625 -55.5 10.4375 C-52.56002424 3.70005555 -46.41442103 -0.14670139 -39.95703125 -3.2734375 C-27.86246564 -7.76363551 -11.01587321 -6.57177483 0 0 Z M-37 15 C-37 15.66 -37 16.32 -37 17 C-37.66 17 -38.32 17 -39 17 C-44.19528014 24.63056771 -44.05007175 33.07553896 -43 42 C-41.62186221 47.64302574 -38.64933098 50.95980533 -33.79296875 54.03515625 C-29.22953616 56.49085962 -25.1660689 57.52714989 -20 57 C-17.56268676 56.14817133 -15.33505273 55.12082531 -13 54 C-13 53.34 -13 52.68 -13 52 C-12.2575 51.814375 -11.515 51.62875 -10.75 51.4375 C-6.33007084 49.12708248 -4.71568719 45.26634278 -3.25 40.625 C-2.38019911 31.49209063 -3.70089265 25.20738676 -8 17 C-8.66 17 -9.32 17 -10 17 C-10.495 15.515 -10.495 15.515 -11 14 C-19.74430966 8.86747042 -28.55482329 9.90102538 -37 15 Z " fill="#FAFAFA" transform="translate(658,198)"/>
<path d="M0 0 C2.625 2.1875 2.625 2.1875 3.625 5.1875 C4.615 5.5175 5.605 5.8475 6.625 6.1875 C8.57004983 12.0226495 8.09077787 18.62572174 7 24.625 C4.52237561 29.24239091 0.40143795 32.16669933 -4.375 34.1875 C-4.375 35.5075 -4.375 36.8275 -4.375 38.1875 C-3.055 38.8475 -1.735 39.5075 -0.375 40.1875 C-0.375 40.8475 -0.375 41.5075 -0.375 42.1875 C1.605 42.1875 3.585 42.1875 5.625 42.1875 C5.7075 41.671875 5.79 41.15625 5.875 40.625 C6.94640225 37.14294268 8.76023605 34.31549115 10.625 31.1875 C14.255 31.1875 17.885 31.1875 21.625 31.1875 C22.16915041 37.93496513 21.21357519 41.92373388 17.9140625 47.828125 C15.45031368 52.27353049 15.45031368 52.27353049 14.625 57.1875 C15.615 57.5175 16.605 57.8475 17.625 58.1875 C19.8125 60.125 19.8125 60.125 21.625 62.1875 C21.625 62.8475 21.625 63.5075 21.625 64.1875 C23.605 65.1775 23.605 65.1775 25.625 66.1875 C25.625 66.8475 25.625 67.5075 25.625 68.1875 C27.605 69.1775 27.605 69.1775 29.625 70.1875 C29.625 71.8375 29.625 73.4875 29.625 75.1875 C24.015 75.1875 18.405 75.1875 12.625 75.1875 C12.625 74.5275 12.625 73.8675 12.625 73.1875 C11.635 72.8575 10.645 72.5275 9.625 72.1875 C7.4375 70.25 7.4375 70.25 5.625 68.1875 C5.625 67.5275 5.625 66.8675 5.625 66.1875 C1.85245547 66.69730331 0.17512877 67.39450182 -2.375 70.1875 C-3.035 70.1875 -3.695 70.1875 -4.375 70.1875 C-4.375 70.8475 -4.375 71.5075 -4.375 72.1875 C-6.85 72.6825 -6.85 72.6825 -9.375 73.1875 C-9.375 73.8475 -9.375 74.5075 -9.375 75.1875 C-15.78154045 76.46880809 -21.98124381 76.78593905 -28.375 75.1875 C-28.375 74.5275 -28.375 73.8675 -28.375 73.1875 C-30.025 72.8575 -31.675 72.5275 -33.375 72.1875 C-33.375 71.5275 -33.375 70.8675 -33.375 70.1875 C-33.98859375 70.08566406 -34.6021875 69.98382813 -35.234375 69.87890625 C-37.375 69.1875 -37.375 69.1875 -39.625 66.125 C-42.68744025 59.41679755 -42.90688808 49.56526638 -40.46875 42.59765625 C-39.375 40.6875 -39.375 40.6875 -37.375 38.1875 C-36.715 38.1875 -36.055 38.1875 -35.375 38.1875 C-35.148125 37.61 -34.92125 37.0325 -34.6875 36.4375 C-33.04461977 33.6211339 -30.97966773 32.10672886 -28.375 30.1875 C-28.82875 29.465625 -29.2825 28.74375 -29.75 28 C-32.99311451 22.38691719 -33.59215118 18.59345973 -33.375 12.1875 C-32.715 12.1875 -32.055 12.1875 -31.375 12.1875 C-31.519375 11.48625 -31.66375 10.785 -31.8125 10.0625 C-31.2027706 6.05570677 -29.12314659 4.9077981 -26.00390625 2.51953125 C-24.24333905 1.26525666 -24.24333905 1.26525666 -23.375 -0.8125 C-16.97017594 -3.2279446 -6.075879 -3.32334091 0 0 Z M-16.1875 11.4375 C-18.59501004 13.85499698 -18.59501004 13.85499698 -18.3125 16.125 C-18.003125 16.805625 -17.69375 17.48625 -17.375 18.1875 C-17.024375 19.26 -16.67375 20.3325 -16.3125 21.4375 C-15.8484375 22.79875 -15.8484375 22.79875 -15.375 24.1875 C-12.59288056 23.81153791 -10.7870716 23.51431541 -8.5625 21.75 C-7.17330558 20.24920257 -7.17330558 20.24920257 -7.375 18.1875 C-6.715 18.1875 -6.055 18.1875 -5.375 18.1875 C-5.00705236 14.87597126 -5.07690785 13.58140748 -7.125 10.875 C-10.79437167 8.12297125 -12.72338428 8.66620742 -16.1875 11.4375 Z M-22.5 43.9375 C-25.42103189 47.44273827 -26.63136676 49.34284685 -26.5 53.875 C-26.48195313 54.68324219 -26.46390625 55.49148437 -26.4453125 56.32421875 C-26.42210937 56.93910156 -26.39890625 57.55398437 -26.375 58.1875 C-25.715 58.1875 -25.055 58.1875 -24.375 58.1875 C-24.148125 58.80625 -23.92125 59.425 -23.6875 60.0625 C-21.99570165 62.80160209 -20.38255839 63.23774472 -17.375 64.1875 C-17.375 63.5275 -17.375 62.8675 -17.375 62.1875 C-16.4675 62.105 -15.56 62.0225 -14.625 61.9375 C-10.93614062 61.08622476 -9.56271055 60.25029477 -7.375 57.1875 C-7.375 53.36483883 -10.01354832 50.99172387 -12.375 48.1875 C-12.705 47.5275 -13.035 46.8675 -13.375 46.1875 C-14.035 46.1875 -14.695 46.1875 -15.375 46.1875 C-15.705 45.1975 -16.035 44.2075 -16.375 43.1875 C-19.25526258 41.69770901 -19.96903371 41.85317482 -22.5 43.9375 Z " fill="#FAFAFA" transform="translate(334.375,194.8125)"/>
<path d="M0 0 C23.1 0 46.2 0 70 0 C70 6.27 70 12.54 70 19 C62.08 19 54.16 19 46 19 C46 43.09 46 67.18 46 92 C38.74 92 31.48 92 24 92 C24 67.91 24 43.82 24 19 C16.08 19 8.16 19 0 19 C0 12.73 0 6.46 0 0 Z " fill="#FDFDFD" transform="translate(695,64)"/>
<path d="M0 0 C5.94 0 11.88 0 18 0 C18.02505615 1.48322754 18.0501123 2.96645508 18.07592773 4.49462891 C18.17023266 10.00740926 18.27039683 15.5200704 18.37231445 21.03271484 C18.41557604 23.41680102 18.4572572 25.80091643 18.49731445 28.18505859 C18.5552298 31.61564943 18.6188629 35.04609432 18.68359375 38.4765625 C18.70030624 39.53928375 18.71701874 40.602005 18.73423767 41.69692993 C18.831176 46.55999847 18.99313604 51.22008353 20 56 C20.66 56 21.32 56 22 56 C22.33 56.66 22.66 57.32 23 58 C25.02463255 58.65213292 25.02463255 58.65213292 27 59 C27 59.66 27 60.32 27 61 C29.31 61 31.62 61 34 61 C34 60.34 34 59.68 34 59 C36.97 58.505 36.97 58.505 40 58 C40.66 55.36 41.32 52.72 42 50 C42.66 50 43.32 50 44 50 C44 33.5 44 17 44 0 C49.94 0 55.88 0 62 0 C62.09922689 7.5255961 62.17163956 15.05080733 62.21972656 22.5769043 C62.23978303 25.13458901 62.26703505 27.69222821 62.30175781 30.24975586 C62.35053672 33.93614975 62.37302945 37.62193484 62.390625 41.30859375 C62.41127014 42.44332626 62.43191528 43.57805878 62.45318604 44.74717712 C62.45514544 51.75430444 61.455924 56.88657265 58 63 C57.360625 64.134375 56.72125 65.26875 56.0625 66.4375 C53.8413086 69.19716204 52.37304957 70.06304179 49 71 C49 71.66 49 72.32 49 73 C39.43676626 77.48886482 29.3364257 78.1055682 19 76 C16.59369907 75.11122873 14.32619086 74.09188551 12 73 C12 72.34 12 71.68 12 71 C10.35 70.34 8.7 69.68 7 69 C7 68.34 7 67.68 7 67 C6.34 67 5.68 67 5 67 C3.23537317 63.91190305 3 62.76687864 3 59 C2.34 59 1.68 59 1 59 C0.18257039 55.42664606 -0.1221027 52.13785349 -0.11352539 48.4753418 C-0.11344986 47.39459885 -0.11337433 46.3138559 -0.11329651 45.20036316 C-0.10813522 44.0449855 -0.10297394 42.88960785 -0.09765625 41.69921875 C-0.0962413 40.50770706 -0.09482635 39.31619537 -0.09336853 38.08857727 C-0.08777728 34.28819249 -0.07522632 30.48786693 -0.0625 26.6875 C-0.05748387 24.10872481 -0.05292116 21.5299487 -0.04882812 18.95117188 C-0.0378107 12.63409182 -0.02055201 6.31705594 0 0 Z " fill="#FDFDFD" transform="translate(466,194)"/>
<path d="M0 0 C5.61 0 11.22 0 17 0 C20 6 20 6 20 10 C20.66 10 21.32 10 22 10 C22.18175781 10.56847656 22.36351562 11.13695312 22.55078125 11.72265625 C23.78117943 15.50218706 25.03573468 19.19434738 26.6875 22.8125 C28 26 28 26 28 30 C28.66 30 29.32 30 30 30 C30.495 33.465 30.495 33.465 31 37 C31.66 37 32.32 37 33 37 C34.19287411 40.87684087 35 43.91621923 35 48 C35.66 48 36.32 48 37 48 C38.19287411 51.87684087 39 54.91621923 39 59 C39.66 59 40.32 59 41 59 C41.495 62.465 41.495 62.465 42 66 C42.66 66 43.32 66 44 66 C44.99 70.95 44.99 70.95 46 76 C39.73 76 33.46 76 27 76 C26.505 72.535 26.505 72.535 26 69 C25.34 69 24.68 69 24 69 C23.34 66.03 22.68 63.06 22 60 C13.42 60.33 4.84 60.66 -4 61 C-4.99 63.64 -5.98 66.28 -7 69 C-7.66 69 -8.32 69 -9 69 C-9.33 71.31 -9.66 73.62 -10 76 C-16.27 76 -22.54 76 -29 76 C-28.67 74.02 -28.34 72.04 -28 70 C-27.34 70 -26.68 70 -26 70 C-25.855625 68.9275 -25.71125 67.855 -25.5625 66.75 C-25.16250558 64.08337051 -24.72408076 61.58600271 -24 59 C-23.34 59 -22.68 59 -22 59 C-21.67 56.69 -21.34 54.38 -21 52 C-20.34 52 -19.68 52 -19 52 C-18.9175 51.05125 -18.835 50.1025 -18.75 49.125 C-18.16641541 45.03168839 -16.71008986 41.49544225 -15.1171875 37.69921875 C-12.85050838 32.22273178 -10.87405581 26.62216743 -9 21 C-8.34 21 -7.68 21 -7 21 C-6.896875 19.989375 -6.79375 18.97875 -6.6875 17.9375 C-5.98139756 13.89345875 -4.68686926 10.72516962 -3 7 C-2.62691369 5.67723944 -2.26953585 4.34767923 -2 3 C-1.34 3 -0.68 3 0 3 C0 2.01 0 1.02 0 0 Z M8 23 C6.07528683 28.33835539 4.60108576 33.34979382 4 39 C3.34 39 2.68 39 2 39 C1.67 40.98 1.34 42.96 1 45 C5.95 45 10.9 45 16 45 C15.23184262 39.10245205 15.23184262 39.10245205 13.5 33.8125 C12.44728831 31.22809279 11.62756253 28.72144905 11 26 C10.34 26 9.68 26 9 26 C8.67 25.01 8.34 24.02 8 23 Z " fill="#FBFBFB" transform="translate(802,194)"/>
<path d="M0 0 C5.61 0 11.22 0 17 0 C17 0.99 17 1.98 17 3 C17.66 3 18.32 3 19 3 C20.19287411 6.87684087 21 9.91621923 21 14 C21.66 14 22.32 14 23 14 C23.495 17.465 23.495 17.465 24 21 C24.66 21 25.32 21 26 21 C27.19287411 24.87684087 28 27.91621923 28 32 C28.66 32 29.32 32 30 32 C30.19335938 32.68707031 30.38671875 33.37414062 30.5859375 34.08203125 C30.97652344 35.43361328 30.97652344 35.43361328 31.375 36.8125 C31.75785156 38.15248047 31.75785156 38.15248047 32.1484375 39.51953125 C32.95266661 42.20467896 32.95266661 42.20467896 35 45 C35.125 47.6875 35.125 47.6875 35 50 C35.66 50 36.32 50 37 50 C37.18175781 50.64066406 37.36351562 51.28132813 37.55078125 51.94140625 C39.29103694 57.9296707 41.13220326 63.65762689 44.1875 69.125 C45 71 45 71 45 76 C39.06 76 33.12 76 27 76 C26.67 74.02 26.34 72.04 26 70 C25.34 70 24.68 70 24 70 C23.505 66.04 23.505 66.04 23 62 C22.34 62 21.68 62 21 62 C21 61.34 21 60.68 21 60 C12.09 60 3.18 60 -6 60 C-6.33 62.31 -6.66 64.62 -7 67 C-7.66 67 -8.32 67 -9 67 C-9.2165625 68.9490625 -9.2165625 68.9490625 -9.4375 70.9375 C-9.875 74.875 -9.875 74.875 -11 76 C-12.34267413 76.08631874 -13.68974322 76.10706473 -15.03515625 76.09765625 C-15.84404297 76.09443359 -16.65292969 76.09121094 -17.48632812 76.08789062 C-18.33646484 76.07951172 -19.18660156 76.07113281 -20.0625 76.0625 C-20.91650391 76.05798828 -21.77050781 76.05347656 -22.65039062 76.04882812 C-24.76695663 76.03700373 -26.88348685 76.01906769 -29 76 C-28.45586911 71.41211741 -27.58823237 67.37570392 -25.9375 63.0625 C-25.57527344 62.10472656 -25.21304687 61.14695313 -24.83984375 60.16015625 C-24.42412109 59.09087891 -24.42412109 59.09087891 -24 58 C-23.34 58 -22.68 58 -22 58 C-21.89042969 57.3709375 -21.78085937 56.741875 -21.66796875 56.09375 C-20.61797995 50.42551776 -19.15616596 45.34354172 -17 40 C-16.67 39.01 -16.34 38.02 -16 37 C-15.34 37 -14.68 37 -14 37 C-13.67 34.69 -13.34 32.38 -13 30 C-12.34 30 -11.68 30 -11 30 C-10.938125 29.113125 -10.87625 28.22625 -10.8125 27.3125 C-9.96139157 21.24372686 -7.26859852 15.64721466 -5 10 C-4.3902618 8.39794277 -3.78499577 6.79416327 -3.1875 5.1875 C-2.795625 4.135625 -2.40375 3.08375 -2 2 C-1.34 2 -0.68 2 0 2 C0 1.34 0 0.68 0 0 Z M8 23 C8 23.99 8 24.98 8 26 C7.34 26 6.68 26 6 26 C4.80712589 29.87684087 4 32.91621923 4 37 C3.34 37 2.68 37 2 37 C1.67 39.31 1.34 41.62 1 44 C5.95 44 10.9 44 16 44 C15.67 42.35 15.34 40.7 15 39 C14.34 39 13.68 39 13 39 C12.67 36.03 12.34 33.06 12 30 C11.34 30 10.68 30 10 30 C9.67 27.69 9.34 25.38 9 23 C8.67 23 8.34 23 8 23 Z " fill="#FBFBFB" transform="translate(417,194)"/>
<path d="M0 0 C22.77 0 45.54 0 69 0 C70.20693821 3.62081463 70.10782079 6.9250719 70.0625 10.6875 C70.041875 13.100625 70.02125 15.51375 70 18 C61.75 18 53.5 18 45 18 C45 42.42 45 66.84 45 92 C38.4 92 31.8 92 25 92 C24.05043923 88.20175691 23.88501893 85.31556856 23.90234375 81.42724609 C23.90380402 80.77638535 23.90526428 80.1255246 23.9067688 79.4549408 C23.91056454 78.04664726 23.91667027 76.63835845 23.92483521 75.23008347 C23.93761801 73.00287673 23.94411893 70.77572966 23.94897461 68.54849243 C23.96039012 63.82396812 23.97964458 59.09949314 24 54.375 C24.02357915 48.8934019 24.04396787 43.41183165 24.05593872 37.93019485 C24.0624343 35.73315957 24.07493991 33.53620977 24.08764648 31.33920288 C24.09127773 29.99745763 24.09462962 28.65571159 24.09765625 27.31396484 C24.10289307 26.14022308 24.10812988 24.96648132 24.11352539 23.75717163 C24.1903497 21.03900065 24.1903497 21.03900065 23 19 C11.615 18.505 11.615 18.505 0 18 C-0.185625 15.40125 -0.37125 12.8025 -0.5625 10.125 C-0.62381104 9.30789551 -0.68512207 8.49079102 -0.74829102 7.64892578 C-1.11111111 2.22222222 -1.11111111 2.22222222 0 0 Z " fill="#FEFEFE" transform="translate(973,64)"/>
<path d="M0 0 C19.47 0 38.94 0 59 0 C59 15 59 15 58 17 C51.73 17 45.46 17 39 17 C39 36.47 39 55.94 39 76 C33.06 76 27.12 76 21 76 C21 56.53 21 37.06 21 17 C14.4 17 7.8 17 1 17 C0.67 16.67 0.34 16.34 0 16 C0 10.72 0 5.44 0 0 Z " fill="#FAFAFA" transform="translate(844,194)"/>
<path d="M0 0 C18.48 0 36.96 0 56 0 C58.2342216 4.4684432 58.2342216 4.4684432 57.5625 8.0625 C56.71583303 11.89285508 56.71583303 11.89285508 58 15 C57.34 15 56.68 15 56 15 C56 15.66 56 16.32 56 17 C50.06 17 44.12 17 38 17 C37.67 36.47 37.34 55.94 37 76 C31.06 76 25.12 76 19 76 C19 56.53 19 37.06 19 17 C14.05 17 9.1 17 4 17 C2.68 16.67 1.36 16.34 0 16 C0 10.72 0 5.44 0 0 Z " fill="#F9F9F9" transform="translate(537,194)"/>
<path d="M0 0 C6.6 0 13.2 0 20 0 C20 30.03 20 60.06 20 91 C13.4 91 6.8 91 0 91 C-0.80380661 86.17716031 -1.14282644 81.78777896 -1.12939453 76.94677734 C-1.13114685 76.16228714 -1.13289917 75.37779694 -1.13470459 74.5695343 C-1.13908492 71.99164581 -1.13619917 69.41382661 -1.1328125 66.8359375 C-1.1334865 65.03805529 -1.13445733 63.24017316 -1.13571167 61.44229126 C-1.13718335 57.68157073 -1.1350506 53.92087401 -1.13037109 50.16015625 C-1.1246659 45.34039103 -1.12796116 40.5206814 -1.13394356 35.7009182 C-1.13755644 31.99148133 -1.13640737 28.28205766 -1.13381577 24.57262039 C-1.13314894 22.795213 -1.13396639 21.0178044 -1.13629532 19.24039841 C-1.13883465 16.75837781 -1.1349635 14.27644747 -1.12939453 11.79443359 C-1.13243088 10.69402992 -1.13243088 10.69402992 -1.13552856 9.57139587 C-1.12123236 6.13211229 -0.84243352 3.36973407 0 0 Z " fill="#FDFDFD" transform="translate(480,65)"/>
<path d="M0 0 C6.27 0 12.54 0 19 0 C19 25.08 19 50.16 19 76 C13.06 76 7.12 76 1 76 C-0.66165207 74.33834793 -0.11959725 72.3348397 -0.12442017 70.11598206 C-0.12082489 69.41827194 -0.11722961 68.72056183 -0.11352539 68.00170898 C-0.11367142 67.27004517 -0.11381744 66.53838135 -0.1139679 65.7845459 C-0.11326867 63.35503216 -0.10547585 60.92559417 -0.09765625 58.49609375 C-0.0957921 56.81600486 -0.09436819 55.13591543 -0.09336853 53.45582581 C-0.08954307 49.02526357 -0.07971256 44.5947339 -0.06866455 40.16418457 C-0.05845103 35.64657024 -0.05387104 31.12895066 -0.04882812 26.61132812 C-0.03809031 17.74086877 -0.02049329 8.87044219 0 0 Z " fill="#FAFAFA" transform="translate(913,194)"/>
</svg>
