<?xml version="1.0" encoding="UTF-8"?>
<svg version="1.1" xmlns="http://www.w3.org/2000/svg" width="1024" height="1024">
<path d="M0 0 C1.4216868 4.26506039 -0.34613318 7.20037743 -1.9375 11.1875 C-2.37352539 12.31188477 -2.37352539 12.31188477 -2.81835938 13.45898438 C-3.53725036 15.30924477 -4.26754653 17.15506648 -5 19 C-4.48091064 19.49290527 -3.96182129 19.98581055 -3.42700195 20.49365234 C-1.04189786 22.77366819 1.32266202 25.073978 3.6875 27.375 C4.50412109 28.14972656 5.32074219 28.92445313 6.16210938 29.72265625 C12.91369429 36.33756941 17.7733118 42.83129713 18.6875 52.4375 C19.61845299 58.68191109 22.95457441 61.87364547 27.2890625 66.2578125 C29.85739219 68.85574829 32.15177978 71.52816435 34.4375 74.375 C36.87620135 77.40924874 39.33810449 80.40754095 41.90234375 83.3359375 C42.39613525 83.90393066 42.88992676 84.47192383 43.39868164 85.05712891 C44.35307554 86.15151741 45.31409195 87.24018103 46.28295898 88.32177734 C52.57972536 95.57832531 54.00303082 102.95539341 53.5859375 112.25 C52.98825404 116.07517413 52.61748433 117.44355858 49.8125 120 C48.24093691 121.05049519 46.63140884 122.04508854 45 123 C43.97390625 123.72058594 42.9478125 124.44117188 41.890625 125.18359375 C31.48544791 132.37590634 31.48544791 132.37590634 25.04296875 131.71875 C20.85834206 130.24652952 18.09130299 127.06146416 15 124 C5.25584999 115.62003099 -3.59741877 111.89879883 -16.08789062 109.51879883 C-22.07584625 108.32966325 -27.06062596 106.70992286 -32 103 C-33.20076172 102.14148438 -33.20076172 102.14148438 -34.42578125 101.265625 C-37.49876234 98.56102859 -39.56946906 95.64626981 -41.8125 92.25 C-42.21919922 91.64800781 -42.62589844 91.04601562 -43.04492188 90.42578125 C-44.0369617 88.95522809 -45.01947888 87.47825841 -46 86 C-41.00756901 105.50459063 -29.45047676 117.7002087 -14 130 C-13.10667969 130.71285156 -12.21335937 131.42570313 -11.29296875 132.16015625 C-10.45378906 132.82917969 -9.61460937 133.49820313 -8.75 134.1875 C-7.16611427 135.45764479 -5.58274732 136.7284369 -4 138 C-2.95199219 138.82371094 -2.95199219 138.82371094 -1.8828125 139.6640625 C12.59707404 151.55221837 18.92195707 167.8884298 21 186 C21.26407326 189.50462947 21.48828216 193.00509714 21.65625 196.515625 C21.93729285 199.36437755 22.38653538 201.93907946 23.02148438 204.71777344 C23.29526917 205.92358063 23.29526917 205.92358063 23.57458496 207.15374756 C23.71497192 207.76301086 23.85535889 208.37227417 24 209 C9.66386033 209.02354891 -4.67227627 209.04101877 -19.00843143 209.05181217 C-25.66765612 209.05692907 -32.3268662 209.06401165 -38.98608398 209.07543945 C-45.43114282 209.08642857 -51.87618915 209.09231022 -58.32125664 209.09487724 C-60.76119623 209.09670298 -63.20113525 209.10026693 -65.64106941 209.10573006 C-81.12266986 209.13896645 -96.5394201 208.82883296 -112 208 C-111.76941895 207.21294678 -111.53883789 206.42589355 -111.30126953 205.61499023 C-106.27644016 187.64839282 -107.73717842 166.99550724 -112 149 C-112.42712397 147.12139853 -112.8528085 145.24246942 -113.27734375 143.36328125 C-113.93451844 140.45855482 -114.59681094 137.55602525 -115.28588867 134.65869141 C-115.49318604 133.78003418 -115.7004834 132.90137695 -115.9140625 131.99609375 C-116.0992041 131.22450928 -116.2843457 130.4529248 -116.47509766 129.65795898 C-117.70900438 123.40979969 -118.16429202 117.26565593 -118.203125 110.90625 C-118.21167511 109.78156311 -118.21167511 109.78156311 -118.22039795 108.63415527 C-118.22978285 107.05429464 -118.23635577 105.474415 -118.24023438 103.89453125 C-118.24986344 101.533485 -118.28091686 99.17334001 -118.3125 96.8125 C-118.49559095 70.58347679 -110.87215744 45.57426767 -93 26 C-92.01193359 24.90751953 -92.01193359 24.90751953 -91.00390625 23.79296875 C-67.34041848 -1.10844796 -32.32461454 -5.41159466 0 0 Z M-79 39 C-95.61922819 57.23867375 -100.22125799 81.74446368 -100.375 105.6875 C-100.37989441 106.38653442 -100.38478882 107.08556885 -100.38983154 107.80578613 C-100.42929376 121.55817223 -98.48485848 134.47489006 -95.62939453 147.93847656 C-93.9406509 156.15292386 -92.74002914 164.41168631 -91.875 172.75 C-91.78863281 173.554375 -91.70226562 174.35875 -91.61328125 175.1875 C-91.40572758 177.12466756 -91.20238352 179.06228547 -91 181 C-90.67 181 -90.34 181 -90 181 C-87.02780656 165.97980817 -87.69707006 151.8038917 -89.5 136.6875 C-93.30237394 104.18019245 -93.02225035 70.44374694 -73 43 C-68.4346692 37.26248968 -63.18529906 32.16781069 -58 27 C-57.401875 26.401875 -56.80375 25.80375 -56.1875 25.1875 C-55.795625 24.795625 -55.40375 24.40375 -55 24 C-63.40229103 24 -73.30835282 33.53635649 -79 39 Z M-6 57 C-2.71031857 61.25723479 0.23763418 64.30822801 5 67 C5.99 67 6.98 67 8 67 C8.33 65.02 8.66 63.04 9 61 C7.25307205 60.32532438 5.50231475 59.66055844 3.75 59 C2.28820312 58.443125 2.28820312 58.443125 0.796875 57.875 C-2.14783138 56.80094762 -2.14783138 56.80094762 -6 57 Z " fill="#061529" transform="translate(261,368)"/>
<path d="M0 0 C1.22655304 -0.01857559 2.45310608 -0.03715118 3.71682739 -0.05628967 C5.07850512 -0.06162069 6.44018433 -0.0665826 7.80186462 -0.07121277 C9.23435225 -0.08673658 10.66682758 -0.10343304 12.09928894 -0.12121582 C15.99426723 -0.16486636 19.88910502 -0.1883151 23.78428197 -0.20544267 C26.22015568 -0.21646133 28.65598989 -0.23074742 31.09184074 -0.24596214 C38.7196502 -0.29237294 46.34736542 -0.32592788 53.97529989 -0.34197789 C62.76793517 -0.36068742 71.55890022 -0.42200148 80.35099608 -0.52047998 C87.15373091 -0.59402971 93.95599411 -0.62886607 100.75912088 -0.63484114 C104.81891669 -0.63927666 108.87706166 -0.6598445 112.93643379 -0.72094154 C116.76134119 -0.77746525 120.58343505 -0.78561408 124.40863037 -0.75790215 C125.80582922 -0.75587669 127.20317928 -0.77069804 128.59997368 -0.80437469 C134.55924204 -0.93968346 139.23475439 -0.93490373 144.17835808 2.62809181 C152.91251725 11.21065312 152.91251725 11.21065312 153.35289001 15.78816223 C153.33717957 17.14711609 153.33717957 17.14711609 153.32115173 18.53352356 C153.31148376 20.00788879 153.31148376 20.00788879 153.30162048 21.51203918 C153.27648376 23.04827942 153.27648376 23.04827942 153.25083923 24.61555481 C153.2418158 25.65131653 153.23279236 26.68707825 153.22349548 27.75422668 C153.19991783 30.31240166 153.16700954 32.87011229 153.12583923 35.42805481 C149.64887017 36.21757816 146.45546724 36.54871024 142.89297485 36.53340149 C141.86219975 36.53132942 140.83142466 36.52925735 139.76941395 36.5271225 C138.09092381 36.51578907 138.09092381 36.51578907 136.37852478 36.50422668 C135.19041797 36.500075 134.00231115 36.49592331 132.7782011 36.49164581 C128.8940292 36.4761891 125.00996256 36.45276725 121.12583923 36.42805481 C118.52929187 36.41379836 115.93274443 36.3995569 113.3361969 36.3853302 C105.66408762 36.34017006 97.9920796 36.28424559 90.32005906 36.22612572 C86.49650989 36.19737733 82.67295238 36.16978014 78.84939575 36.14204407 C71.65730604 36.08970629 64.46522402 36.03638133 57.27314442 35.98267221 C49.06469954 35.92142336 40.85624638 35.86131989 32.64779246 35.80129719 C15.80713208 35.67812831 -1.03351772 35.55357126 -17.87416077 35.42805481 C-17.99995649 31.71482299 -18.0762102 28.00214296 -18.14369202 24.28742981 C-18.17982605 23.23861633 -18.21596008 22.18980286 -18.25318909 21.10920715 C-18.37233922 12.37153039 -18.37233922 12.37153039 -15.85267639 8.92414856 C-13.64570177 6.76044795 -11.4690514 5.09523843 -8.87416077 3.42805481 C-8.24342069 2.6538417 -8.24342069 2.6538417 -7.59993839 1.86398792 C-5.09976825 -0.21627841 -3.22351181 0.03084724 0 0 Z " fill="#061528" transform="translate(149.87416076660156,584.5719451904297)"/>
<path d="M0 0 C15 0 15 0 18.8515625 3.26953125 C19.82870492 4.75041893 20.75172873 6.26808007 21.625 7.8125 C22.39021973 9.00830688 22.39021973 9.00830688 23.17089844 10.22827148 C24.25199105 11.91891981 25.31286397 13.62264614 26.35449219 15.33789062 C28.60766857 18.98308873 31.04066774 22.49153337 33.48193359 26.01245117 C35.64628966 29.1340611 37.77355734 32.28007529 39.89941406 35.42797852 C40.90902475 36.96692925 40.90902475 36.96692925 42 38 C42 25.46 42 12.92 42 0 C46.62 0 51.24 0 56 0 C56 21.45 56 42.9 56 65 C43 65 43 65 40 62.82421875 C39.34 61.78910156 38.68 60.75398438 38 59.6875 C37.61884033 59.1200708 37.23768066 58.5526416 36.8449707 57.96801758 C36.00035682 56.70419395 35.17477264 55.42750529 34.36572266 54.140625 C32.85869183 51.77851447 31.27320104 49.48394358 29.66796875 47.1875 C27.42008054 43.96416644 25.18442056 40.7340355 22.98046875 37.48046875 C22.52567139 36.80910889 22.07087402 36.13774902 21.60229492 35.44604492 C19.34514821 32.00031082 17.18317074 28.49307318 15 25 C15 38.2 15 51.4 15 65 C10.05 65 5.1 65 0 65 C0 43.55 0 22.1 0 0 Z " fill="#051428" transform="translate(411,414)"/>
<path d="M0 0 C38.79814385 0 38.79814385 0 48.97265625 8.68359375 C55.88014174 15.73773498 58.17100717 24.37313051 58.5 34.0625 C58.20961459 42.83213939 56.00097718 51.02818471 49.8203125 57.50390625 C35.84227509 68.99229322 16.91920412 66 0 66 C0 44.22 0 22.44 0 0 Z M15 13 C13.75188549 16.74434353 13.85692066 20.2333017 13.8671875 24.1328125 C13.86623077 24.9252536 13.86527405 25.7176947 13.86428833 26.53414917 C13.86360841 28.20684895 13.86544958 29.87955139 13.86962891 31.55224609 C13.87499401 34.12212998 13.86967032 36.69184021 13.86328125 39.26171875 C13.86394179 40.88541705 13.86522244 42.50911525 13.8671875 44.1328125 C13.86516327 44.90569611 13.86313904 45.67857971 13.86105347 46.47488403 C13.54627888 50.03223741 13.54627888 50.03223741 15 53 C23.74699 53.72774957 30.49566128 53.03553262 37.875 48.0625 C42.33661507 43.7321089 42.62483088 39.11047594 43.02734375 33.109375 C42.97517426 27.17695818 41.37886176 22.86551885 37.875 18.125 C30.79956962 12.89533407 23.56964332 12.56751333 15 13 Z " fill="#061526" transform="translate(721,413)"/>
<path d="M0 0 C0.41765625 0.44214844 0.8353125 0.88429688 1.265625 1.33984375 C-0.14282218 4.5550868 -1.83782286 6.66168243 -4.359375 9.08984375 C-4.99101563 9.7034375 -5.62265625 10.31703125 -6.2734375 10.94921875 C-6.75554688 11.408125 -7.23765625 11.86703125 -7.734375 12.33984375 C-10.28521384 11.12202391 -12.35759952 9.88900048 -14.671875 8.21484375 C-19.93116302 5.18676883 -25.87787877 5.60778172 -31.734375 6.33984375 C-35.98962087 8.20617966 -38.87732859 10.76072425 -41.0390625 14.95703125 C-43.02932437 21.77759159 -43.04730412 30.37204113 -40.234375 36.96484375 C-37.66550478 41.07862893 -34.2654454 43.66109383 -29.734375 45.33984375 C-23.35018724 46.37889778 -18.4025292 45.29714159 -12.734375 42.33984375 C-12.734375 39.69984375 -12.734375 37.05984375 -12.734375 34.33984375 C-16.694375 34.33984375 -20.654375 34.33984375 -24.734375 34.33984375 C-24.734375 30.04984375 -24.734375 25.75984375 -24.734375 21.33984375 C-15.824375 21.33984375 -6.914375 21.33984375 2.265625 21.33984375 C2.45012561 25.36298213 2.60896754 29.37527931 2.70507812 33.40039062 C2.74514253 34.76645775 2.79961741 36.13218531 2.86914062 37.49707031 C3.43133832 48.82370026 3.43133832 48.82370026 0.55688477 52.56225586 C-8.7703243 59.67546823 -20.79519024 60.24413939 -32.08984375 59.1015625 C-40.009503 57.71386999 -47.14627286 53.78416525 -52.171875 47.46484375 C-58.24369854 38.35710845 -59.87875067 27.90831213 -58.109375 17.08984375 C-55.9242036 8.21977302 -51.33243083 1.4449947 -43.734375 -3.66015625 C-30.23077335 -10.72324837 -11.57644912 -11.08106053 0 0 Z " fill="#091627" transform="translate(561.734375,420.66015625)"/>
<path d="M0 0 C3.61328125 0.03255208 7.2265625 0.06510417 10.83984375 0.09765625 C11.16984375 8.67765625 11.49984375 17.25765625 11.83984375 26.09765625 C20.08984375 26.09765625 28.33984375 26.09765625 36.83984375 26.09765625 C36.83984375 17.51765625 36.83984375 8.93765625 36.83984375 0.09765625 C41.78984375 0.09765625 46.73984375 0.09765625 51.83984375 0.09765625 C51.83984375 21.87765625 51.83984375 43.65765625 51.83984375 66.09765625 C46.88984375 66.09765625 41.93984375 66.09765625 36.83984375 66.09765625 C36.83984375 57.18765625 36.83984375 48.27765625 36.83984375 39.09765625 C28.25984375 39.09765625 19.67984375 39.09765625 10.83984375 39.09765625 C10.83984375 48.00765625 10.83984375 56.91765625 10.83984375 66.09765625 C5.88984375 66.09765625 0.93984375 66.09765625 -4.16015625 66.09765625 C-4.18271006 57.63997894 -4.20107295 49.18232484 -4.21196842 40.72462559 C-4.21719656 36.79776967 -4.22429294 32.87093531 -4.2355957 28.9440918 C-4.24642705 25.15751368 -4.25243361 21.37095635 -4.25503349 17.58436394 C-4.2568873 16.13661306 -4.26050706 14.68886337 -4.26588631 13.24112129 C-4.27309992 11.2200849 -4.27356433 9.19902777 -4.27368164 7.17797852 C-4.27590225 6.02548111 -4.27812286 4.8729837 -4.28041077 3.68556213 C-4.10349542 -0.12169839 -3.88647445 0.12010119 0 0 Z " fill="#031428" transform="translate(578.16015625,412.90234375)"/>
<path d="M0 0 C4.62 0 9.24 0 14 0 C15 1 15 1 15.11352539 3.40844727 C15.10828857 4.45057373 15.10305176 5.4927002 15.09765625 6.56640625 C15.09443359 7.69111328 15.09121094 8.81582031 15.08789062 9.97460938 C15.07951172 11.15861328 15.07113281 12.34261719 15.0625 13.5625 C15.05798828 14.75037109 15.05347656 15.93824219 15.04882812 17.16210938 C15.03699675 20.10812226 15.02051287 23.05403681 15 26 C17.62475238 23.37524762 19.8474092 20.31423787 22.1875 17.4375 C22.75275391 16.74591797 23.31800781 16.05433594 23.90039062 15.34179688 C24.7444043 14.30442383 24.7444043 14.30442383 25.60546875 13.24609375 C26.17749023 12.55112793 26.74951172 11.85616211 27.33886719 11.14013672 C29.03431182 9.02770867 29.03431182 9.02770867 30.43457031 6.72314453 C33.86703456 1.37885256 33.86703456 1.37885256 37.15600586 0.27905273 C39.59777243 -0.00876197 41.91777629 -0.05878526 44.375 0 C45.20644531 -0.01160156 46.03789062 -0.02320313 46.89453125 -0.03515625 C48.92958681 -0.05854769 50.96509618 -0.03412837 53 0 C51.36148886 3.88215425 48.74132367 6.8023351 46 9.9375 C42.01526875 14.5914686 38.06586636 19.2686117 34.25 24.0625 C33.80785156 24.5980249 33.36570312 25.1335498 32.91015625 25.68530273 C30.57310196 28.4840002 30.57310196 28.4840002 30.23168945 31.9453125 C31.07726831 34.2066381 32.10410642 35.75195864 33.58984375 37.65234375 C34.12254883 38.34062256 34.65525391 39.02890137 35.20410156 39.73803711 C36.06213379 40.82677124 36.06213379 40.82677124 36.9375 41.9375 C37.51854492 42.68588135 38.09958984 43.4342627 38.69824219 44.20532227 C39.88652931 45.73528263 41.07745141 47.26320009 42.27099609 48.7890625 C44.33722586 51.43122244 46.39138842 54.08245678 48.43969727 56.73852539 C49.68066767 58.34760179 50.92614011 59.95320315 52.171875 61.55859375 C54 64 54 64 55 66 C40.22665746 67.90151934 40.22665746 67.90151934 35.24511719 64.96582031 C32.01320337 62.09930806 29.65119151 58.59158646 27.31054688 54.98632812 C25.47396023 52.20270872 23.46555637 49.55913916 21.45800781 46.89746094 C19.26938035 43.95807581 17.14057303 40.97456252 15 38 C15 47.24 15 56.48 15 66 C10.05 66 5.1 66 0 66 C0 44.22 0 22.44 0 0 Z " fill="#061528" transform="translate(349,413)"/>
<path d="M0 0 C4.95 0 9.9 0 15 0 C19.59363967 10.76197528 23.77590288 21.6741421 27.95776367 32.60131836 C29.1916903 35.82344204 30.4306763 39.04359073 31.66992188 42.26367188 C32.46124491 44.32800719 33.25227102 46.39245635 34.04296875 48.45703125 C34.41068893 49.41132523 34.77840912 50.3656192 35.15727234 51.34883118 C35.50135635 52.2505455 35.84544037 53.15225983 36.19995117 54.08129883 C36.50019699 54.86451004 36.80044281 55.64772125 37.10978699 56.45466614 C38.20729689 59.59271185 39.08670785 62.80347747 40 66 C34.72 66 29.44 66 24 66 C20 54.25 20 54.25 20 52 C11.75 52 3.5 52 -5 52 C-5.99 55.63 -6.98 59.26 -8 63 C-8.33 63.99 -8.66 64.98 -9 66 C-14.28 66 -19.56 66 -25 66 C-19.90330448 50.90125697 -14.18019908 36.08676591 -8.29833984 21.27832031 C-6.44951847 16.61002897 -4.62796885 11.93134346 -2.8125 7.25 C-2.37550781 6.12440674 -2.37550781 6.12440674 -1.9296875 4.97607422 C-1.28598059 3.31756816 -0.64290181 1.65881832 0 0 Z M7 19 C4.69 25.6 2.38 32.2 0 39 C4.95 39 9.9 39 15 39 C13.04068712 32.14240492 10.75665244 25.57678502 8 19 C7.67 19 7.34 19 7 19 Z " fill="#081627" transform="translate(908,413)"/>
<path d="M0 0 C4.95 0 9.9 0 15 0 C15.61089478 1.59146851 15.61089478 1.59146851 16.23413086 3.21508789 C17.78820804 7.26310045 19.34332521 11.31071293 20.89865112 15.35824585 C21.5893272 17.15616245 22.27969756 18.95419652 22.96975708 20.75234985 C27.93051282 33.68253091 27.93051282 33.68253091 33 46.5703125 C33.42031494 47.62726318 33.84062988 48.68421387 34.27368164 49.77319336 C35.0299695 51.6670067 35.79186984 53.55859177 36.56030273 55.44750977 C36.88973877 56.27307373 37.2191748 57.0986377 37.55859375 57.94921875 C37.84017334 58.64362061 38.12175293 59.33802246 38.41186523 60.0534668 C39 62 39 62 39 66 C34.05 66 29.1 66 24 66 C22.35 61.71 20.7 57.42 19 53 C11.08 52.67 3.16 52.34 -5 52 C-5.99 55.3 -6.98 58.6 -8 62 C-8.66 63.32 -9.32 64.64 -10 66 C-14.95 66 -19.9 66 -25 66 C-23.01049836 59.93976448 -20.91118234 53.94075348 -18.671875 47.96875 C-18.35978088 47.13396118 -18.04768677 46.29917236 -17.72613525 45.43908691 C-17.0681031 43.68075549 -16.40921656 41.92274359 -15.74951172 40.16503906 C-14.76338722 37.5356949 -13.78193293 34.90464064 -12.80078125 32.2734375 C-8.74187445 21.42522558 -4.48399648 10.6794951 0 0 Z M7 18 C4.69 24.93 2.38 31.86 0 39 C4.95 39 9.9 39 15 39 C12.69 32.07 10.38 25.14 8 18 C7.67 18 7.34 18 7 18 Z " fill="#081627" transform="translate(805,413)"/>
<path d="M0 0 C4.62 0 9.24 0 14 0 C17.22360261 3.33051606 18.7141243 5.28020187 20.6875 9.25 C21.64953809 10.98448678 22.61177094 12.71886554 23.57421875 14.453125 C23.97213623 15.22817383 24.37005371 16.00322266 24.7800293 16.80175781 C26.01902252 19.03427631 27.42408665 20.99465526 29 23 C29.34554932 22.30326172 29.69109863 21.60652344 30.04711914 20.88867188 C31.65957424 17.72460905 33.35829267 14.61553263 35.0625 11.5 C35.60455078 10.40300781 36.14660156 9.30601562 36.70507812 8.17578125 C38.47265625 5.03125 38.47265625 5.03125 43 0 C47.95 0 52.9 0 58 0 C58 17.82 58 35.64 58 54 C54.04 54 50.08 54 46 54 C45.67 42.78 45.34 31.56 45 20 C42.36 24.62 39.72 29.24 37 34 C34.68754986 37.68546742 32.37799135 41.35870074 30 45 C26.4356655 43.8118885 26.07893569 42.99538137 24.15234375 39.88671875 C23.62962891 39.05076172 23.10691406 38.21480469 22.56835938 37.35351562 C22.03017578 36.47373047 21.49199219 35.59394531 20.9375 34.6875 C20.39544922 33.81931641 19.85339844 32.95113281 19.29492188 32.05664062 C17.03441406 28.415798 14.91908901 24.83817802 13 21 C12.67 31.89 12.34 42.78 12 54 C8.04 54 4.08 54 0 54 C0 36.18 0 18.36 0 0 Z " fill="#061427" transform="translate(629,508)"/>
<path d="M0 0 C12 0 12 0 15.9375 3.8125 C16.90907987 5.23693489 17.8758797 6.6653947 18.796875 8.12304688 C20.26035242 10.40616668 21.79931566 12.63024144 23.34375 14.859375 C26.2002835 18.98608391 29.02129815 23.13495229 31.82006836 27.30102539 C32.89067355 28.94981725 32.89067355 28.94981725 34 30 C34.33 20.1 34.66 10.2 35 0 C38.63 0 42.26 0 46 0 C46 17.82 46 35.64 46 54 C35 54 35 54 32.59765625 51.97265625 C32.09105469 51.01230469 31.58445312 50.05195312 31.0625 49.0625 C30.13050781 47.43828125 30.13050781 47.43828125 29.1796875 45.78125 C28.84420898 45.18054688 28.50873047 44.57984375 28.16308594 43.9609375 C25.91258013 40.16663383 23.26665604 36.63759457 20.6875 33.0625 C19.66817315 31.63843341 18.65112983 30.21272868 17.63671875 28.78515625 C17.20061279 28.17551025 16.76450684 27.56586426 16.31518555 26.93774414 C14.78575257 24.68433603 13.40118773 22.33531289 12 20 C12 31.22 12 42.44 12 54 C8.04 54 4.08 54 0 54 C0 36.18 0 18.36 0 0 Z " fill="#071426" transform="translate(883,508)"/>
<path d="M0 0 C6.40114315 4.53003977 9.32633656 10.43862769 11 18 C12.11063691 27.88214429 10.73437894 35.96842485 4.5 43.8125 C-1.33020138 49.90916397 -8.18329955 52.10848628 -16.5 52.5 C-24.81670045 52.10848628 -31.66979862 49.90916397 -37.5 43.8125 C-43.79796943 35.88841551 -44.93326748 27.95929722 -44 18 C-42.76718412 10.42180829 -38.78929827 4.93967429 -33 0 C-23.0756219 -6.30011715 -9.99702444 -5.91373277 0 0 Z M-28 11 C-31.94912329 17.41848141 -31.79103007 23.67210605 -31 31 C-30.00488089 33.79143669 -29.12459626 34.81638718 -27 37 C-26.443125 37.598125 -25.88625 38.19625 -25.3125 38.8125 C-20.2964309 41.38831927 -15.52761636 41.45077204 -10.1875 39.875 C-5.59608453 37.17416737 -3.67190535 34.66376563 -1.6875 29.75 C-0.66762253 24.18703198 -0.94096011 19.38283975 -3.25 14.1875 C-6.00213413 10.74733234 -9.38339581 7.3250771 -13.91796875 6.76171875 C-19.86129222 6.56735877 -23.22693821 7.37247304 -28 11 Z " fill="#081525" transform="translate(862,511)"/>
<path d="M0 0 C5.80786957 4.3161827 8.65849643 10.04810213 10.5703125 16.91015625 C11.55144494 26.53894439 10.812041 34.92793589 5.1328125 42.9375 C0.07586695 48.68734433 -6.54280565 51.26733771 -14.04296875 52.25390625 C-22.41887425 52.56653725 -29.85786153 50.13774509 -36.4296875 44.91015625 C-42.58976887 38.89333258 -44.53033263 31.86458563 -44.8046875 23.34765625 C-44.47946591 14.4540967 -41.92835768 8.31360787 -35.71484375 1.86328125 C-25.5560925 -6.81941213 -11.23696976 -6.33765095 0 0 Z M-30.3671875 13.34765625 C-32.33598936 19.94893308 -32.42497347 26.92429833 -30.2421875 33.47265625 C-27.04153752 37.77697864 -24.38909893 39.99487619 -19.0546875 40.84765625 C-14.50308801 41.1581647 -11.40713949 40.24983389 -7.4296875 37.91015625 C-3.1980988 33.67856755 -1.66365206 29.43697349 -1.1171875 23.53515625 C-1.60795585 17.84224337 -2.78116168 13.51746892 -6.9296875 9.47265625 C-14.99357161 4.43272868 -24.44858389 5.90167106 -30.3671875 13.34765625 Z " fill="#081525" transform="translate(609.4296875,511.08984375)"/>
<path d="M0 0 C4.13953671 1.70980864 6.6968919 4.16148651 9 8 C9.71342242 11.90796945 9.40668112 15.028484 7.875 18.6875 C5.51547541 21.59758033 2.95709068 23.70004058 0 26 C1.40715316 29.40062014 3.02868228 30.89229698 6 33 C6.35191406 32.3503125 6.70382812 31.700625 7.06640625 31.03125 C8.57377142 28.48092982 10.01794362 26.2056289 12 24 C15.875 23.4375 15.875 23.4375 19 24 C18.82316211 30.94490614 17.11844576 35.42262143 13 41 C13.86625 41.84304688 14.7325 42.68609375 15.625 43.5546875 C16.75026041 44.66119357 17.87524628 45.76797888 19 46.875 C19.57234375 47.43058594 20.1446875 47.98617187 20.734375 48.55859375 C22.19450782 50.00134404 23.60149298 51.4974374 25 53 C25 53.66 25 54.32 25 55 C14.4690583 55.92017937 14.4690583 55.92017937 10.8671875 53.6640625 C9.25 52 9.25 52 7 49 C4.00693304 50.05637657 1.80861699 51.14353726 -0.75 53.0625 C-5.46735682 55.87477041 -9.75585302 56.55231893 -15.1796875 55.62890625 C-19.62492539 54.2785604 -22.66989742 52.18164649 -25.15234375 48.2265625 C-26.92218377 43.57767396 -26.73094859 38.85945448 -26 34 C-23.7977095 29.51385268 -20.61893784 26.41788574 -17 23 C-17.515625 22.030625 -18.03125 21.06125 -18.5625 20.0625 C-20.45597133 15.59608198 -20.43114246 11.62302383 -19 7 C-13.66636509 0.22484214 -8.26100085 -0.85968139 0 0 Z M-8.375 8.5625 C-10.29314943 10.93663068 -10.29314943 10.93663068 -9.9375 14.0625 C-9.01521017 16.95234148 -8.34851888 18.1620287 -6 20 C-2.69331811 17.80048361 -2.69331811 17.80048361 0 15 C0.02524328 11.2499712 0.02524328 11.2499712 -1 8 C-4.27751687 6.90749438 -5.4185434 6.61746276 -8.375 8.5625 Z M-14.1875 33.0625 C-16.44333216 36.71850384 -16.53841697 38.76958093 -16 43 C-14.66417636 45.53806492 -13.72043118 46.62736318 -11.1875 47.9375 C-7.89401615 48.03159954 -5.79643632 46.64138653 -3 45 C-2.34 44.34 -1.68 43.68 -1 43 C-1.31479548 39.43231788 -3.06514042 37.3814856 -5.375 34.75 C-6.28378906 33.69039062 -6.28378906 33.69039062 -7.2109375 32.609375 C-10.0889618 30.02040991 -11.46966135 30.49996641 -14.1875 33.0625 Z " fill="#091626" transform="translate(370,507)"/>
<path d="M0 0 C16.5 0 33 0 50 0 C50 4.29 50 8.58 50 13 C44.39 13 38.78 13 33 13 C33 30.49 33 47.98 33 66 C28.05 66 23.1 66 18 66 C18 48.51 18 31.02 18 13 C12.06 13 6.12 13 0 13 C0 8.71 0 4.42 0 0 Z " fill="#0A1728" transform="translate(637,413)"/>
<path d="M0 0 C3.96 0 7.92 0 12 0 C12.01981934 1.06436279 12.03963867 2.12872559 12.06005859 3.2253418 C12.13630792 7.18586307 12.22499514 11.1460262 12.31738281 15.10620117 C12.35559285 16.81804314 12.39045952 18.52996322 12.421875 20.24194336 C12.46769938 22.70715183 12.52566413 25.17182633 12.5859375 27.63671875 C12.59748871 28.39836838 12.60903992 29.16001801 12.62094116 29.94474792 C12.73365207 34.03104659 13.08292151 37.35634135 15 41 C18.16320147 43.3724011 21.14318026 43.32140164 25 43 C27.28497767 42.44123112 27.28497767 42.44123112 29 41 C31.2745113 36.67699351 31.34159277 32.41514046 31.4140625 27.63671875 C31.43342865 26.84473587 31.4527948 26.05275299 31.4727478 25.23677063 C31.53227232 22.72045481 31.57881958 20.20409256 31.625 17.6875 C31.66320481 15.9758921 31.70225799 14.26430291 31.7421875 12.55273438 C31.8379513 8.36864251 31.9220818 4.18446069 32 0 C35.96 0 39.92 0 44 0 C44.07446471 5.42599527 44.12875037 10.8516894 44.16479492 16.27807617 C44.17982988 18.12187892 44.20026333 19.96564622 44.22631836 21.80932617 C44.26293561 24.4680255 44.27977943 27.12624971 44.29296875 29.78515625 C44.30845261 30.60210464 44.32393646 31.41905304 44.33988953 32.26075745 C44.34205883 39.73082249 42.33437691 45.51321232 37 51 C31.43787024 54.99332393 24.65005411 55.13539032 18 55 C12.56864408 54.03778321 7.78130279 52.10541446 4 48 C0.48108262 41.87856039 -0.56934226 36.57250147 -0.390625 29.58984375 C-0.38496521 28.73693253 -0.37930542 27.8840213 -0.37347412 27.00526428 C-0.3513129 24.31540695 -0.30115859 21.62694584 -0.25 18.9375 C-0.22990866 17.09962879 -0.21166254 15.26173643 -0.1953125 13.42382812 C-0.15151514 8.94869134 -0.08263308 4.47458129 0 0 Z " fill="#051325" transform="translate(470,508)"/>
<path d="M0 0 C1.65322266 0.01740234 1.65322266 0.01740234 3.33984375 0.03515625 C4.44457031 0.04417969 5.54929687 0.05320312 6.6875 0.0625 C7.54214844 0.07410156 8.39679688 0.08570313 9.27734375 0.09765625 C12.79056206 9.00393809 16.30036666 17.91154979 19.80488586 26.82125854 C21.42867631 30.94771591 23.05970522 35.07116282 24.69921875 39.19140625 C25.32950569 40.78512517 25.95972288 42.37887167 26.58984375 43.97265625 C26.87287354 44.67696777 27.15590332 45.3812793 27.44750977 46.10693359 C28.56395303 48.9443949 29.27734375 51.01521369 29.27734375 54.09765625 C25.31734375 54.09765625 21.35734375 54.09765625 17.27734375 54.09765625 C13.27734375 45.34765625 13.27734375 45.34765625 13.27734375 43.09765625 C6.34734375 43.09765625 -0.58265625 43.09765625 -7.72265625 43.09765625 C-8.71265625 46.72765625 -9.70265625 50.35765625 -10.72265625 54.09765625 C-15.01265625 54.09765625 -19.30265625 54.09765625 -23.72265625 54.09765625 C-21.58462819 47.52757859 -19.23920995 41.07184351 -16.74609375 34.62890625 C-16.3753775 33.66738647 -16.00466125 32.7058667 -15.62271118 31.71520996 C-14.8455414 29.70134041 -14.06731882 27.68787685 -13.28808594 25.67480469 C-12.09087408 22.58012498 -10.89878049 19.48350558 -9.70703125 16.38671875 C-8.94952512 14.42566288 -8.19172335 12.46472118 -7.43359375 10.50390625 C-7.07631195 9.57485474 -6.71903015 8.64580322 -6.35092163 7.68859863 C-6.02032745 6.8368103 -5.68973328 5.98502197 -5.34912109 5.10742188 C-5.05838715 4.35513306 -4.7676532 3.60284424 -4.46810913 2.82775879 C-3.27927606 0.06862651 -3.16891452 0.11366264 0 0 Z M2.27734375 15.09765625 C1.43814977 17.36647712 0.60582651 19.63742652 -0.22265625 21.91015625 C-0.46113281 22.55275391 -0.69960938 23.19535156 -0.9453125 23.85742188 C-1.99334371 26.74699364 -2.72265625 28.99841686 -2.72265625 32.09765625 C1.23734375 32.09765625 5.19734375 32.09765625 9.27734375 32.09765625 C7.04307119 23.2926968 7.04307119 23.2926968 3.27734375 15.09765625 C2.94734375 15.09765625 2.61734375 15.09765625 2.27734375 15.09765625 Z " fill="#081526" transform="translate(436.72265625,507.90234375)"/>
<path d="M0 0 C3.96 0 7.92 0 12 0 C16.257292 10.05123969 20.25002441 20.19731905 24.21313477 30.36743164 C25.3253499 33.2204623 26.44088452 36.07218067 27.55664062 38.92382812 C28.26321874 40.73429777 28.9696062 42.54484185 29.67578125 44.35546875 C30.17722404 45.63649727 30.17722404 45.63649727 30.688797 46.94340515 C33 52.88521421 33 52.88521421 33 54 C28.71 54 24.42 54 20 54 C18.68 50.7 17.36 47.4 16 44 C9.4 44 2.8 44 -4 44 C-5.98 48.95 -5.98 48.95 -8 54 C-12.29 54 -16.58 54 -21 54 C-14.20042432 35.91519699 -7.24914483 17.91057692 0 0 Z M6 15 C5.17934931 16.87144695 4.3688416 18.74734336 3.5625 20.625 C3.11003906 21.66914062 2.65757812 22.71328125 2.19140625 23.7890625 C1.04198295 26.88685251 0.42688777 29.73210054 0 33 C3.96 33 7.92 33 12 33 C11.38388165 28.68068613 10.35761422 24.74791225 8.9375 20.625 C8.57527344 19.56539062 8.21304688 18.50578125 7.83984375 17.4140625 C7.56269531 16.61742187 7.28554688 15.82078125 7 15 C6.67 15 6.34 15 6 15 Z " fill="#071425" transform="translate(715,508)"/>
<path d="M0 0 C0.88602402 0.00222061 1.77204803 0.00444122 2.68492126 0.00672913 C3.68588333 0.00680466 4.6868454 0.00688019 5.71813965 0.00695801 C6.80666733 0.01211929 7.89519501 0.01728058 9.01670837 0.02259827 C10.67928932 0.02472069 10.67928932 0.02472069 12.37545776 0.02688599 C15.93168281 0.03250418 19.48784596 0.04505977 23.04405212 0.05775452 C25.44834809 0.06276717 27.85264504 0.06733048 30.25694275 0.07142639 C36.1651699 0.08247953 42.0733505 0.09975635 47.98155212 0.12025452 C47.98155212 4.08025452 47.98155212 8.04025452 47.98155212 12.12025452 C42.04155212 12.12025452 36.10155212 12.12025452 29.98155212 12.12025452 C29.98155212 29.94025452 29.98155212 47.76025452 29.98155212 66.12025452 C25.36155212 66.12025452 20.74155212 66.12025452 15.98155212 66.12025452 C14.7288049 63.61476007 14.86125588 61.9228982 14.86802673 59.11976624 C14.86810226 58.0788382 14.8681778 57.03791016 14.86825562 55.96543884 C14.8734169 54.83832489 14.87857819 53.71121094 14.88389587 52.54994202 C14.88531082 51.39857758 14.88672577 50.24721313 14.88818359 49.06095886 C14.89379497 45.37236466 14.90634943 41.68383047 14.91905212 37.99525452 C14.92406566 35.49916164 14.92862882 33.00306782 14.932724 30.50697327 C14.9437681 24.37804378 14.96104039 18.24915934 14.98155212 12.12025452 C9.37155212 12.12025452 3.76155212 12.12025452 -2.01844788 12.12025452 C-2.89735413 3.62416077 -2.89735413 3.62416077 -3.01844788 1.12025452 C-2.01844788 0.12025452 -2.01844788 0.12025452 0 0 Z " fill="#031429" transform="translate(842.0184478759766,412.87974548339844)"/>
<path d="M0 0 C13.86 0 27.72 0 42 0 C42 3.3 42 6.6 42 10 C41.67 10.33 41.34 10.66 41 11 C36.38 11 31.76 11 27 11 C27 25.19 27 39.38 27 54 C23.04 54 19.08 54 15 54 C15 39.81 15 25.62 15 11 C10.05 11 5.1 11 0 11 C0 7.37 0 3.74 0 0 Z " fill="#041429" transform="translate(746,508)"/>
<path d="M0 0 C13.53 0 27.06 0 41 0 C41 3.3 41 6.6 41 10 C40.67 10.33 40.34 10.66 40 11 C35.38 11 30.76 11 26 11 C26 25.19 26 39.38 26 54 C22.04 54 18.08 54 14 54 C14 39.81 14 25.62 14 11 C9.38 11 4.76 11 0 11 C0 7.37 0 3.74 0 0 Z " fill="#081629" transform="translate(522,508)"/>
<path d="M0 0 C4.62 0 9.24 0 14 0 C14 21.45 14 42.9 14 65 C9.38 65 4.76 65 0 65 C-0.893134 61.42746401 -1.12659345 58.79930805 -1.12939453 55.16162109 C-1.13254669 53.98715424 -1.13569885 52.81268738 -1.13894653 51.60263062 C-1.1369223 50.33899689 -1.13489807 49.07536316 -1.1328125 47.7734375 C-1.13376923 46.47427399 -1.13472595 45.17511047 -1.13571167 43.83657837 C-1.13718379 41.09123543 -1.13504901 38.34592508 -1.13037109 35.60058594 C-1.12466282 32.07868048 -1.1279628 28.55685104 -1.13394356 25.03494835 C-1.13841998 21.67693859 -1.13528904 18.31894943 -1.1328125 14.9609375 C-1.13483673 13.69325531 -1.13686096 12.42557312 -1.13894653 11.11947632 C-1.13421829 9.36723251 -1.13421829 9.36723251 -1.12939453 7.57958984 C-1.12859894 6.54796722 -1.12780334 5.5163446 -1.12698364 4.45346069 C-1 2 -1 2 0 0 Z " fill="#04152B" transform="translate(480,414)"/>
<path d="M0 0 C4.29 0 8.58 0 13 0 C13 17.82 13 35.64 13 54 C8.71 54 4.42 54 0 54 C0 36.18 0 18.36 0 0 Z " fill="#05172C" transform="translate(796,508)"/>
<path d="M0 0 C2 2 2 2 2.24050903 4.51834106 C2.23606781 5.5797934 2.23162659 6.64124573 2.22705078 7.73486328 C2.22689972 8.93595734 2.22674866 10.13705139 2.22659302 11.37454224 C2.21627045 12.67664642 2.20594788 13.97875061 2.1953125 15.3203125 C2.19158276 16.66266673 2.18873561 18.00502367 2.18673706 19.34738159 C2.17909744 22.882014 2.1594463 26.41648228 2.1373291 29.9510498 C2.11687765 33.5571877 2.10773685 37.16335209 2.09765625 40.76953125 C2.07620058 47.84642776 2.04101586 54.92318591 2 62 C5.63 62 9.26 62 13 62 C12.97679687 60.21851563 12.95359375 58.43703125 12.9296875 56.6015625 C12.91093333 54.27604584 12.89273276 51.95052467 12.875 49.625 C12.85824219 48.449375 12.84148438 47.27375 12.82421875 46.0625 C12.81777344 44.94101562 12.81132813 43.81953125 12.8046875 42.6640625 C12.79421387 41.62717285 12.78374023 40.5902832 12.77294922 39.52197266 C13 37 13 37 15 35 C17.59790039 34.75708008 17.59790039 34.75708008 20.84765625 34.76953125 C22.00974609 34.77146484 23.17183594 34.77339844 24.36914062 34.77539062 C25.58794922 34.78763672 26.80675781 34.79988281 28.0625 34.8125 C29.89651367 34.8134668 29.89651367 34.8134668 31.76757812 34.81445312 C40.85988944 34.85988944 40.85988944 34.85988944 42 36 C42.08748207 37.92667507 42.10697334 39.85651861 42.09765625 41.78515625 C42.09443359 42.95498047 42.09121094 44.12480469 42.08789062 45.33007812 C42.07532227 47.17762695 42.07532227 47.17762695 42.0625 49.0625 C42.05798828 50.29806641 42.05347656 51.53363281 42.04882812 52.80664062 C42.03699618 55.87111413 42.01906008 58.93556293 42 62 C45.96 62 49.92 62 54 62 C54 41.54 54 21.08 54 0 C54.33 0 54.66 0 55 0 C55.33 21.12 55.66 42.24 56 64 C51.05 64 46.1 64 41 64 C41 55.09 41 46.18 41 37 C32.42 37 23.84 37 15 37 C15 45.91 15 54.82 15 64 C10.05 64 5.1 64 0 64 C0 42.88 0 21.76 0 0 Z " fill="#01030B" transform="translate(574,415)"/>
<path d="M0 0 C4.62 0 9.24 0 14 0 C15 1 15 1 15.11352539 3.59204102 C15.10828857 4.71795654 15.10305176 5.84387207 15.09765625 7.00390625 C15.09443359 8.21884766 15.09121094 9.43378906 15.08789062 10.68554688 C15.07951172 11.96494141 15.07113281 13.24433594 15.0625 14.5625 C15.05798828 15.84576172 15.05347656 17.12902344 15.04882812 18.45117188 C15.03699545 21.63416022 15.02051068 24.81705762 15 28 C14.01 28 13.02 28 12 28 C12 19.75 12 11.5 12 3 C8.7 3 5.4 3 2 3 C2 22.8 2 42.6 2 63 C5.3 63 8.6 63 12 63 C12 54.75 12 46.5 12 38 C12.99 37.505 12.99 37.505 14 37 C14.8410478 40.6464806 15.11764968 43.99950907 15.09765625 47.73828125 C15.09443359 48.80498047 15.09121094 49.87167969 15.08789062 50.97070312 C15.07951172 52.07349609 15.07113281 53.17628906 15.0625 54.3125 C15.05798828 55.43462891 15.05347656 56.55675781 15.04882812 57.71289062 C15.03707326 60.47528336 15.01913869 63.23764856 15 66 C10.05 66 5.1 66 0 66 C0 44.22 0 22.44 0 0 Z " fill="#161E28" transform="translate(349,413)"/>
<path d="M0 0 C4.29 0 8.58 0 13 0 C13 17.82 13 35.64 13 54 C8.71 54 4.42 54 0 54 C0 36.18 0 18.36 0 0 Z M2 2 C2 18.5 2 35 2 52 C4.97 52 7.94 52 11 52 C11 35.5 11 19 11 2 C8.03 2 5.06 2 2 2 Z " fill="#2F3135" transform="translate(796,508)"/>
<path d="M0 0 C4.62 0 9.24 0 14 0 C14 21.45 14 42.9 14 65 C9.71 65 5.42 65 1 65 C1 64.01 1 63.02 1 62 C4.63 62.33 8.26 62.66 12 63 C12 42.54 12 22.08 12 1 C8.37 1 4.74 1 1 1 C1 12.55 1 24.1 1 36 C0.67 36 0.34 36 0 36 C0 24.12 0 12.24 0 0 Z " fill="#04070E" transform="translate(453,414)"/>
<path d="M0 0 C4.95 0 9.9 0 15 0 C15 21.45 15 42.9 15 65 C14.34 64.67 13.68 64.34 13 64 C11.12620395 63.92966231 9.24998898 63.9156978 7.375 63.9375 C5.87066406 63.95103516 5.87066406 63.95103516 4.3359375 63.96484375 C3.56507813 63.97644531 2.79421875 63.98804688 2 64 C2 63.67 2 63.34 2 63 C5.3 63 8.6 63 12 63 C12 43.2 12 23.4 12 3 C3.11803399 2.25464401 3.11803399 2.25464401 0 4 C0 2.68 0 1.36 0 0 Z " fill="#24303F" transform="translate(615,413)"/>
<path d="M0 0 C4.62 0 9.24 0 14 0 C14 21.45 14 42.9 14 65 C9.38 65 4.76 65 0 65 C-0.893134 61.42746401 -1.12659345 58.79930805 -1.12939453 55.16162109 C-1.13254669 53.98715424 -1.13569885 52.81268738 -1.13894653 51.60263062 C-1.1369223 50.33899689 -1.13489807 49.07536316 -1.1328125 47.7734375 C-1.13376923 46.47427399 -1.13472595 45.17511047 -1.13571167 43.83657837 C-1.13718379 41.09123543 -1.13504901 38.34592508 -1.13037109 35.60058594 C-1.12466282 32.07868048 -1.1279628 28.55685104 -1.13394356 25.03494835 C-1.13841998 21.67693859 -1.13528904 18.31894943 -1.1328125 14.9609375 C-1.13483673 13.69325531 -1.13686096 12.42557312 -1.13894653 11.11947632 C-1.13421829 9.36723251 -1.13421829 9.36723251 -1.12939453 7.57958984 C-1.12859894 6.54796722 -1.12780334 5.5163446 -1.12698364 4.45346069 C-1 2 -1 2 0 0 Z M1 1 C1 21.46 1 41.92 1 63 C4.96 63 8.92 63 13 63 C13 42.54 13 22.08 13 1 C9.04 1 5.08 1 1 1 Z " fill="#000002" transform="translate(480,414)"/>
<path d="M0 0 C4.62 0 9.24 0 14 0 C14 0.33 14 0.66 14 1 C9.39452591 2.15136852 6.06005857 2 1 2 C1 18.5 1 35 1 52 C3.97 52 6.94 52 10 52 C10 40.45 10 28.9 10 17 C12.46105545 20.69158318 12.25575793 23.46623554 12.1953125 27.73046875 C12.1924826 28.48088943 12.18965271 29.23131012 12.18673706 30.00447083 C12.17555062 32.39897675 12.15044928 34.79310731 12.125 37.1875 C12.11496819 38.81184355 12.10584269 40.43619297 12.09765625 42.06054688 C12.07561637 46.040509 12.0410974 50.02019088 12 54 C8.04 54 4.08 54 0 54 C0 36.18 0 18.36 0 0 Z " fill="#010105" transform="translate(629,508)"/>
<path d="M0 0 C2.14576637 -0.02685938 4.29162645 -0.04633088 6.4375 -0.0625 C7.63246094 -0.07410156 8.82742188 -0.08570313 10.05859375 -0.09765625 C13 0 13 0 14 1 C14.08874135 4.10251201 14.11518455 7.1826812 14.09765625 10.28515625 C14.0962413 11.21597519 14.09482635 12.14679413 14.09336853 13.1058197 C14.08775172 16.09141191 14.0751964 19.07693029 14.0625 22.0625 C14.05748716 24.08137913 14.05292388 26.10025943 14.04882812 28.11914062 C14.03777683 33.07945572 14.02050095 38.03971532 14 43 C16.97 43 19.94 43 23 43 C23 29.14 23 15.28 23 1 C23.33 1 23.66 1 24 1 C24 15.52 24 30.04 24 45 C20.04 45 16.08 45 12 45 C12 30.48 12 15.96 12 1 C8.04 1 4.08 1 0 1 C0 0.67 0 0.34 0 0 Z " fill="#010106" transform="translate(524,517)"/>
<path d="M0 0 C0.33 0 0.66 0 1 0 C1 14.85 1 29.7 1 45 C-2.96 45 -6.92 45 -11 45 C-11 30.48 -11 15.96 -11 1 C-10.67 1 -10.34 1 -10 1 C-10 14.86 -10 28.72 -10 43 C-7.03 43 -4.06 43 -1 43 C-1.00785522 41.09939819 -1.00785522 41.09939819 -1.01586914 39.16040039 C-1.03391514 34.4771393 -1.04543053 29.79388129 -1.05493164 25.1105957 C-1.05997278 23.08031702 -1.06680557 21.05004198 -1.07543945 19.01977539 C-1.08751467 16.10822653 -1.09323034 13.1967255 -1.09765625 10.28515625 C-1.10281754 9.3716188 -1.10797882 8.45808136 -1.11329651 7.51686096 C-1.11349168 5.34424573 -1.06211805 3.17172704 -1 1 C-0.67 0.67 -0.34 0.34 0 0 Z " fill="#010104" transform="translate(772,517)"/>
<path d="M0 0 C5.28 0 10.56 0 16 0 C16 0.33 16 0.66 16 1 C11.05 1 6.1 1 1 1 C1 18.82 1 36.64 1 55 C-3.62 55 -8.24 55 -13 55 C-14.17719326 52.64561349 -14.08905996 51.35233185 -14.02172852 48.73388672 C-14.00163223 47.85312469 -13.98153595 46.97236267 -13.96083069 46.06491089 C-13.93379562 45.11278717 -13.90676056 44.16066345 -13.87890625 43.1796875 C-13.85529526 42.20589142 -13.83168427 41.23209534 -13.80735779 40.22879028 C-13.73062849 37.11071528 -13.646644 33.99288288 -13.5625 30.875 C-13.5092886 28.76433489 -13.45654814 26.65365785 -13.40429688 24.54296875 C-13.27500087 19.36182823 -13.13974366 14.18086868 -13 9 C-12.67 9 -12.34 9 -12 9 C-12 23.52 -12 38.04 -12 53 C-8.04 53 -4.08 53 0 53 C0 35.51 0 18.02 0 0 Z " fill="#08080A" transform="translate(871,424)"/>
<path d="M0 0 C3.96 0 7.92 0 12 0 C12 12.54 12 25.08 12 38 C9.57130091 34.35695136 9.74324325 31.69277661 9.8046875 27.48828125 C9.8075174 26.76005661 9.81034729 26.03183197 9.81326294 25.28153992 C9.82444743 22.95835863 9.84954834 20.63556453 9.875 18.3125 C9.88503206 16.7363337 9.89415752 15.16016135 9.90234375 13.58398438 C9.92438104 9.72250733 9.95889859 5.86131929 10 2 C7.03 2 4.06 2 1 2 C1.1187794 6.59000248 1.24306042 11.17981177 1.37231445 15.76953125 C1.41547308 17.32906099 1.45716056 18.88863219 1.49731445 20.44824219 C1.55548213 22.69739242 1.61903923 24.94633759 1.68359375 27.1953125 C1.70030624 27.8861795 1.71701874 28.57704651 1.73423767 29.28884888 C1.85461593 33.27363963 2.25154219 37.08458012 3 41 C2.01 41.495 2.01 41.495 1 42 C-0.3158809 38.0523573 -0.12300273 34.28910644 -0.09765625 30.17578125 C-0.09553383 28.88367989 -0.09553383 28.88367989 -0.09336853 27.56547546 C-0.0877714 24.81444831 -0.07521946 22.06350256 -0.0625 19.3125 C-0.05748463 17.4472668 -0.05292179 15.58203233 -0.04882812 13.71679688 C-0.03780292 9.14449989 -0.02054027 4.57226375 0 0 Z " fill="#000206" transform="translate(470,508)"/>
<path d="M0 0 C3.63 0 7.26 0 11 0 C11 0.33 11 0.66 11 1 C8.03 1 5.06 1 2 1 C2 17.83 2 34.66 2 52 C4.64 52 7.28 52 10 52 C10 52.66 10 53.32 10 54 C6.7 54 3.4 54 0 54 C0 36.18 0 18.36 0 0 Z " fill="#010309" transform="translate(883,508)"/>
<path d="M0 0 C0.88602402 0.00222061 1.77204803 0.00444122 2.68492126 0.00672913 C3.68588333 0.00680466 4.6868454 0.00688019 5.71813965 0.00695801 C6.80666733 0.01211929 7.89519501 0.01728058 9.01670837 0.02259827 C10.67928932 0.02472069 10.67928932 0.02472069 12.37545776 0.02688599 C15.93168281 0.03250418 19.48784596 0.04505977 23.04405212 0.05775452 C25.44834809 0.06276717 27.85264504 0.06733048 30.25694275 0.07142639 C36.16516716 0.08247952 42.07335522 0.09923535 47.98155212 0.12025452 C47.65155212 2.43025452 47.32155212 4.74025452 46.98155212 7.12025452 C46.65155212 7.12025452 46.32155212 7.12025452 45.98155212 7.12025452 C45.98155212 5.47025452 45.98155212 3.82025452 45.98155212 2.12025452 C30.47155212 2.12025452 14.96155212 2.12025452 -1.01844788 2.12025452 C-1.01844788 5.09025452 -1.01844788 8.06025452 -1.01844788 11.12025452 C4.59155212 11.12025452 10.20155212 11.12025452 15.98155212 11.12025452 C15.98155212 11.45025452 15.98155212 11.78025452 15.98155212 12.12025452 C10.04155212 12.12025452 4.10155212 12.12025452 -2.01844788 12.12025452 C-2.89735413 3.62416077 -2.89735413 3.62416077 -3.01844788 1.12025452 C-2.01844788 0.12025452 -2.01844788 0.12025452 0 0 Z " fill="#01030A" transform="translate(842.0184478759766,412.87974548339844)"/>
<path d="M0 0 C3.22577124 3.22577124 2.98261773 6.4070963 3.11352539 10.87231445 C3.11336843 12.36931272 3.10780036 13.86631734 3.09765625 15.36328125 C3.0962413 16.15526413 3.09482635 16.94724701 3.09336853 17.76322937 C3.08779457 20.27969219 3.07524693 22.79606431 3.0625 25.3125 C3.05748163 27.02408725 3.05291931 28.73567591 3.04882812 30.44726562 C3.03783368 34.63154508 3.02058707 38.81575719 3 43 C-3.93 42.505 -3.93 42.505 -11 42 C-11 41.67 -11 41.34 -11 41 C-7.37 41 -3.74 41 0 41 C0 27.47 0 13.94 0 0 Z " fill="#1D252F" transform="translate(423,436)"/>
<path d="M0 0 C4.95 0 9.9 0 15 0 C15 17.82 15 35.64 15 54 C14.67 54 14.34 54 14 54 C13.0948264 36.65725901 12.87414152 19.36459701 13 2 C11.0412957 2.14076315 9.08303907 2.2877676 7.125 2.4375 C6.03445313 2.51871094 4.94390625 2.59992188 3.8203125 2.68359375 C1.05271029 2.83001703 1.05271029 2.83001703 -1 4 C-0.67 2.68 -0.34 1.36 0 0 Z " fill="#141A22" transform="translate(672,508)"/>
<path d="M0 0 C1.2065625 0.0309375 1.2065625 0.0309375 2.4375 0.0625 C2.4375 0.3925 2.4375 0.7225 2.4375 1.0625 C4.7475 1.3925 7.0575 1.7225 9.4375 2.0625 C9.4375 9.9825 9.4375 17.9025 9.4375 26.0625 C9.1075 26.0625 8.7775 26.0625 8.4375 26.0625 C8.4375 18.4725 8.4375 10.8825 8.4375 3.0625 C5.4675 3.0625 2.4975 3.0625 -0.5625 3.0625 C-0.5625 18.2425 -0.5625 33.4225 -0.5625 49.0625 C-0.8925 49.0625 -1.2225 49.0625 -1.5625 49.0625 C-1.5779612 48.22684761 -1.5779612 48.22684761 -1.59373474 47.37431335 C-1.7018002 41.58316308 -1.81639827 35.79216839 -1.93481445 30.0012207 C-1.97816313 27.8391444 -2.01983825 25.67703387 -2.05981445 23.51489258 C-2.11751844 20.40956298 -2.18121272 17.30440564 -2.24609375 14.19921875 C-2.26280624 13.23038254 -2.27951874 12.26154633 -2.29673767 11.26335144 C-2.31668289 10.3626442 -2.33662811 9.46193695 -2.35717773 8.53393555 C-2.37272202 7.74117722 -2.3882663 6.94841888 -2.40428162 6.13163757 C-2.49331226 3.86510226 -2.49331226 3.86510226 -3.5625 1.0625 C-2.5625 0.0625 -2.5625 0.0625 0 0 Z " fill="#081C32" transform="translate(577.5625,412.9375)"/>
<path d="M0 0 C0.66 0.33 1.32 0.66 2 1 C2 9.91 2 18.82 2 28 C1.01 28 0.02 28 -1 28 C-1 19.75 -1 11.5 -1 3 C-1.99 2.67 -2.98 2.34 -4 2 C-2.68 2 -1.36 2 0 2 C0 1.34 0 0.68 0 0 Z " fill="#343C44" transform="translate(362,413)"/>
<path d="M0 0 C19.47 0 38.94 0 59 0 C59 0.33 59 0.66 59 1 C58.0867395 1.03758423 58.0867395 1.03758423 57.1550293 1.07592773 C42.61591582 1.61968158 42.61591582 1.61968158 28.12109375 2.81640625 C25.73907196 3.02258493 23.38973489 3.0293992 21 3 C21 2.67 21 2.34 21 2 C14.07 1.67 7.14 1.34 0 1 C0 0.67 0 0.34 0 0 Z " fill="#253344" transform="translate(151,574)"/>
<path d="M0 0 C4.29 0 8.58 0 13 0 C13 0.33 13 0.66 13 1 C9.7 1.33 6.4 1.66 3 2 C3 3.98 3 5.96 3 8 C6.96 8 10.92 8 15 8 C15 8.99 15 9.98 15 11 C10.05 11 5.1 11 0 11 C0 7.37 0 3.74 0 0 Z " fill="#1C2129" transform="translate(746,508)"/>
<path d="M0 0 C0 0.99 0 1.98 0 3 C0.066454 4.77499332 0.14031886 6.54971432 0.21875 8.32421875 C0.26386719 9.35224609 0.30898437 10.38027344 0.35546875 11.43945312 C0.40316406 12.51130859 0.45085937 13.58316406 0.5 14.6875 C0.54769531 15.77095703 0.59539062 16.85441406 0.64453125 17.97070312 C0.76243692 20.64716175 0.88095003 23.32359207 1 26 C-0.32 26 -1.64 26 -3 26 C-3.086985 22.22931168 -3.14038579 18.45888068 -3.1875 14.6875 C-3.21263672 13.61564453 -3.23777344 12.54378906 -3.26367188 11.43945312 C-3.27333984 10.41142578 -3.28300781 9.38339844 -3.29296875 8.32421875 C-3.3086792 7.37635498 -3.32438965 6.42849121 -3.34057617 5.4519043 C-2.94475643 2.60228592 -2.22175281 1.75023895 0 0 Z " fill="#171919" transform="translate(135,594)"/>
<path d="M0 0 C0.99 0 1.98 0 3 0 C3 16.83 3 33.66 3 51 C6.3 51 9.6 51 13 51 C13 51.33 13 51.66 13 52 C9.37 52 5.74 52 2 52 C1.97494385 50.70900391 1.9498877 49.41800781 1.92407227 48.08789062 C1.82949433 43.27204433 1.72939907 38.45632544 1.62768555 33.640625 C1.58452643 31.56122836 1.54283899 29.4818006 1.50268555 27.40234375 C1.4445193 24.4035507 1.38096138 21.40491152 1.31640625 18.40625 C1.29969376 17.48509399 1.28298126 16.56393799 1.26576233 15.61486816 C1.14622751 10.33904019 0.74905019 5.22469174 0 0 Z " fill="#0E2037" transform="translate(857,425)"/>
<path d="M0 0 C1.19044922 0.00451172 2.38089844 0.00902344 3.60742188 0.01367188 C6.50916936 0.02532548 9.41080626 0.04168441 12.3125 0.0625 C12.8075 1.0525 12.8075 1.0525 13.3125 2.0625 C12.6525 2.7225 11.9925 3.3825 11.3125 4.0625 C11.3125 3.4025 11.3125 2.7425 11.3125 2.0625 C-0.5675 2.0625 -12.4475 2.0625 -24.6875 2.0625 C-24.6875 1.7325 -24.6875 1.4025 -24.6875 1.0625 C-16.43723532 0.13441062 -8.2971172 -0.0605629 0 0 Z " fill="#00050E" transform="translate(772.6875,507.9375)"/>
<path d="M0 0 C2.97 0 5.94 0 9 0 C9 8.58 9 17.16 9 26 C8.34 26 7.68 26 7 26 C7 18.08 7 10.16 7 2 C4.03 2 1.06 2 -2 2 C-1.34 1.34 -0.68 0.68 0 0 Z " fill="#0A0C15" transform="translate(580,413)"/>
<path d="M0 0 C0.90105469 0.00902344 1.80210937 0.01804687 2.73046875 0.02734375 C3.41753906 0.03894531 4.10460937 0.05054688 4.8125 0.0625 C4.8125 0.7225 4.8125 1.3825 4.8125 2.0625 C3.1625 2.3925 1.5125 2.7225 -0.1875 3.0625 C0.8025 4.0525 1.7925 5.0425 2.8125 6.0625 C2.4825 6.7225 2.1525 7.3825 1.8125 8.0625 C0.1625 7.7325 -1.4875 7.4025 -3.1875 7.0625 C-3.1875 6.0725 -3.1875 5.0825 -3.1875 4.0625 C-3.950625 4.0625 -4.71375 4.0625 -5.5 4.0625 C-7.39583333 4.0625 -9.29166667 4.0625 -11.1875 4.0625 C-7.77628592 0.32640839 -4.93646556 -0.06410994 0 0 Z " fill="#080F1A" transform="translate(365.1875,506.9375)"/>
<path d="M0 0 C5.22866463 -0.04984062 10.45718765 -0.08592606 15.68603516 -0.10986328 C17.46079928 -0.11985378 19.23554723 -0.13345081 21.01025391 -0.15087891 C39.15955016 -0.32450751 39.15955016 -0.32450751 48 2 C48 2.33 48 2.66 48 3 C46.20841511 3.02696365 44.41671527 3.04637917 42.625 3.0625 C41.62726563 3.07410156 40.62953125 3.08570313 39.6015625 3.09765625 C37 3 37 3 35 2 C32.37619687 1.84339117 29.77475148 1.7417092 27.1484375 1.68359375 C26.37440582 1.66281265 25.60037415 1.64203156 24.80288696 1.62062073 C22.32701608 1.55516552 19.85103798 1.49625913 17.375 1.4375 C15.69790552 1.39431093 14.02082193 1.35069652 12.34375 1.30664062 C8.22927692 1.19948829 4.11469586 1.09820955 0 1 C0 0.67 0 0.34 0 0 Z " fill="#192845" transform="translate(236,574)"/>
<path d="M0 0 C0.8353125 1.2375 0.8353125 1.2375 1.6875 2.5 C3.87631478 4.77201534 5.0146687 5.00150949 8.2265625 5.33203125 C11.49669399 5.31422008 14.73718771 5.21497299 18 5 C18.33 4.34 18.66 3.68 19 3 C20.32 4.65 21.64 6.3 23 8 C20.10190611 8.16250994 17.21295149 8.28107636 14.3125 8.375 C13.08756836 8.45041016 13.08756836 8.45041016 11.83789062 8.52734375 C5.88304228 8.67199594 5.88304228 8.67199594 3.30224609 6.70800781 C0 2.8757716 0 2.8757716 0 0 Z " fill="#030305" transform="translate(381,471)"/>
<path d="M0 0 C0.66 0 1.32 0 2 0 C2 3.63 2 7.26 2 11 C-0.45862401 11.05383848 -2.9160755 11.09359038 -5.375 11.125 C-6.42300781 11.15013672 -6.42300781 11.15013672 -7.4921875 11.17578125 C-9.32897486 11.19344267 -11.16601963 11.10303261 -13 11 C-13.66 10.34 -14.32 9.68 -15 9 C-10.05 9 -5.1 9 0 9 C0 6.03 0 3.06 0 0 Z " fill="#030710" transform="translate(685,415)"/>
<path d="M0 0 C0.99 0 1.98 0 3 0 C3.02688151 1.64574566 3.04634123 3.29161413 3.0625 4.9375 C3.07410156 5.85402344 3.08570313 6.77054688 3.09765625 7.71484375 C3 10 3 10 2 11 C-0.35313555 11.07271741 -2.70833668 11.08370868 -5.0625 11.0625 C-6.35285156 11.05347656 -7.64320313 11.04445313 -8.97265625 11.03515625 C-9.97167969 11.02355469 -10.97070312 11.01195312 -12 11 C-12 10.34 -12 9.68 -12 9 C-7.71 9 -3.42 9 1 9 C0.67 6.03 0.34 3.06 0 0 Z " fill="#3F4042" transform="translate(785,508)"/>
<path d="M0 0 C0.99 0 1.98 0 3 0 C3.054138 2.24973447 3.09285491 4.49984383 3.125 6.75 C3.14820313 8.00296875 3.17140625 9.2559375 3.1953125 10.546875 C3.01537302 13.72820492 2.68998582 15.36521896 1 18 C0 17 0 17 -0.09765625 13.18359375 C-0.09098089 11.60153318 -0.07901875 10.01948841 -0.0625 8.4375 C-0.05798828 7.63119141 -0.05347656 6.82488281 -0.04882812 5.99414062 C-0.03700518 3.99606244 -0.01906914 1.99802217 0 0 Z " fill="#121924" transform="translate(776,440)"/>
<path d="M0 0 C2 3 2 3 3 8 C-0.96 8 -4.92 8 -9 8 C-9.33 7.01 -9.66 6.02 -10 5 C-6.7 5 -3.4 5 0 5 C0 3.35 0 1.7 0 0 Z " fill="#212931" transform="translate(463,554)"/>
<path d="M0 0 C0.99 0 1.98 0 3 0 C2.67 5.61 2.34 11.22 2 17 C1.67 16.01 1.34 15.02 1 14 C0.34 14 -0.32 14 -1 14 C-1.02694851 12.04174127 -1.04637218 10.08337774 -1.0625 8.125 C-1.07410156 7.03445313 -1.08570313 5.94390625 -1.09765625 4.8203125 C-1 2 -1 2 0 0 Z " fill="#1D242D" transform="translate(576,526)"/>
<path d="M0 0 C0.66 0.33 1.32 0.66 2 1 C1.5 2.9375 1.5 2.9375 0 5 C-7.158653 6.65199685 -14.69185149 6.09237828 -22 6 C-22 5.67 -22 5.34 -22 5 C-20.37191406 4.83564453 -20.37191406 4.83564453 -18.7109375 4.66796875 C-17.26555848 4.50841392 -15.82024949 4.34822389 -14.375 4.1875 C-13.66214844 4.11724609 -12.94929687 4.04699219 -12.21484375 3.97460938 C-7.53966738 3.4384653 -4.21321203 2.20782432 0 0 Z " fill="#080E16" transform="translate(758,461)"/>
<path d="M0 0 C1.2065625 0.0309375 1.2065625 0.0309375 2.4375 0.0625 C2.4375 0.3925 2.4375 0.7225 2.4375 1.0625 C4.7475 1.3925 7.0575 1.7225 9.4375 2.0625 C9.4375 9.9825 9.4375 17.9025 9.4375 26.0625 C9.1075 26.0625 8.7775 26.0625 8.4375 26.0625 C8.4375 18.4725 8.4375 10.8825 8.4375 3.0625 C4.8075 3.3925 1.1775 3.7225 -2.5625 4.0625 C-2.8925 3.0725 -3.2225 2.0825 -3.5625 1.0625 C-2.5625 0.0625 -2.5625 0.0625 0 0 Z " fill="#0A1D33" transform="translate(577.5625,412.9375)"/>
<path d="M0 0 C1.09765702 1.09765702 2.1945733 2.19605927 3.2890625 3.296875 C4.62811716 4.62981525 5.97968059 5.95019188 7.3359375 7.265625 C8.15320313 8.06484375 8.97046875 8.8640625 9.8125 9.6875 C10.60269531 10.45449219 11.39289063 11.22148438 12.20703125 12.01171875 C14 14 14 14 14 16 C10.04 16 6.08 16 2 16 C2 15.67 2 15.34 2 15 C4.64 14.67 7.28 14.34 10 14 C5.98465947 9.21542685 5.98465947 9.21542685 1.625 4.75 C0 3 0 3 0 0 Z " fill="#222428" transform="translate(381,546)"/>
<path d="M0 0 C0 0.99 0 1.98 0 3 C-8.58 3 -17.16 3 -26 3 C-26 2.67 -26 2.34 -26 2 C-24.89140625 1.93941406 -23.7828125 1.87882812 -22.640625 1.81640625 C-21.1770718 1.73197049 -19.71353075 1.64732401 -18.25 1.5625 C-17.15558594 1.50352539 -17.15558594 1.50352539 -16.0390625 1.44335938 C-11.96367392 1.22039538 -11.96367392 1.22039538 -7.95996094 0.48413086 C-5.28959757 -0.17547683 -2.73785106 -0.06222389 0 0 Z " fill="#172534" transform="translate(615,439)"/>
<path d="M0 0 C0.66 0.33 1.32 0.66 2 1 C1.67 1.66 1.34 2.32 1 3 C4.96 3.33 8.92 3.66 13 4 C13 4.66 13 5.32 13 6 C8.05 6 3.1 6 -2 6 C-1.34 4.02 -0.68 2.04 0 0 Z " fill="#202226" transform="translate(782,473)"/>
<path d="M0 0 C0.33 0 0.66 0 1 0 C1 9.57 1 19.14 1 29 C0.01 29 -0.98 29 -2 29 C-1.84152588 28.29335205 -1.68305176 27.5867041 -1.51977539 26.85864258 C-0.99240834 23.95824766 -0.7938145 21.2061873 -0.68359375 18.26171875 C-0.64169922 17.19501953 -0.59980469 16.12832031 -0.55664062 15.02929688 C-0.51732422 13.92650391 -0.47800781 12.82371094 -0.4375 11.6875 C-0.39431641 10.56537109 -0.35113281 9.44324219 -0.30664062 8.28710938 C-0.20085213 5.52485431 -0.09876328 2.7625137 0 0 Z " fill="#0B1B2F" transform="translate(561,444)"/>
<path d="M0 0 C0.33 0.66 0.66 1.32 1 2 C5.62 1.67 10.24 1.34 15 1 C15.33 1.99 15.66 2.98 16 4 C10.72 4 5.44 4 0 4 C0 2.68 0 1.36 0 0 Z " fill="#2E3034" transform="translate(932,475)"/>
<path d="M0 0 C0.33 0 0.66 0 1 0 C1 3.3 1 6.6 1 10 C-3.95 9.67 -8.9 9.34 -14 9 C-14 8.67 -14 8.34 -14 8 C-10.04 8 -6.08 8 -2 8 C-2 6.02 -2 4.04 -2 2 C-1.34 1.34 -0.68 0.68 0 0 Z " fill="#324351" transform="translate(562,508)"/>
<path d="M0 0 C0.66 0.66 1.32 1.32 2 2 C-4.435 2.495 -4.435 2.495 -11 3 C-11 2.01 -11 1.02 -11 0 C-3.375 -1.125 -3.375 -1.125 0 0 Z " fill="#252C34" transform="translate(499,560)"/>
<path d="M0 0 C3.63 0 7.26 0 11 0 C10.67 0.99 10.34 1.98 10 3 C6.37 3 2.74 3 -1 3 C-0.67 2.01 -0.34 1.02 0 0 Z " fill="#293039" transform="translate(531,423)"/>
<path d="M0 0 C0.33 0 0.66 0 1 0 C1.33 6.93 1.66 13.86 2 21 C0.68 21 -0.64 21 -2 21 C-2 19.02 -2 17.04 -2 15 C-1.67 15 -1.34 15 -1 15 C-0.67 10.05 -0.34 5.1 0 0 Z " fill="#1B2738" transform="translate(134,599)"/>
<path d="M0 0 C0.66 0.33 1.32 0.66 2 1 C-2 5 -6 9 -10 13 C-10 12.01 -10 11.02 -10 10 C-8.66666667 8.66666667 -7.33333333 7.33333333 -6 6 C-5.2127322 3.8618034 -5.2127322 3.8618034 -5 2 C-4.360625 1.855625 -3.72125 1.71125 -3.0625 1.5625 C-1.02454854 1.18992819 -1.02454854 1.18992819 0 0 Z " fill="#0B1B30" transform="translate(204,395)"/>
<path d="M0 0 C0.99 0.33 1.98 0.66 3 1 C3.33 2.32 3.66 3.64 4 5 C-0.29 5 -4.58 5 -9 5 C-9 4.34 -9 3.68 -9 3 C-5.7 3 -2.4 3 1 3 C0.67 2.01 0.34 1.02 0 0 Z " fill="#080A0E" transform="translate(744,557)"/>
<path d="M0 0 C1.80030122 2.70045182 2.93377066 5.06677881 4.125 8.0625 C4.47820313 8.94035156 4.83140625 9.81820312 5.1953125 10.72265625 C6 13 6 13 6 15 C5.34 15 4.68 15 4 15 C3.67 13.35 3.34 11.7 3 10 C2.34 10 1.68 10 1 10 C-0.60725635 6.78548731 -0.05748185 3.56387464 0 0 Z " fill="#1B1F26" transform="translate(730,517)"/>
<path d="M0 0 C1.75994274 3.16789693 2.24872886 5.24364431 3 9 C-0.63 8.34 -4.26 7.68 -8 7 C-8 6.67 -8 6.34 -8 6 C-5.69 6 -3.38 6 -1 6 C-0.67 4.02 -0.34 2.04 0 0 Z " fill="#151D28" transform="translate(282,568)"/>
<path d="M0 0 C1 2 1 2 0.22265625 4.3828125 C-0.16019531 5.28773438 -0.54304688 6.19265625 -0.9375 7.125 C-1.31777344 8.03507813 -1.69804687 8.94515625 -2.08984375 9.8828125 C-2.39019531 10.58148437 -2.69054687 11.28015625 -3 12 C-1.68 12.66 -0.36 13.32 1 14 C-1.31 14.33 -3.62 14.66 -6 15 C-4.36041242 9.76727367 -2.61047965 4.84803364 0 0 Z " fill="#0E0D0F" transform="translate(419,547)"/>
<path d="M0 0 C0.33 0.99 0.66 1.98 1 3 C1.66 3 2.32 3 3 3 C4.5912689 7.873261 5.21192221 11.80790596 5 17 C3.14223235 13.86501708 2.79859524 11.62528568 3 8 C2.34 8 1.68 8 1 8 C0.67 5.36 0.34 2.72 0 0 Z " fill="#0E141C" transform="translate(162,509)"/>
<path d="M0 0 C2.7053871 4.05808065 5 8.04889399 5 13 C4.34 13 3.68 13 3 13 C3 12.01 3 11.02 3 10 C2.34 10 1.68 10 1 10 C-0.60725635 6.78548731 -0.05748185 3.56387464 0 0 Z " fill="#20262A" transform="translate(932,438)"/>
<path d="M0 0 C-2.6598561 3.44216672 -5.90288286 3.99504674 -10 5 C-10 4.01 -10 3.02 -10 2 C-6.5980513 -0.09350689 -3.94727588 -0.17942163 0 0 Z " fill="#161D27" transform="translate(610,557)"/>
<path d="M0 0 C0.99 0.33 1.98 0.66 3 1 C1.68 4.96 0.36 8.92 -1 13 C-1.33 13 -1.66 13 -2 13 C-1.85915204 11.20793453 -1.71216299 9.41635083 -1.5625 7.625 C-1.48128906 6.62726562 -1.40007812 5.62953125 -1.31640625 4.6015625 C-1 2 -1 2 0 0 Z " fill="#1B2028" transform="translate(436,524)"/>
<path d="M0 0 C0.99 0 1.98 0 3 0 C3 4.95 3 9.9 3 15 C2.67 15 2.34 15 2 15 C1.34 10.05 0.68 5.1 0 0 Z " fill="#17222F" transform="translate(857,425)"/>
<path d="M0 0 C1.65 1.65 3.3 3.3 5 5 C-0.61 4.67 -6.22 4.34 -12 4 C-12 3.67 -12 3.34 -12 3 C-6.06 2.505 -6.06 2.505 0 2 C0 1.34 0 0.68 0 0 Z " fill="#070913" transform="translate(399,474)"/>
<path d="M0 0 C1.2065625 0.0309375 1.2065625 0.0309375 2.4375 0.0625 C2.4375 0.3925 2.4375 0.7225 2.4375 1.0625 C4.7475 1.3925 7.0575 1.7225 9.4375 2.0625 C9.4375 2.3925 9.4375 2.7225 9.4375 3.0625 C3.4975 3.5575 3.4975 3.5575 -2.5625 4.0625 C-2.8925 3.0725 -3.2225 2.0825 -3.5625 1.0625 C-2.5625 0.0625 -2.5625 0.0625 0 0 Z " fill="#212B39" transform="translate(577.5625,412.9375)"/>
<path d="M0 0 C0.66 0 1.32 0 2 0 C1.34 1.32 0.68 2.64 0 4 C-4.95 3.67 -9.9 3.34 -15 3 C-15 2.67 -15 2.34 -15 2 C-14.00097656 1.93941406 -13.00195312 1.87882812 -11.97265625 1.81640625 C-10.68230469 1.73261719 -9.39195312 1.64882813 -8.0625 1.5625 C-6.77472656 1.48128906 -5.48695313 1.40007812 -4.16015625 1.31640625 C-1.13976043 1.35080812 -1.13976043 1.35080812 0 0 Z " fill="#2B3742" transform="translate(400,413)"/>
<path d="M0 0 C0.33 0 0.66 0 1 0 C1.06058594 0.61488281 1.12117187 1.22976563 1.18359375 1.86328125 C1.26738281 2.67152344 1.35117187 3.47976563 1.4375 4.3125 C1.51871094 5.11300781 1.59992187 5.91351562 1.68359375 6.73828125 C1.95265693 9.16087179 1.95265693 9.16087179 3 12 C2.0625 14.1875 2.0625 14.1875 1 16 C-0.06723961 12.53777385 -0.10173486 9.35960734 -0.0625 5.75 C-0.04896484 4.13351562 -0.04896484 4.13351562 -0.03515625 2.484375 C-0.02355469 1.66453125 -0.01195312 0.8446875 0 0 Z " fill="#192534" transform="translate(870,529)"/>
<path d="M0 0 C1.134375 0.020625 2.26875 0.04125 3.4375 0.0625 C3.4375 0.7225 3.4375 1.3825 3.4375 2.0625 C1.766875 2.495625 1.766875 2.495625 0.0625 2.9375 C-3.56541092 3.75491329 -3.56541092 3.75491329 -5.5625 6.0625 C-4.48849278 0.07874549 -4.48849278 0.07874549 0 0 Z " fill="#070910" transform="translate(385.5625,530.9375)"/>
<path d="M0 0 C1.32 0 2.64 0 4 0 C4.33623796 1.2909136 4.66889249 2.58276097 5 3.875 C5.185625 4.59429687 5.37125 5.31359375 5.5625 6.0546875 C6 8 6 8 6 10 C5.01 10 4.02 10 3 10 C3 7.03 3 4.06 3 1 C2.01 0.67 1.02 0.34 0 0 Z " fill="#1E2937" transform="translate(884,415)"/>
<path d="M0 0 C2.97 0.495 2.97 0.495 6 1 C6 1.66 6 2.32 6 3 C7.32 3.33 8.64 3.66 10 4 C5.82412255 5.39195915 3.86525224 3.82323219 0 2 C0 1.34 0 0.68 0 0 Z " fill="#22252A" transform="translate(829,557)"/>
<path d="M0 0 C0.66 0.33 1.32 0.66 2 1 C0.9024777 3.99324263 0.32317108 4.84610901 -2.625 6.25 C-3.40875 6.4975 -4.1925 6.745 -5 7 C-1.125 1.125 -1.125 1.125 0 0 Z " fill="#060E1A" transform="translate(368,435)"/>
<path d="M0 0 C2 1.375 2 1.375 4 3 C4 3.66 4 4.32 4 5 C4.99 5.33 5.98 5.66 7 6 C6.34 6.66 5.68 7.32 5 8 C2.5 5.6875 2.5 5.6875 0 3 C0 2.01 0 1.02 0 0 Z " fill="#212428" transform="translate(570,550)"/>
<path d="M0 0 C3 3.75 3 3.75 3 6 C4.32 6.66 5.64 7.32 7 8 C6.34 8.66 5.68 9.32 5 10 C0 4.5 0 4.5 0 0 Z " fill="#1C1E27" transform="translate(472,549)"/>
<path d="M0 0 C1.75 0.0625 1.75 0.0625 4 1 C5.59501537 3.24164322 6.74543018 5.53566643 8 8 C4.27382578 6.75794193 2.60708543 4.8889325 0 2 C0 1.34 0 0.68 0 0 Z " fill="#1F222A" transform="translate(909,531)"/>
<path d="M0 0 C2.31 0 4.62 0 7 0 C4.6875 2.5 4.6875 2.5 2 5 C1.01 5 0.02 5 -1 5 C-0.67 3.35 -0.34 1.7 0 0 Z " fill="#111D2C" transform="translate(907,415)"/>
<path d="M0 0 C0.99 0 1.98 0 3 0 C2.67 2.64 2.34 5.28 2 8 C0 6 0 6 -0.125 2.875 C-0.08375 1.92625 -0.0425 0.9775 0 0 Z " fill="#222831" transform="translate(161,444)"/>
<path d="M0 0 C2.475 0.495 2.475 0.495 5 1 C4.67 2.65 4.34 4.3 4 6 C3.34 6 2.68 6 2 6 C1.34 4.02 0.68 2.04 0 0 Z " fill="#181B22" transform="translate(257,368)"/>
</svg>
